<svg width="203" height="123" viewBox="0 0 203 123" fill="none" xmlns="http://www.w3.org/2000/svg">
<path d="M95.5469 32.4211L98.9507 33.6004L101.674 31.2423L100.994 27.7049L97.5899 26.5252L94.8664 28.8836L95.5469 32.4211ZM98.9959 36.0094C98.7591 36.0094 98.5205 35.9704 98.2908 35.8907L94.6481 34.6286C93.9209 34.3763 93.3789 33.7504 93.2334 32.9947L92.5054 29.2088C92.3599 28.4531 92.6309 27.6707 93.2129 27.167L96.1276 24.6432C96.7092 24.1392 97.5221 23.983 98.2498 24.235L101.892 25.4973C102.62 25.7493 103.162 26.3753 103.307 27.1313L104.035 30.9168C104.18 31.6725 103.91 32.4547 103.328 32.9587L100.413 35.4825C100.015 35.827 99.5089 36.0094 98.9959 36.0094" fill="white"/>
<path d="M139.844 22.0503L141.449 22.6064L142.733 21.4946L142.412 19.8264L140.807 19.2704L139.522 20.3822L139.844 22.0503ZM141.493 25.0151C141.257 25.0151 141.019 24.9761 140.789 24.8964L138.945 24.2579C138.217 24.0056 137.675 23.3793 137.53 22.6234L137.162 20.7077C137.016 19.9523 137.287 19.1698 137.869 18.6658L139.345 17.388C139.927 16.884 140.74 16.7278 141.467 16.9798L143.31 17.6189C144.038 17.8709 144.58 18.4971 144.725 19.2531L145.094 21.1688C145.239 21.9248 144.968 22.707 144.387 23.2106L142.911 24.4885C142.513 24.833 142.006 25.0151 141.493 25.0151" fill="white"/>
<path d="M193.645 48.0138L193.588 48.018L191.947 48.27C191.814 48.2899 191.702 48.38 191.653 48.5047L191.05 50.0524C191.002 50.177 191.024 50.3195 191.108 50.424L192.146 51.7199C192.23 51.8244 192.367 51.877 192.496 51.8565L194.139 51.6048C194.271 51.5846 194.383 51.4944 194.431 51.3698L195.034 49.8218C195.083 49.6971 195.061 49.5546 194.977 49.4505V49.4502L193.939 48.1545C193.867 48.065 193.758 48.0138 193.645 48.0138V48.0138ZM192.441 53.0507C191.971 53.0507 191.517 52.8374 191.218 52.4646L190.179 51.1686C189.83 50.7337 189.739 50.1404 189.941 49.6207L190.545 48.073C190.746 47.5536 191.215 47.1781 191.766 47.0936L193.408 46.8416C193.957 46.7568 194.518 46.9752 194.867 47.4098L195.906 48.7058C196.255 49.1411 196.346 49.734 196.144 50.2538L195.54 51.8015C195.338 52.3209 194.87 52.6967 194.319 52.7812L192.677 53.0329C192.598 53.0448 192.52 53.0507 192.441 53.0507" fill="#DADBD8"/>
<path d="M12.312 59.7844L12.3121 59.7847L12.312 59.7844ZM4.73169 60.9114L7.12228 63.8934L10.8998 63.3144L12.2868 59.7528L9.89624 56.7712L6.11885 57.3504L4.73169 60.9114ZM7.09485 65.981C6.48994 65.981 5.90687 65.707 5.52254 65.2271L3.08141 62.1826C2.63328 61.6233 2.51625 60.8611 2.77646 60.1935L4.19304 56.5567C4.45324 55.889 5.05476 55.4068 5.76287 55.2982L9.62057 54.7064C10.3301 54.5978 11.0476 54.8778 11.4959 55.4368L13.9368 58.4819C14.3852 59.0409 14.5021 59.8028 14.2423 60.4708L12.8256 64.1079C12.5655 64.7758 11.9638 65.2581 11.2554 65.3666L7.39769 65.9581C7.29671 65.9736 7.1955 65.981 7.09485 65.981Z" fill="#DADBD8"/>
<path d="M14.6664 33.3868C14.5324 33.3868 14.4077 33.4588 14.3407 33.5748L13.1905 35.5673C13.1235 35.683 13.1235 35.8273 13.1905 35.9434L14.3407 37.9355C14.4077 38.0515 14.5324 38.1235 14.6664 38.1235H16.9669C17.1008 38.1235 17.2256 38.0515 17.2927 37.9355L18.443 35.9434C18.5099 35.8273 18.5099 35.683 18.443 35.5673L17.2927 33.5748C17.2257 33.4588 17.1008 33.3868 16.9669 33.3868H14.6664ZM16.9669 39.3136H14.6664C14.1087 39.3136 13.5889 39.0137 13.3102 38.5305L12.1599 36.5384C11.881 36.0552 11.881 35.4551 12.1599 34.9723L13.3102 32.9798C13.5889 32.4969 14.1087 32.1968 14.6664 32.1968H16.9669C17.5244 32.1968 18.0443 32.4969 18.3232 32.9798L19.4736 34.9723C19.7525 35.4551 19.7525 36.0552 19.4736 36.5384L18.3232 38.5308C18.0443 39.0137 17.5244 39.3136 16.9669 39.3136" fill="#E7E8E5"/>
<path d="M56.2085 16.8081L51.7229 13.9853L46.215 4.6909L38.554 -1.5611e-05L37.0712 1.60568L37.8504 2.65174L40.2671 5.89524L49.8693 18.7836L53.7849 20.9382L56.2085 16.8081" fill="#E7E8E5"/>
<path d="M50.5717 23.4909L49.2871 19.2103L35.1774 3.09211L33.2963 4.20512L36.275 12.6798L44.4656 20.7249L46.3012 25.7493L50.5717 23.4909" fill="#E7E8E5"/>
<path d="M58.2132 17.6057C58.2132 17.6057 74.1462 26.3497 77.3558 29.3016C80.5657 32.2536 88.0649 44.543 87.3035 46.1127C86.5419 47.6821 85.9594 47.8844 84.2305 46.3745C82.5019 44.8646 76.917 36.431 75.4151 35.0683C73.9133 33.706 55.2511 22.7572 55.2511 22.7572L58.2132 17.6057" fill="#DADBD8"/>
<path d="M46.1431 21.1884C43.4461 20.4874 41.8283 17.7328 42.5292 15.0358C43.2301 12.3385 45.9848 10.7206 48.6818 11.4216C51.3791 12.1225 52.9969 14.8772 52.296 17.5742C51.5951 20.2715 48.8404 21.8893 46.1431 21.1884Z" fill="#E7E8E5"/>
<path d="M46.143 21.1884C46.1474 21.1622 46.5767 21.3092 47.3753 21.3154C47.7737 21.3249 48.2628 21.2618 48.8042 21.1048C49.3442 20.945 49.9366 20.6674 50.4923 20.2256C51.0436 19.7844 51.5705 19.1849 51.9168 18.4259C52.2569 17.6709 52.4631 16.7726 52.3604 15.8402C52.3226 15.3749 52.2054 14.9046 52.0204 14.4526C51.9368 14.2224 51.813 14.0078 51.6979 13.7865C51.5607 13.5782 51.4295 13.3628 51.2623 13.1706C50.6289 12.3742 49.7033 11.7774 48.6629 11.4968C47.6175 11.235 46.5181 11.3052 45.5768 11.6923C45.337 11.7789 45.1174 11.9032 44.8961 12.0184C44.6878 12.1552 44.4751 12.2826 44.2901 12.4432C43.9083 12.7479 43.5766 13.1013 43.3172 13.4899C42.7733 14.2542 42.5163 15.139 42.4455 15.9643C42.3782 16.7959 42.5466 17.5762 42.8135 18.2299C43.0836 18.8865 43.4659 19.4173 43.8598 19.8198C44.2561 20.2205 44.6527 20.5139 45.005 20.6992C45.7056 21.0827 46.1522 21.1634 46.143 21.1884C46.1424 21.191 46.1153 21.1854 46.0629 21.1714C46.0022 21.1544 45.9258 21.1333 45.8312 21.1068C45.7285 21.0798 45.6033 21.0411 45.4617 20.9774C45.318 20.9185 45.1505 20.8548 44.9761 20.7525C44.6152 20.5725 44.2073 20.2824 43.7983 19.8805C43.3916 19.4771 42.9953 18.9403 42.7123 18.2724C42.433 17.6072 42.2542 16.8092 42.3172 15.9554C42.3839 15.1084 42.6433 14.1983 43.1994 13.409C43.465 13.0082 43.8048 12.6428 44.1969 12.3281C44.3873 12.1621 44.6057 12.0303 44.8202 11.889C45.0478 11.7697 45.2739 11.6411 45.5206 11.5513C46.4896 11.1505 47.6243 11.0764 48.7019 11.3469C49.7744 11.6358 50.7289 12.2531 51.3801 13.0748C51.5518 13.2733 51.6866 13.4955 51.8273 13.7106C51.9457 13.9385 52.0721 14.1599 52.1575 14.3973C52.3467 14.8632 52.4655 15.3479 52.5023 15.8269C52.6038 16.7869 52.3872 17.7083 52.0332 18.4804C51.6726 19.2569 51.1278 19.8668 50.5599 20.3119C49.9878 20.7576 49.3802 21.0334 48.8283 21.1881C48.2753 21.3398 47.7778 21.3945 47.375 21.3758C47.173 21.3803 46.9954 21.3547 46.8412 21.3359C46.6865 21.3225 46.5583 21.2955 46.4554 21.269C46.3599 21.2458 46.2828 21.2273 46.2215 21.2128C46.1689 21.1991 46.1424 21.191 46.143 21.1884Z" fill="#DADBD8"/>
<path d="M46.6958 19.0624C45.1728 18.6667 44.2591 17.1113 44.6551 15.5883C45.0508 14.0654 46.6062 13.152 48.1292 13.5477C49.6522 13.9437 50.5658 15.4991 50.1699 17.0218C49.7742 18.5447 48.2188 19.4584 46.6958 19.0624Z" fill="#DADBD8"/>
<path d="M46.6957 19.0624C46.6993 19.0433 46.9426 19.1216 47.3916 19.121C47.8319 19.1198 48.509 18.9993 49.1368 18.5001C49.4444 18.2516 49.7381 17.9154 49.9306 17.4906C50.1195 17.0681 50.2334 16.5659 50.1751 16.0456C50.154 15.7855 50.088 15.5234 49.9844 15.2711C49.8845 15.0173 49.7422 14.7737 49.5605 14.5562C49.2067 14.112 48.6905 13.7794 48.1101 13.6226C47.5266 13.4768 46.9138 13.5155 46.3881 13.7312C46.1233 13.8329 45.8802 13.9763 45.6696 14.1495C45.4562 14.3194 45.2709 14.5163 45.1257 14.7329C44.8211 15.1593 44.6765 15.6534 44.6357 16.1146C44.5967 16.5793 44.6896 17.016 44.8374 17.3826C45.1427 18.1243 45.6755 18.5593 46.0593 18.775C46.4511 18.9939 46.7019 19.0439 46.6957 19.0624C46.6957 19.0624 46.4398 19.0347 46.0305 18.8276C45.6297 18.6238 45.0674 18.1903 44.7366 17.4251C44.5762 17.047 44.4727 16.5924 44.5075 16.1057C44.5444 15.6228 44.6913 15.1033 45.0079 14.6523C45.1593 14.4232 45.353 14.2146 45.5764 14.0344C45.7978 13.8511 46.0531 13.6985 46.3318 13.5902C46.8852 13.3611 47.5335 13.3182 48.1491 13.473C48.7616 13.6375 49.307 13.9909 49.6783 14.4604C49.869 14.6907 50.0177 14.948 50.1216 15.2158C50.2293 15.4821 50.2968 15.7587 50.3173 16.0322C50.3742 16.5802 50.2498 17.1056 50.0469 17.5453C49.8401 17.9874 49.5286 18.334 49.2043 18.5863C48.543 19.0936 47.8405 19.1983 47.391 19.1814C46.9325 19.1629 46.6957 19.0624 46.6957 19.0624" fill="#DADBD8"/>
<path d="M53.0445 20.228L55.1054 16.6412C55.7096 15.5895 57.0523 15.2268 58.104 15.831L58.2971 15.942C59.3488 16.5463 59.7115 17.8889 59.1072 18.9407L57.046 22.5275C56.4418 23.5792 55.0991 23.9419 54.0474 23.3376L53.8543 23.2267C52.8026 22.6224 52.4399 21.2797 53.0445 20.228Z" fill="#E7E8E5"/>
<path d="M53.0445 20.228C53.0665 20.236 52.8666 20.5032 52.7975 21.0658C52.7684 21.3446 52.7928 21.6954 52.9296 22.0687C53.0034 22.2529 53.1028 22.4412 53.2379 22.6209C53.3771 22.7968 53.5503 22.9619 53.7573 23.099C53.968 23.2308 54.1994 23.3724 54.4538 23.4554C54.71 23.5411 54.9935 23.581 55.2839 23.5605C55.8631 23.5224 56.468 23.2192 56.8542 22.6905C57.5375 21.5493 58.262 20.2438 59.0397 18.9026C59.4161 18.2495 59.4071 17.423 59.0498 16.8093C58.8805 16.4978 58.6294 16.2425 58.3426 16.0592C58.0478 15.8715 57.7512 15.7105 57.4278 15.6531C56.7866 15.5225 56.133 15.7037 55.6819 16.0691C55.2154 16.4252 55.0084 16.9687 54.7347 17.3966C54.2244 18.2638 53.8085 18.9707 53.5113 19.4762C53.37 19.7097 53.2572 19.8966 53.1718 20.0376C53.0927 20.1649 53.0489 20.2307 53.0445 20.228C53.0397 20.2253 53.0745 20.1545 53.1447 20.0218C53.2236 19.8772 53.328 19.6856 53.4589 19.4459C53.7457 18.9347 54.1471 18.2195 54.6395 17.3421C54.7653 17.1202 54.8968 16.8878 55.0337 16.6462C55.1726 16.3999 55.3609 16.161 55.6016 15.9685C56.077 15.5767 56.7703 15.3776 57.4557 15.5133C57.8008 15.5722 58.1242 15.746 58.4221 15.9346C58.7297 16.1289 58.9998 16.402 59.1822 16.7349C59.5666 17.3912 59.5782 18.2793 59.1742 18.9799C58.3923 20.3268 57.6768 21.6109 56.9693 22.7747C56.554 23.3373 55.9066 23.6542 55.2925 23.6887C54.9846 23.7074 54.685 23.6622 54.4151 23.5688C54.1408 23.4742 53.9141 23.3302 53.6963 23.1901C53.4806 23.0431 53.3018 22.867 53.1596 22.6804C53.021 22.4903 52.921 22.2919 52.8484 22.0988C52.7136 21.7076 52.6985 21.3443 52.7374 21.059C52.7764 20.7713 52.8669 20.5633 52.9267 20.4256C52.999 20.2929 53.04 20.2253 53.0445 20.228" fill="#DADBD8"/>
<path d="M46.8937 28.2883C46.8937 28.2883 52.9302 45.4311 55.3208 49.0784C57.7116 52.7253 68.6179 62.1232 70.2905 61.6272C71.9631 61.131 72.2571 60.5889 71.0486 58.6378C69.8398 56.6867 62.4269 49.8043 61.3267 48.101C60.2265 46.3977 52.4581 26.2034 52.4581 26.2034L46.8937 28.2883" fill="#DADBD8"/>
<path d="M50.3216 23.6146L46.4473 25.065C45.3114 25.4902 44.7351 26.7558 45.1606 27.892L45.2385 28.1006C45.6637 29.2365 46.9296 29.8128 48.0655 29.3873L51.9398 27.9369C53.076 27.5118 53.6519 26.2462 53.2268 25.11L53.1489 24.9017C52.7234 23.7655 51.4578 23.1895 50.3216 23.6146Z" fill="#E7E8E5"/>
<path d="M50.3216 23.6147C50.3198 23.6099 50.393 23.5804 50.5358 23.5308C50.6816 23.4942 50.9011 23.4385 51.1912 23.4472C51.4792 23.4549 51.8353 23.529 52.1992 23.7256C52.378 23.8286 52.5577 23.9598 52.7225 24.127C52.8835 24.2978 53.0284 24.503 53.1381 24.7396C53.2411 24.9773 53.3461 25.2245 53.3949 25.5104C53.4434 25.7919 53.4392 26.095 53.3705 26.3955C53.2366 26.9959 52.8189 27.5832 52.1962 27.9013C50.933 28.4103 49.5495 28.9074 48.0932 29.4596C47.3363 29.7446 46.4619 29.5887 45.877 29.1029C45.578 28.8688 45.3525 28.5576 45.2109 28.2226C45.0731 27.8983 44.9541 27.5508 44.9523 27.2006C44.9297 26.502 45.2391 25.8505 45.703 25.4453C45.932 25.2391 46.1983 25.0921 46.464 24.9948C46.7246 24.8993 46.9751 24.8071 47.2146 24.7193C48.1607 24.3763 48.9316 24.0963 49.4826 23.8964C49.7405 23.8066 49.9464 23.7346 50.102 23.6801C50.2442 23.6325 50.3198 23.6096 50.3216 23.6147C50.3237 23.6197 50.2517 23.6521 50.113 23.7096C49.9601 23.7706 49.7572 23.8518 49.5037 23.9529C48.9569 24.1642 48.1917 24.4596 47.253 24.822C46.7865 25.0225 46.2162 25.1385 45.7892 25.5408C45.3552 25.9266 45.0701 26.5419 45.0948 27.1958C45.099 27.5243 45.2094 27.8429 45.3468 28.1645C45.4807 28.4772 45.692 28.7667 45.9716 28.9842C46.5193 29.4364 47.3333 29.5795 48.0387 29.3147C49.4885 28.7652 50.8946 28.2627 52.1317 27.7742C52.7163 27.4794 53.1138 26.9316 53.2456 26.3661C53.3128 26.0831 53.3196 25.7969 53.2771 25.5301C53.2363 25.2656 53.134 25.0145 53.0385 24.7848C52.937 24.5584 52.802 24.3608 52.6511 24.1948C52.4961 24.0324 52.3262 23.9035 52.1563 23.8009C51.8106 23.6051 51.4682 23.5239 51.1885 23.5073C50.6221 23.484 50.3257 23.6379 50.3216 23.6147" fill="#DADBD8"/>
<path d="M202.578 122.282C202.578 122.325 157.226 122.36 101.294 122.36C45.3427 122.36 0 122.325 0 122.282C0 122.24 45.3427 122.205 101.294 122.205C157.226 122.205 202.578 122.24 202.578 122.282Z" fill="#5E4352"/>
<path d="M15.8167 88.2461C15.8989 87.9968 25.169 57.6929 25.169 57.6929L24.9371 53.9293L27.3614 49.9373L30.3729 50.9319L29.9608 55.4068L27.8206 58.6607L18.4824 89.1074L15.8167 88.2461" fill="#DADBD8"/>
<path d="M15.8167 88.2461C15.8167 88.2461 15.8792 88.2628 15.9955 88.2982C16.1156 88.3353 16.2866 88.3886 16.5105 88.4579C16.9642 88.6007 17.6282 88.8099 18.4908 89.0812L18.4563 89.0994C19.9645 84.155 23.4528 72.7194 27.748 58.6383L27.7512 58.6279L27.7572 58.619C28.4349 57.5878 29.1606 56.484 29.8966 55.3645L29.8841 55.3996C30.0156 53.9721 30.1548 52.4581 30.2958 50.9247L30.3485 51.0053C30.2702 50.9794 30.1848 50.9512 30.0998 50.9232C29.1709 50.6165 28.2494 50.3118 27.3372 50.0107L27.4275 49.9774C26.6034 51.3338 25.7933 52.6672 25.0023 53.9689L25.0132 53.9248C25.0918 55.208 25.1686 56.4638 25.2435 57.6881L25.2444 57.7018L25.2404 57.7146C22.5311 66.5186 20.1844 74.1436 18.5137 79.5724C17.6734 82.2869 17.0035 84.451 16.542 85.9424C16.3103 86.6841 16.1315 87.2577 16.0088 87.6508C15.9479 87.8427 15.9013 87.9896 15.8682 88.0938C15.836 88.1934 15.8167 88.2461 15.8167 88.2461C15.8167 88.2461 15.828 88.1976 15.8564 88.0997C15.8866 87.9971 15.9294 87.8519 15.9853 87.6624C16.1027 87.2711 16.2738 86.7008 16.4952 85.963C16.9464 84.4727 17.601 82.3095 18.4221 79.5968C20.0801 74.151 22.4087 66.5022 25.0975 57.6708L25.0943 57.6973C25.0184 56.473 24.9405 55.2172 24.861 53.934L24.8595 53.9102L24.8719 53.8897C25.6623 52.5875 26.4719 51.2537 27.2954 49.8971L27.3272 49.8447L27.3856 49.8637C28.2979 50.1651 29.2194 50.4692 30.1482 50.7759C30.2333 50.8042 30.3187 50.8322 30.397 50.858L30.4556 50.8774L30.4499 50.939C30.3086 52.4721 30.1691 53.9864 30.0376 55.4139L30.0358 55.4332L30.0251 55.4493C29.2886 56.5682 28.5622 57.6717 27.8839 58.7023L27.8931 58.683C23.5549 72.7509 20.0318 84.1758 18.5086 89.1154L18.5003 89.1419L18.474 89.1333C17.6092 88.8468 16.9432 88.626 16.4883 88.4752C16.2686 88.4014 16.1009 88.3449 15.9831 88.3053C15.8706 88.2669 15.8167 88.2461 15.8167 88.2461" fill="#5E4352"/>
<path d="M13.579 89.7191L9.41568 95.3489L3.59332 116.469C3.59332 116.469 2.75622 120.776 7.51495 122C12.8583 123.375 14.0908 119.282 14.0908 119.282L19.7519 98.655L19.667 91.4968L21.0645 89.9232C21.3458 89.6067 21.211 89.1056 20.8088 88.9729L14.1236 86.7651C13.7195 86.6318 13.3116 86.9576 13.3526 87.3812L13.579 89.7191" fill="#E43F6F"/>
<path d="M19.7143 91.7458C19.7014 91.7865 18.3001 91.3783 16.5849 90.8339C14.8691 90.2894 13.4892 89.8152 13.502 89.7744C13.515 89.7337 14.916 90.1419 16.6317 90.6863C18.347 91.2305 19.7272 91.705 19.7143 91.7458" fill="#5E4352"/>
<path d="M19.752 98.6549C19.7494 98.6653 19.601 98.6386 19.3347 98.5815C19.0684 98.5249 18.6848 98.4341 18.2128 98.3155C17.2684 98.0784 15.9713 97.7189 14.5556 97.2673C13.1395 96.8148 11.8741 96.3557 10.967 96.002C10.5134 95.8249 10.1485 95.6765 9.89853 95.5684C9.64844 95.4608 9.512 95.3966 9.51595 95.3867C9.51991 95.3766 9.66379 95.4218 9.92039 95.5123C10.2043 95.6134 10.5686 95.7435 11.0053 95.8993C11.9209 96.2266 13.1894 96.6681 14.6026 97.1197C16.0156 97.5705 17.3051 97.9457 18.241 98.2096C18.6872 98.3357 19.0594 98.441 19.3495 98.5228C19.6111 98.5981 19.7545 98.6445 19.752 98.6549Z" fill="#5E4352"/>
<path d="M5.96747 117.108C5.87521 117.108 5.78128 117.095 5.6881 117.068L5.54526 117.025C5.02485 116.871 4.7279 116.325 4.88201 115.804L10.109 98.1501C10.2354 97.7228 10.6268 97.4462 11.0508 97.4462C11.1432 97.4462 11.2371 97.4592 11.3302 97.4866L11.4731 97.5292C11.9934 97.6833 12.2905 98.2298 12.1364 98.7505L6.9094 116.404C6.78295 116.832 6.39154 117.108 5.96747 117.108Z" fill="#E43F6F"/>
<path d="M8.93561 118.086C8.8432 118.086 8.7493 118.073 8.65621 118.045L8.51328 118.003C7.99284 117.848 7.69592 117.302 7.85003 116.781L13.077 99.1274C13.2034 98.6998 13.5948 98.4232 14.0188 98.4232C14.1112 98.4232 14.2051 98.4362 14.2983 98.4639L14.4411 98.5062C14.9616 98.6603 15.2585 99.2071 15.1044 99.7275L9.87742 117.382C9.75097 117.809 9.35968 118.086 8.93561 118.086Z" fill="#E43F6F"/>
<path d="M12.086 119.018C11.9936 119.018 11.8997 119.005 11.8066 118.978L11.6637 118.935C11.1432 118.781 10.8463 118.235 11.0004 117.714L16.2274 100.06C16.3538 99.6329 16.7452 99.3562 17.1692 99.3562C17.2616 99.3562 17.3555 99.3692 17.4486 99.3966L17.5915 99.4392C18.1119 99.5931 18.4089 100.14 18.2548 100.66L13.0278 118.314C12.9014 118.742 12.5101 119.018 12.086 119.018Z" fill="#E43F6F"/>
<path d="M27.7919 58.652C27.778 58.6925 27.1846 58.5241 26.4668 58.2757C25.7487 58.0275 25.1782 57.7934 25.1921 57.7529C25.2062 57.7125 25.7994 57.8812 26.5175 58.1293C27.2352 58.3774 27.806 58.6116 27.7919 58.652Z" fill="#5E4352"/>
<path d="M30.3729 50.9318C30.3819 50.9345 30.3444 51.0817 30.2682 51.3489C30.1822 51.6381 30.0689 52.0201 29.9302 52.4869C29.6235 53.4741 29.2068 54.815 28.7326 56.3421L28.7094 56.4165L28.6351 56.3906C28.1928 56.2365 27.7345 56.077 27.2646 55.9134C26.7796 55.7429 26.3068 55.5772 25.8528 55.4177L25.7856 55.3942L25.8048 55.3261C26.2352 53.7972 26.6126 52.456 26.8905 51.4688C27.0271 51.0062 27.1389 50.6271 27.2235 50.3403C27.3042 50.077 27.3525 49.9348 27.3615 49.9372C27.3705 49.9396 27.3394 50.0869 27.2745 50.3543C27.2009 50.6441 27.1038 51.0273 26.985 51.495C26.7204 52.4857 26.3608 53.8317 25.9509 55.3662L25.9028 55.2749C26.3571 55.4329 26.8303 55.598 27.3158 55.767C27.7853 55.9318 28.2433 56.0925 28.6853 56.2475L28.588 56.296C29.0825 54.7757 29.5167 53.4401 29.8365 52.4569C29.9927 51.996 30.1206 51.6185 30.2176 51.3328C30.3096 51.0707 30.364 50.9288 30.3729 50.9318" fill="#5E4352"/>
<path d="M114.677 17.0786L118.081 18.2582L120.805 15.9001L120.124 12.3626L116.72 11.183L113.997 13.5411L114.677 17.0786ZM118.127 20.6669C117.89 20.6669 117.651 20.6282 117.422 20.5485L113.779 19.2861C113.052 19.0344 112.51 18.4084 112.364 17.6528L111.636 13.8666C111.49 13.1109 111.762 12.3281 112.344 11.8244L115.258 9.30063C115.84 8.79754 116.654 8.64074 117.38 8.89273L121.023 10.1551C121.75 10.4071 122.292 11.0334 122.438 11.7893L123.166 15.5746C123.311 16.3312 123.04 17.1134 122.458 17.6168L119.544 20.1403C119.146 20.4848 118.64 20.6669 118.127 20.6669" fill="#DADBD8"/>
<path d="M114.677 17.0786C114.673 17.0825 114.653 17.0012 114.617 16.8432C114.58 16.6686 114.53 16.4362 114.468 16.1456C114.34 15.5151 114.16 14.6333 113.94 13.5521L113.959 13.4977C114.733 12.8214 115.656 12.0152 116.672 11.128L116.744 11.114C117.798 11.4779 118.949 11.8751 120.149 12.2892C120.104 12.2371 120.211 12.3606 120.2 12.3484L120.201 12.3493L120.201 12.3511L120.201 12.3546L120.203 12.3621L120.206 12.3767L120.211 12.4055L120.223 12.4638L120.245 12.5799L120.289 12.8113C120.319 12.9652 120.348 13.1181 120.377 13.2698C120.435 13.5739 120.493 13.8741 120.55 14.1698C120.662 14.7612 120.771 15.3349 120.876 15.8861L120.852 15.9552C119.829 16.834 118.904 17.6281 118.119 18.3017L118.062 18.3124C117.024 17.9402 116.176 17.6364 115.571 17.4198C115.292 17.3163 115.069 17.2339 114.902 17.172C114.75 17.1143 114.673 17.0825 114.677 17.0786C114.682 17.075 114.767 17.0994 114.926 17.1494C115.098 17.205 115.327 17.2788 115.613 17.3713C116.217 17.5736 117.063 17.8566 118.1 18.2038L118.044 18.2145C118.823 17.5344 119.741 16.7323 120.757 15.8448L120.733 15.9138C120.626 15.3628 120.514 14.7895 120.4 14.1986C120.343 13.9029 120.285 13.6027 120.226 13.299C120.196 13.1472 120.167 12.9943 120.137 12.8405L120.093 12.6093L120.07 12.4933L120.059 12.435L120.054 12.4058L120.051 12.3912L120.049 12.3841L120.049 12.3805L120.048 12.3785V12.3776C120.037 12.3645 120.144 12.4882 120.098 12.4356C118.899 12.0188 117.749 11.6183 116.696 11.2521L116.768 11.2384C115.744 12.1169 114.814 12.9152 114.035 13.5846L114.053 13.5304C114.249 14.6059 114.408 15.4836 114.521 16.1108C114.572 16.4071 114.613 16.6442 114.643 16.8221C114.67 16.9867 114.682 17.075 114.677 17.0786" fill="#5E4352"/>
<path d="M118.127 20.6669C118.126 20.6589 118.256 20.6642 118.495 20.6193C118.731 20.5735 119.085 20.4673 119.446 20.1814C120.153 19.5625 121.161 18.6795 122.404 17.5909C122.713 17.3282 122.955 16.9587 123.07 16.5327C123.126 16.3196 123.151 16.0938 123.139 15.8653C123.125 15.6392 123.065 15.4051 123.022 15.1644C122.835 14.2055 122.635 13.1818 122.426 12.1048C122.373 11.8322 122.33 11.5665 122.21 11.3211C122.095 11.0748 121.93 10.8486 121.726 10.6609C121.522 10.4729 121.277 10.3256 121.01 10.2307C120.733 10.1349 120.454 10.0382 120.172 9.94062C119.607 9.74545 119.033 9.54672 118.45 9.34501C118.158 9.24415 117.865 9.1424 117.569 9.04035C117.272 8.92789 116.986 8.85054 116.676 8.85202C116.37 8.85381 116.067 8.91926 115.793 9.04719C115.514 9.16947 115.292 9.37029 115.057 9.57647C114.591 9.98019 114.131 10.378 113.679 10.7686C113.228 11.1592 112.785 11.543 112.351 11.9188C111.938 12.2922 111.698 12.8253 111.672 13.3549C111.652 13.6215 111.709 13.8776 111.76 14.1433C111.81 14.406 111.859 14.6655 111.908 14.9207C112.005 15.4319 112.099 15.9278 112.19 16.4077C112.283 16.8849 112.363 17.3562 112.457 17.7902C112.572 18.2163 112.815 18.5864 113.123 18.8479C113.277 18.9794 113.446 19.0859 113.621 19.166C113.795 19.2442 113.982 19.301 114.157 19.365C114.509 19.4894 114.842 19.6066 115.153 19.7167C115.772 19.9365 116.307 20.1263 116.748 20.2831C117.187 20.4337 117.519 20.5789 117.758 20.6196C117.997 20.6642 118.127 20.6592 118.127 20.6669C118.127 20.6669 117.997 20.6857 117.753 20.6503C117.506 20.6181 117.169 20.4813 116.728 20.3399C116.284 20.1903 115.747 20.0088 115.125 19.7985C114.812 19.692 114.478 19.5783 114.124 19.4581C113.948 19.3956 113.765 19.3427 113.578 19.2612C113.393 19.1787 113.215 19.0684 113.052 18.9312C112.726 18.6587 112.467 18.271 112.342 17.8215C112.241 17.3708 112.161 16.9123 112.064 16.4318C111.97 15.9525 111.874 15.4571 111.774 14.9466C111.725 14.6913 111.674 14.4325 111.623 14.1698C111.572 13.9119 111.509 13.6322 111.53 13.3478C111.555 12.7816 111.81 12.2113 112.251 11.8096C112.685 11.4321 113.128 11.0465 113.579 10.6541C114.031 10.2625 114.49 9.86446 114.957 9.46014C115.075 9.35928 115.185 9.25724 115.314 9.15638C115.443 9.05939 115.581 8.97549 115.728 8.90676C116.022 8.76931 116.348 8.6988 116.676 8.69732C117.002 8.69285 117.333 8.78419 117.62 8.89397C117.915 8.99661 118.209 9.09836 118.5 9.19952C119.083 9.40183 119.657 9.60117 120.221 9.79723C120.504 9.89541 120.783 9.9927 121.06 10.0891C121.346 10.1914 121.608 10.3503 121.826 10.552C122.044 10.7534 122.22 10.9959 122.341 11.2598C122.47 11.5225 122.516 11.8126 122.566 12.0777C122.771 13.1559 122.965 14.1805 123.148 15.1403C123.189 15.3798 123.249 15.6133 123.263 15.8585C123.274 16.1007 123.247 16.3393 123.186 16.5642C123.061 17.0128 122.802 17.4014 122.476 17.6736C121.218 18.7474 120.198 19.6185 119.484 20.2287C119.107 20.5155 118.741 20.6134 118.5 20.6503C118.256 20.6857 118.127 20.6669 118.127 20.6669" fill="#5E4352"/>
<path d="M93.9725 9.43628L93.9159 9.44045L92.2746 9.69245C92.1419 9.71238 92.0294 9.80282 91.9809 9.92748L91.3781 11.4749C91.3296 11.5998 91.3514 11.7423 91.4353 11.8467L92.4742 13.1424C92.5578 13.2471 92.6923 13.2992 92.8244 13.279L94.466 13.0273C94.5984 13.0071 94.7109 12.9172 94.7594 12.7922L95.3625 11.2446C95.411 11.1199 95.3886 10.9774 95.305 10.8727L94.2664 9.57701C94.1947 9.48746 94.0855 9.43628 93.9725 9.43628ZM92.769 14.4732C92.2984 14.4732 91.8446 14.2602 91.5453 13.8868L90.5067 12.5911C90.1577 12.1559 90.067 11.5626 90.2693 11.0429L90.8721 9.49549C91.0744 8.97573 91.543 8.60057 92.094 8.51578L93.7357 8.26408C94.2872 8.18018 94.846 8.39766 95.195 8.83233L96.2336 10.1283C96.5823 10.5636 96.6736 11.1565 96.4713 11.6763L95.8682 13.2242C95.6659 13.7437 95.1979 14.1192 94.6463 14.2037L93.005 14.4554C92.9264 14.4675 92.8473 14.4732 92.769 14.4732Z" fill="#DADBD8"/>
<path d="M93.9723 9.43626C93.9718 9.43239 94.017 9.4205 94.1003 9.44192C94.1413 9.45382 94.1916 9.47524 94.2407 9.5163C94.2907 9.55973 94.33 9.61447 94.382 9.67308C94.5989 9.9337 94.8836 10.2756 95.2273 10.6885C95.2722 10.7435 95.318 10.7995 95.3647 10.8569C95.4144 10.925 95.4439 11.0095 95.4471 11.0976C95.4534 11.1868 95.4162 11.2779 95.3894 11.3457C95.3611 11.4198 95.3326 11.4951 95.3037 11.5715C95.1862 11.8795 95.0613 12.2064 94.9303 12.5498C94.8973 12.6357 94.8637 12.7229 94.8301 12.811C94.7929 12.9142 94.7117 13.0082 94.6081 13.0588C94.496 13.1123 94.3966 13.1079 94.3023 13.1281C94.205 13.1436 94.1065 13.1588 94.0078 13.1742C93.6058 13.2346 93.2128 13.3031 92.768 13.3608C92.6398 13.3608 92.5133 13.3045 92.4291 13.209C92.3625 13.1263 92.2962 13.0439 92.2304 12.9621C92.1013 12.8003 91.9739 12.6408 91.8484 12.4837C91.7237 12.3269 91.6009 12.1728 91.4804 12.0217L91.3908 11.9089C91.3593 11.8717 91.3251 11.8182 91.3075 11.7664C91.2685 11.6611 91.2733 11.5406 91.3144 11.4418C91.45 11.1006 91.5791 10.7751 91.7008 10.4689C91.7618 10.3172 91.8204 10.1702 91.8772 10.0283C91.9076 9.96049 91.9257 9.88611 91.9778 9.81351C92.0269 9.74509 92.095 9.69421 92.1694 9.66505C92.7415 9.56033 93.1744 9.51957 93.4886 9.47553C93.7974 9.43686 93.9715 9.42109 93.9723 9.43626C93.9718 9.44251 93.931 9.44727 93.8504 9.46631C93.7516 9.48565 93.6356 9.50826 93.4978 9.53504C93.1976 9.59454 92.7314 9.66148 92.2108 9.7665C92.156 9.78941 92.106 9.82869 92.0712 9.87986C92.0373 9.92687 92.018 10.0004 91.9888 10.0718C91.9347 10.2146 91.8784 10.3627 91.8207 10.5156C91.7032 10.8233 91.5782 11.1505 91.4473 11.4939C91.4185 11.5656 91.4173 11.6441 91.4441 11.7164C91.4658 11.7834 91.5366 11.8503 91.5958 11.9291C91.7172 12.0794 91.841 12.2329 91.9668 12.3888C92.0929 12.5453 92.2209 12.7042 92.3506 12.8657C92.4149 12.9451 92.4794 13.0255 92.5446 13.1061C92.5996 13.1689 92.6835 13.2058 92.768 13.2055C93.1845 13.1436 93.5912 13.0829 93.9845 13.0243C94.0839 13.0094 94.1821 12.9945 94.2794 12.98C94.377 12.9618 94.4799 12.9597 94.5427 12.9261C94.6129 12.8916 94.6665 12.8321 94.6944 12.7583C94.7289 12.6705 94.7634 12.5837 94.7974 12.498C94.933 12.1564 95.0621 11.8313 95.1838 11.5251C95.2145 11.4489 95.2442 11.3743 95.2737 11.3005C95.3058 11.2228 95.3302 11.1666 95.3278 11.1009C95.3266 11.0366 95.3064 10.9741 95.271 10.9232C95.2273 10.8667 95.1841 10.8111 95.1419 10.7569C94.8137 10.3315 94.5421 9.97922 94.335 9.71087C94.1744 9.42704 93.9646 9.44995 93.9723 9.43626" fill="#5E4352"/>
<path d="M92.7689 14.4731C92.7689 14.4678 92.8379 14.4574 92.9676 14.4425C93.1131 14.4172 93.3014 14.3842 93.5356 14.3434C93.7887 14.3009 94.0895 14.2503 94.4358 14.192C94.6129 14.1619 94.7976 14.1405 94.9773 14.0608C95.1579 13.987 95.3334 13.8701 95.4846 13.7157C95.6357 13.5595 95.7574 13.3676 95.8365 13.1403C95.924 12.9118 96.015 12.6744 96.1091 12.4286C96.2709 11.9312 96.6038 11.4227 96.483 10.8536C96.4339 10.5724 96.3042 10.3112 96.101 10.0815C95.9067 9.83995 95.7083 9.59331 95.5063 9.34221C95.4054 9.21666 95.3034 9.09021 95.2008 8.96228C95.0993 8.83108 94.9972 8.71981 94.8684 8.62371C94.6158 8.4336 94.2966 8.32382 93.9714 8.32441C93.8114 8.32144 93.6465 8.35892 93.4775 8.38183C93.3106 8.40742 93.1449 8.43271 92.9804 8.4577C92.6531 8.50857 92.3306 8.55885 92.0138 8.60794C91.7145 8.67399 91.4411 8.83108 91.2402 9.04767C91.1394 9.15567 91.0552 9.27705 90.9909 9.40647C90.9296 9.5338 90.8785 9.68137 90.8231 9.81674C90.7148 10.0922 90.6089 10.3609 90.506 10.6221C90.4093 10.8863 90.2825 11.1321 90.2456 11.379C90.1606 11.8865 90.3551 12.3593 90.6518 12.6848C90.9272 13.035 91.1772 13.353 91.3991 13.635C91.5113 13.774 91.6047 13.9111 91.7118 14.0129C91.8183 14.1167 91.9296 14.1976 92.0367 14.2574C92.4752 14.4928 92.7751 14.4508 92.7689 14.4731C92.7689 14.4758 92.7516 14.4779 92.7177 14.4797C92.6835 14.4818 92.6329 14.4809 92.5663 14.4752C92.4348 14.4627 92.236 14.4279 92.0081 14.3107C91.8945 14.2527 91.7758 14.1721 91.6609 14.0661C91.5434 13.9605 91.4458 13.8243 91.3316 13.6895C91.1043 13.4116 90.8481 13.0983 90.5664 12.7535C90.2575 12.4277 90.0288 11.9068 90.1186 11.3594C90.1591 11.0821 90.2864 10.8351 90.3792 10.5727C90.4801 10.3106 90.5839 10.0414 90.6901 9.76497C90.7461 9.62633 90.7913 9.48888 90.8603 9.34251C90.9302 9.1997 91.0216 9.06582 91.1319 8.94681C91.3518 8.70791 91.6514 8.53357 91.9813 8.45978C92.308 8.40236 92.6264 8.35803 92.9572 8.30537C93.1217 8.28008 93.2874 8.2545 93.4543 8.22891C93.6192 8.20689 93.7884 8.16703 93.9714 8.16971C94.3305 8.16881 94.6825 8.29019 94.961 8.50054C95.1002 8.60288 95.2222 8.73825 95.3203 8.86648C95.4227 8.99471 95.5241 9.12145 95.6247 9.2473C95.8255 9.4993 96.0231 9.74653 96.2165 9.989C96.4241 10.224 96.5753 10.5254 96.6238 10.8295C96.677 11.1344 96.638 11.4459 96.5286 11.7161C96.4256 11.9767 96.3256 12.2302 96.2287 12.4753C96.1317 12.7199 96.038 12.9561 95.9478 13.1837C95.8633 13.4182 95.7262 13.63 95.5625 13.7927C95.2356 14.1286 94.7979 14.2494 94.4489 14.2777C94.1011 14.3259 93.7989 14.3678 93.5448 14.4029C93.2961 14.4354 93.1039 14.4636 92.9715 14.4734C92.8379 14.4785 92.7689 14.4785 92.7689 14.4731" fill="#5E4352"/>
<path d="M121.753 10.5895C121.784 10.6163 121.453 11.0631 120.987 11.5698C120.521 12.0777 120.078 12.4234 120.051 12.3912C120.022 12.3585 120.413 11.9673 120.874 11.4648C121.335 10.9623 121.719 10.56 121.753 10.5895Z" fill="#5E4352"/>
<path d="M116.175 8.87872C116.214 8.86504 116.419 9.36159 116.573 10.0039C116.728 10.6463 116.771 11.1815 116.73 11.1874C116.687 11.194 116.575 10.6748 116.422 10.0402C116.27 9.40562 116.133 8.89271 116.175 8.87872" fill="#5E4352"/>
<path d="M113.957 13.4813C113.939 13.522 113.438 13.3459 112.813 13.1534C112.189 12.9591 111.675 12.8211 111.684 12.7779C111.692 12.7372 112.226 12.8086 112.859 13.0052C113.492 13.2004 113.973 13.4432 113.957 13.4813Z" fill="#5E4352"/>
<path d="M113.321 18.6425C113.289 18.6152 113.561 18.2349 113.93 17.7934C114.299 17.3519 114.624 17.0163 114.657 17.0437C114.69 17.0711 114.417 17.4513 114.048 17.8928C113.68 18.3343 113.354 18.6699 113.321 18.6425Z" fill="#5E4352"/>
<path d="M118.333 20.2721C118.29 20.2789 118.197 19.8493 118.123 19.3126C118.05 18.7762 118.025 18.3373 118.067 18.3323C118.11 18.3272 118.203 18.7568 118.277 19.2918C118.35 19.8267 118.375 20.2658 118.333 20.2721Z" fill="#5E4352"/>
<path d="M122.565 16.4595C122.55 16.4993 122.157 16.3854 121.688 16.2051C121.218 16.0248 120.85 15.846 120.865 15.8061C120.881 15.7662 121.274 15.8802 121.743 16.0605C122.212 16.2408 122.58 16.4196 122.565 16.4595Z" fill="#5E4352"/>
<path d="M181.628 39.2722C183.644 36.8463 185.658 34.3945 187.227 31.6576C188.796 28.9208 189.913 25.8615 189.987 22.7075C189.998 22.2294 189.792 18.91 189.332 18.7776C189.004 18.6827 188.778 21.6127 188.509 21.8236C185.94 23.8345 184.271 26.8186 183.311 29.9362C182.351 33.0539 181.896 36.0213 181.628 39.2722Z" fill="#5E4352"/>
<path d="M155.392 57.7253C156.195 55.6468 160.147 45.2415 160.132 45.2353C160.132 45.2353 153.316 41.6874 155.655 34.4647C156.786 30.976 159.698 23.9806 162.408 17.6807C165.319 10.9093 172.944 7.51284 179.928 9.87094L180.621 10.1051C187.957 13.0692 189.538 20.9554 186.372 28.2062L171.804 61.9741L159.03 58.0255L155.392 57.7253Z" fill="#DFBBB1"/>
<path d="M160.132 45.2353C160.132 45.2353 164.576 47.0323 170.432 45.6292C170.432 45.6292 166.379 50.2073 159.421 47.1361L160.132 45.2353" fill="#F57F62"/>
<path d="M162.406 24.6265C162.203 25.1624 162.49 25.7758 163.046 25.9972C163.601 26.2182 164.215 25.9648 164.417 25.4286C164.62 24.8928 164.333 24.279 163.778 24.0577C163.223 23.836 162.608 24.0904 162.406 24.6265" fill="#5E4352"/>
<path d="M162.937 21.1851C163.019 21.3619 163.991 21.0489 165.096 21.4249C166.205 21.7849 166.824 22.6275 166.989 22.5326C167.068 22.4927 167.02 22.2068 166.754 21.8304C166.493 21.4571 165.984 21.0078 165.294 20.7781C164.605 20.5496 163.94 20.6074 163.519 20.7543C163.091 20.9004 162.895 21.1036 162.937 21.1851" fill="#5E4352"/>
<path d="M172.103 28.5254C171.9 29.0612 172.187 29.6747 172.743 29.896C173.298 30.1174 173.912 29.8636 174.114 29.3275C174.317 28.7917 174.03 28.1779 173.475 27.9565C172.919 27.7349 172.305 27.9896 172.103 28.5254Z" fill="#5E4352"/>
<path d="M173.613 25.2882C173.695 25.4655 174.669 25.1528 175.772 25.5286C176.881 25.8886 177.5 26.7311 177.666 26.6362C177.744 26.596 177.698 26.311 177.43 25.9344C177.169 25.5607 176.66 25.1115 175.971 24.8818C175.281 24.653 174.616 24.711 174.195 24.8577C173.768 25.0043 173.571 25.2075 173.613 25.2882" fill="#5E4352"/>
<path d="M166.78 32.4424C166.806 32.3815 166.159 32.0307 165.094 31.5124C164.821 31.3881 164.573 31.2417 164.591 31.0331C164.593 30.807 164.814 30.5422 165.062 30.2599C165.558 29.6666 166.077 29.0445 166.622 28.3927C168.815 25.7243 170.503 23.4914 170.395 23.404C170.287 23.3168 168.422 25.4089 166.23 28.0773C165.696 28.7381 165.186 29.367 164.7 29.9695C164.485 30.2542 164.178 30.5559 164.179 31.0278C164.184 31.2643 164.339 31.4874 164.504 31.5972C164.666 31.7135 164.824 31.7704 164.961 31.8257C166.061 32.2642 166.754 32.504 166.78 32.4424" fill="#5E4352"/>
<path d="M169.775 34.3058C169.598 34.2347 169.191 35.4337 167.876 35.9383C166.563 36.4465 165.329 35.88 165.263 36.0445C165.221 36.1141 165.47 36.3736 166.005 36.5708C166.528 36.7678 167.358 36.8585 168.163 36.55C168.966 36.2391 169.47 35.6336 169.677 35.1549C169.892 34.6691 169.859 34.3267 169.775 34.3058" fill="#5E4352"/>
<path d="M175.188 20.8237C175.196 21.161 176.348 21.391 177.592 21.9855C178.848 22.5546 179.765 23.2871 180.028 23.0758C180.149 22.9729 180.062 22.6284 179.737 22.1949C179.416 21.7629 178.841 21.261 178.092 20.9114C177.342 20.5633 176.587 20.4464 176.05 20.4788C175.509 20.5098 175.19 20.6654 175.188 20.8237" fill="#5E4352"/>
<path d="M164.634 17.6649C164.744 17.9818 165.594 17.9782 166.513 18.2751C167.443 18.5399 168.147 19.0151 168.414 18.8124C168.535 18.7116 168.499 18.4188 168.24 18.0669C167.986 17.7173 167.493 17.3353 166.857 17.1419C166.222 16.9491 165.6 16.9925 165.194 17.1422C164.783 17.291 164.59 17.5138 164.634 17.6649" fill="#5E4352"/>
<path d="M183.986 33.3338C184.127 33.3222 189.422 33.5409 187.605 38.4052C185.787 43.2696 181.278 40.4414 181.322 40.2986C181.366 40.1561 183.986 33.3338 183.986 33.3338Z" fill="#DFBBB1"/>
<path d="M183.496 39.0113C183.524 39.0036 183.559 39.1021 183.678 39.2214C183.793 39.3374 184.017 39.4713 184.306 39.471C184.89 39.4746 185.628 38.8203 185.979 37.9522C186.157 37.5142 186.222 37.0579 186.195 36.6503C186.18 36.2391 186.043 35.9044 185.801 35.7619C185.566 35.606 185.325 35.6926 185.214 35.8074C185.098 35.9187 185.093 36.0276 185.064 36.0261C185.046 36.0335 184.99 35.9056 185.104 35.7193C185.161 35.6304 185.26 35.537 185.41 35.4861C185.562 35.4349 185.751 35.4507 185.924 35.5376C186.29 35.7033 186.498 36.1748 186.528 36.6223C186.577 37.0793 186.515 37.5961 186.315 38.0881C185.917 39.0566 185.073 39.7864 184.294 39.7269C183.918 39.6882 183.671 39.4781 183.567 39.3086C183.461 39.1318 183.476 39.0137 183.496 39.0113" fill="#F57F62"/>
<path d="M168.626 10.8527C168.008 10.1188 171.338 8.48153 173.601 8.34646C177.023 8.14267 181.785 9.0361 184.18 10.8292C187.063 12.988 189.133 15.6287 189.627 19.1965C190.122 22.764 189.416 26.4291 188.031 29.7541C187.609 30.7686 187.093 31.7969 186.212 32.4538C185.123 33.266 183.565 33.4424 183.054 34.9428C182.868 35.4911 182.505 35.9775 181.983 36.2295C180.734 36.8329 179.989 35.5298 179.831 34.4495C179.494 32.1417 180.246 29.8288 180.987 27.6177C181.513 26.0459 182.057 24.4423 183.062 23.1246C183.61 22.4073 184.284 21.79 184.79 21.0438C185.297 20.2976 185.629 19.3572 185.376 18.4917C185.335 18.351 185.25 18.1609 185.135 17.9422C184.224 16.2119 182.44 15.114 180.485 15.0626C177.385 14.9807 172.169 14.6341 171.307 13.2403C170.066 11.235 169.981 10.205 169.981 10.205L168.626 10.8527" fill="#5E4352"/>
<path d="M184.81 7.86179C185.122 8.02007 192.432 12.5366 192.384 19.123C192.335 25.7088 191.13 27.3219 191.13 27.3219C191.13 27.3219 191.494 27.7593 191.713 28.3183C191.909 28.819 190.788 30.5137 189.826 29.9481C183.262 23.8585 174.217 20.3613 163.899 17.1663L156.116 14.3803C153.839 13.8817 153.271 13.0365 154.383 12.8047C155.236 12.6271 162.305 12.2701 162.305 12.2701L163.831 11.7997L168.599 8.43421C168.599 8.43421 168.415 7.67435 169.383 7.42741C170.35 7.17988 178.653 4.73759 184.81 7.86179" fill="#E43F6F"/>
<path d="M163.832 11.7997C163.832 11.7997 163.935 11.8414 164.136 11.9071C164.375 11.9836 164.665 12.0761 165.015 12.188C165.783 12.4162 166.876 12.8024 168.22 13.2977C170.893 14.3188 174.519 15.9379 178.261 18.1996C182.018 20.4369 185.21 22.7905 187.489 24.525C188.631 25.3902 189.541 26.1096 190.173 26.6023C190.462 26.8278 190.703 27.0149 190.901 27.1693C191.069 27.2976 191.161 27.3597 191.161 27.3597C191.161 27.3597 191.081 27.283 190.919 27.1473C190.725 26.9875 190.49 26.7936 190.207 26.56C189.585 26.0542 188.684 25.323 187.549 24.4471C185.284 22.6917 182.097 20.322 178.332 18.0806C174.583 15.8141 170.94 14.2048 168.254 13.2058C165.558 12.2213 163.832 11.7997 163.832 11.7997" fill="#5E4352"/>
<path d="M190.851 13.832C190.851 13.832 190.845 13.8285 190.831 13.8216C190.595 13.4265 190.341 13.0478 190.075 12.6863C190.382 13.0409 190.643 13.4224 190.851 13.832" fill="#A7A9A8"/>
<path d="M190.832 13.8217C190.415 13.6012 183.541 9.99323 179.125 9.99323C178.848 9.99323 178.582 10.0072 178.327 10.0373C178.5 10.0138 178.674 9.98996 178.847 9.96646C177.46 10.0819 176.074 10.1976 174.687 10.3131C174.493 10.3291 174.291 10.3425 174.09 10.3425C173.563 10.3425 173.043 10.2509 172.693 9.87929C172.693 9.87929 175.172 8.82906 179.096 8.82906C179.134 8.82906 179.171 8.82906 179.209 8.82936C182.738 8.84721 187.725 9.96943 190.075 12.6863C190.341 13.0478 190.595 13.4266 190.832 13.8217" fill="#E43F6F"/>
<path d="M190.96 13.9198C190.96 13.9198 190.778 13.6247 190.367 13.1552C189.957 12.6869 189.321 12.035 188.41 11.3865C187.506 10.7319 186.328 10.084 184.93 9.60376C183.54 9.12447 181.908 8.78054 180.199 8.94685C179.347 9.01885 178.531 9.18665 177.747 9.35058C176.966 9.52879 176.207 9.66058 175.492 9.85903C174.783 10.0584 174.119 10.2779 173.473 10.3398C172.825 10.4309 172.235 10.2752 171.708 10.1054C169.598 9.41246 168.459 8.53509 168.599 8.43453C168.601 8.42917 168.593 8.53301 168.71 8.65767C168.824 8.77697 169.013 8.93465 169.28 9.0965C169.811 9.42406 170.619 9.83701 171.677 10.1985C172.199 10.3752 172.822 10.543 173.485 10.4546C174.146 10.3957 174.821 10.1765 175.526 9.9825C176.23 9.7903 176.996 9.65969 177.775 9.48386C178.558 9.32202 179.37 9.1563 180.211 9.08519C181.897 8.92126 183.506 9.25567 184.889 9.72485C186.277 10.1943 187.45 10.8274 188.353 11.4668C189.265 12.0996 189.906 12.7363 190.327 13.1912C190.537 13.4197 190.693 13.6035 190.795 13.7318C190.899 13.8576 190.96 13.9198 190.96 13.9198" fill="#5E4352"/>
<path d="M192.15 23.3326C192.196 22.9387 192.237 22.5085 192.272 22.0402C192.258 22.3743 192.223 23.0449 192.15 23.3326Z" fill="#A7A9A8"/>
<path d="M192.15 23.3332C188.556 21.812 186.321 20.3182 183.105 18.132C182.54 17.7485 181.214 16.698 180.902 16.0911C180.589 15.4845 180.597 14.8436 180.93 14.2483C181.421 15.3988 182.758 16.1857 183.86 16.9307C185.313 17.9122 186.822 18.7443 188.32 19.6553C189.726 20.5104 190.752 21.3071 192.279 21.8441C192.279 21.8441 192.277 21.9206 192.272 22.0402C192.237 22.5085 192.196 22.9387 192.15 23.3326C192.15 23.3329 192.15 23.3329 192.15 23.3332" fill="#E43F6F"/>
<path d="M192.358 18.3926C193.184 19.1468 193.681 19.6351 193.426 20.4711C193.213 21.167 192.784 21.9604 192.065 21.848C191.846 21.8135 191.649 21.6992 191.457 21.5871C188.177 19.666 184.897 17.745 181.617 15.8239C181.284 15.629 180.927 15.4053 180.8 15.0411C180.605 14.4809 181.094 13.8689 181.666 13.7133C182.238 13.5577 182.844 13.7279 183.408 13.91C186.616 14.9468 189.541 16.5421 192.358 18.3926" fill="#E43F6F"/>
<path d="M180.91 15.2521C180.93 15.2459 180.765 15.0721 180.784 14.6931C180.799 14.3373 181.049 13.7529 181.676 13.5084C182.308 13.2945 183.145 13.4379 183.964 13.7687C184.798 14.1025 185.711 14.4824 186.653 14.9127C188.542 15.7674 190.174 16.7037 191.286 17.4838C191.846 17.8673 192.278 18.207 192.577 18.4421C192.698 18.5402 192.81 18.631 192.917 18.717C192.996 18.7789 193.039 18.8095 193.042 18.8059C193.045 18.8027 193.009 18.7649 192.935 18.6961C192.834 18.6033 192.727 18.506 192.611 18.4004C192.323 18.1517 191.898 17.7991 191.342 17.4034C190.241 16.599 188.606 15.6436 186.711 14.7865C185.765 14.3542 184.85 13.9779 184.011 13.6494C183.173 13.3213 182.313 13.1764 181.641 13.4168C180.971 13.694 180.731 14.3167 180.73 14.6913C180.727 14.8871 180.777 15.034 180.822 15.1251C180.873 15.2131 180.907 15.2542 180.91 15.2521" fill="#5E4352"/>
<path d="M167.103 9.49065L173.802 11.6363L172.596 13.3179L165.417 10.681L167.103 9.49065" fill="white"/>
<path d="M175.136 18.8484C175.153 18.8142 172.333 17.3722 168.838 15.6281C165.342 13.8835 162.495 12.4974 162.478 12.5319C162.461 12.5661 165.28 14.0079 168.776 15.7525C172.271 17.4965 175.119 18.8829 175.136 18.8484Z" fill="#5E4352"/>
<path d="M176.825 54.9426L176.913 50.5447L161.865 56.1347C161.865 56.1347 159.084 47.101 159.084 46.6744L155.749 48.7707L150.206 46.3876L144.664 43.6481L133.452 63.2706L121.692 97.9501L149.406 116.431L169.953 94.4123L182.444 75.3789L189.311 63.323L176.825 54.9426" fill="#E43F6F"/>
<path d="M160.527 56.0711C160.518 56.0711 160.51 55.9173 160.504 55.6314C160.5 55.3235 160.495 54.9102 160.488 54.3982L160.556 54.4413C159.405 54.9998 157.673 56.0062 156.025 57.5444L155.905 57.6569L155.895 57.492C155.884 57.2966 155.873 57.0877 155.861 56.8771C155.74 54.7201 155.639 52.7672 155.574 51.3531C155.546 50.6629 155.522 50.0964 155.505 49.6781C155.501 49.4948 155.497 49.344 155.494 49.2223C155.494 49.1182 155.496 49.0632 155.501 49.0629C155.506 49.0626 155.515 49.117 155.525 49.2205C155.536 49.3419 155.549 49.4922 155.566 49.6748C155.595 50.0923 155.635 50.6578 155.684 51.3472C155.777 52.7595 155.895 54.7115 156.015 56.8684C156.027 57.0791 156.039 57.2879 156.05 57.4834L155.92 57.4313C157.585 55.8819 159.344 54.8864 160.516 54.3553L160.585 54.3238L160.583 54.3988C160.572 54.9108 160.562 55.324 160.555 55.6317C160.545 55.9176 160.536 56.0711 160.527 56.0711Z" fill="#5E4352"/>
<path d="M175.437 55.1539C175.439 55.1589 175.381 55.1907 175.266 55.247C175.136 55.3086 174.969 55.388 174.762 55.4862C174.304 55.6959 173.671 55.9854 172.897 56.34C171.301 57.0541 169.125 58.0272 166.72 59.1028C165.691 59.5577 164.703 59.9941 163.786 60.399L163.661 60.4541L163.684 60.3196C163.979 58.6437 164.039 57.1656 164.027 56.0851L164.097 56.127C163.514 56.4103 163.047 56.6373 162.708 56.8021C162.556 56.8729 162.434 56.93 162.336 56.9755C162.251 57.0136 162.206 57.0312 162.204 57.027C162.202 57.0231 162.243 56.9975 162.324 56.9517C162.419 56.9003 162.538 56.8357 162.684 56.756C163.019 56.5813 163.479 56.3409 164.054 56.0413L164.121 56.0062L164.123 56.0833C164.158 57.1677 164.115 58.6556 163.828 60.3446L163.727 60.2654C164.642 59.8578 165.629 59.419 166.658 58.9611C169.069 57.902 171.252 56.9431 172.853 56.2398C173.635 55.9039 174.275 55.6296 174.738 55.4311C174.949 55.3437 175.121 55.2732 175.253 55.2184C175.372 55.1714 175.435 55.1491 175.437 55.1539" fill="#5E4352"/>
<path d="M149.129 120.286H35.8042C33.4104 120.286 31.47 118.345 31.47 115.952V37.485C31.47 35.0915 33.4104 33.1511 35.8042 33.1511H149.129C151.523 33.1511 153.463 35.0915 153.463 37.485V115.952C153.463 118.345 151.523 120.286 149.129 120.286" fill="#5E4352"/>
<path d="M153.577 122.283H31.9973C29.0728 122.283 26.7021 119.912 26.7021 116.988V114.658H158.872V116.988C158.872 119.912 156.502 122.283 153.577 122.283" fill="#5E4352"/>
<path d="M34.7446 110.197H149.847V36.6131H34.7446V110.197Z" fill="#5E4352"/>
<path d="M80.4406 113.841L82.0807 116.659H105.159L106.682 113.841H80.4406Z" fill="#5E4352"/>
<path d="M146.74 109.961H38.0892C37.5513 109.961 37.1155 109.526 37.1155 108.988V40.0779C37.1155 39.54 37.5513 39.1042 38.0889 39.1042H146.74C147.277 39.1042 147.713 39.54 147.713 40.0776V108.988C147.713 109.526 147.277 109.961 146.74 109.961Z" fill="#E7E8E5"/>
<path d="M147.595 110.065H36.9971L37.1155 44.3996H147.595V110.065Z" fill="white"/>
<path d="M46.4078 41.8406C46.4078 42.3675 46.0002 42.7945 45.4971 42.7945C44.994 42.7945 44.5864 42.3675 44.5864 41.8406C44.5864 41.3134 44.994 40.8865 45.4971 40.8865C46.0002 40.8865 46.4078 41.3134 46.4078 41.8406Z" fill="#5E4352"/>
<path d="M40.8878 41.8406C40.8878 42.3675 40.4802 42.7944 39.9771 42.7944C39.4743 42.7944 39.0664 42.3675 39.0664 41.8406C39.0664 41.3134 39.4743 40.8865 39.9771 40.8865C40.4802 40.8865 40.8878 41.3134 40.8878 41.8406Z" fill="#5E4352"/>
<path d="M43.7247 41.8406C43.7247 42.3675 43.3171 42.7944 42.814 42.7944C42.3109 42.7944 41.9033 42.3675 41.9033 41.8406C41.9033 41.3134 42.3109 40.8865 42.814 40.8865C43.3171 40.8865 43.7247 41.3134 43.7247 41.8406Z" fill="#5E4352"/>
<path d="M152.415 113.841C152.415 113.888 125.338 113.927 91.9454 113.927C58.5408 113.927 31.47 113.888 31.47 113.841C31.47 113.794 58.5408 113.756 91.9454 113.756C125.338 113.756 152.415 113.794 152.415 113.841Z" fill="#5E4352"/>
<path d="M85.664 69.8154C81.7032 73.9178 81.818 80.4536 85.9204 84.4141C90.0226 88.3746 96.5587 88.2595 100.519 84.1573C104.479 80.0549 104.365 73.5188 100.262 69.5586C96.1603 65.5984 89.6242 65.7132 85.664 69.8154ZM80.5342 56.9964C82.3535 55.8967 84.2906 55.0631 86.2882 54.4954L87.4734 48.7998L97.0963 48.6311L98.4812 54.2809C100.498 54.7778 102.463 55.543 104.32 56.578L109.183 53.3899L116.107 60.0753L113.093 65.0468C114.193 66.8667 115.026 68.8044 115.593 70.8022L121.288 71.9872L121.457 81.61L115.807 82.9952C115.311 85.0115 114.545 86.9763 113.511 88.8334L116.698 93.6971L110.013 100.621L105.041 97.6064C103.222 98.7061 101.284 99.5395 99.2866 100.107L98.101 105.802L88.4785 105.971L87.0935 100.321C85.0773 99.8239 83.1122 99.0587 81.2551 98.0239L76.3916 101.212L69.4679 94.5266L72.4823 89.5551C71.3827 87.7352 70.5487 85.7984 69.9814 83.8003L64.2864 82.6147L64.1177 72.9922L69.7678 71.607C70.2643 69.5907 71.0301 67.6256 72.0646 65.7686L68.877 60.9051L75.5613 53.9813L80.5342 56.9964" fill="#DADBD8"/>
<path d="M123.458 61.6709C123.257 64.0421 125.324 65.9004 127.622 65.5032C129.187 65.2325 130.415 63.9094 130.549 62.3258C130.75 59.9543 128.683 58.0951 126.385 58.4929C124.819 58.7639 123.592 60.0876 123.458 61.6709V61.6709ZM118.976 60.6683C119.108 59.9477 119.336 59.2572 119.646 58.6122L118.447 57.0044L120.603 54.4833L122.378 55.4175C122.967 55.0108 123.613 54.6784 124.305 54.436L124.594 52.4524L127.902 52.1942L128.495 54.1084C129.216 54.2408 129.907 54.4684 130.552 54.779L132.159 53.5806L134.68 55.7364L133.746 57.5108C134.153 58.0999 134.485 58.7464 134.728 59.4378L136.711 59.7273L136.969 63.0347L135.055 63.6283C134.923 64.3492 134.695 65.0394 134.385 65.6847L135.583 67.2925L133.427 69.8136L131.653 68.8794C131.064 69.2861 130.417 69.6178 129.726 69.8606L129.436 71.8441L126.129 72.1024L125.535 70.1882C124.815 70.0558 124.124 69.8285 123.479 69.5179L121.871 70.7163L119.35 68.5602L120.284 66.7858C119.878 66.1967 119.546 65.5502 119.303 64.8588L117.32 64.5693L117.061 61.2621L118.976 60.6683" fill="#DADBD8"/>
<path d="M52.0353 94.9595C52.5646 97.2185 54.8245 98.6204 57.0836 98.0914C59.3423 97.5621 60.7445 95.302 60.2152 93.0432C59.6859 90.7845 57.426 89.382 55.1673 89.9113C52.9082 90.4405 51.5064 92.7008 52.0353 94.9595ZM46.5212 93.8863C46.5465 93.0218 46.6884 92.1756 46.935 91.3673L45.249 89.706L47.3135 86.3786L49.5505 87.1512C50.1652 86.5711 50.8602 86.068 51.6236 85.6613L51.6063 83.2954L55.419 82.4023L56.454 84.5295C57.3189 84.5548 58.1653 84.697 58.9734 84.9437L60.6344 83.2579L63.9621 85.3224L63.1894 87.5594C63.7693 88.1741 64.2724 88.8691 64.6791 89.6325L67.0452 89.6152L67.9384 93.4276L65.8112 94.4629C65.7859 95.3275 65.6434 96.1736 65.3967 96.982L67.0827 98.6433L65.0186 101.971L62.781 101.198C62.1663 101.778 61.4716 102.281 60.7082 102.688L60.7254 105.054L56.9128 105.947L55.8777 103.82C55.0132 103.794 54.1667 103.653 53.3587 103.406L51.6974 105.092L48.37 103.027L49.1423 100.79C48.5624 100.175 48.0594 99.4802 47.6526 98.7168L45.2868 98.7343L44.3937 94.9217L46.5212 93.8863" fill="#DADBD8"/>
<path d="M56.7443 63.3087C56.8598 64.7862 58.151 65.8903 59.6281 65.7748C61.1056 65.6594 62.2094 64.3682 62.0939 62.891C61.9785 61.4136 60.6876 60.3095 59.2101 60.4249C57.733 60.5404 56.6292 61.8316 56.7443 63.3087V63.3087ZM53.3669 62.0973C53.4666 61.554 53.6383 61.0336 53.8721 60.5472L52.9686 59.3351L54.5942 57.4343L55.9318 58.1385C56.3757 57.8321 56.8633 57.5816 57.3846 57.3989L57.6027 55.9036L60.0961 55.7087L60.5439 57.152C61.0874 57.2516 61.6078 57.4233 62.0942 57.6574L63.306 56.7539L65.2068 58.3792L64.5026 59.7168C64.8094 60.161 65.0596 60.6484 65.2425 61.1699L66.7378 61.388L66.9327 63.8814L65.4895 64.3289C65.3898 64.8725 65.2178 65.3928 64.984 65.8793L65.8876 67.0913L64.2622 68.9922L62.9243 68.2876C62.4801 68.5944 61.9928 68.8446 61.4715 69.0276L61.2535 70.5229L58.76 70.7174L58.3125 69.2745C57.769 69.1748 57.2483 69.0032 56.7622 68.7693L55.5501 69.6726L53.6493 68.0472L54.3535 66.7096C54.0471 66.2654 53.7969 65.7778 53.6139 65.2566L52.1186 65.0385L51.9237 62.545L53.3669 62.0973" fill="#E7E8E5"/>
<path d="M122.002 89.9886C122.101 91.2575 123.21 92.206 124.479 92.1066C125.748 92.0075 126.696 90.8987 126.597 89.6295C126.498 88.3606 125.389 87.4124 124.12 87.5115C122.851 87.6105 121.903 88.7197 122.002 89.9886ZM119.101 88.9479C119.186 88.4814 119.334 88.0342 119.535 87.6165L118.759 86.5755L120.155 84.9427L121.304 85.5476C121.685 85.2843 122.104 85.0692 122.552 84.9121L122.739 83.6277L124.881 83.4605L125.265 84.7C125.732 84.7856 126.179 84.9332 126.597 85.134L127.638 84.3581L129.271 85.7544L128.666 86.9034C128.929 87.2848 129.144 87.7034 129.302 88.1511L130.586 88.3386L130.753 90.4804L129.514 90.8648C129.428 91.3316 129.28 91.7787 129.079 92.1964L129.856 93.2377L128.459 94.8705L127.31 94.2654C126.929 94.5286 126.51 94.7438 126.062 94.9009L125.875 96.1852L123.733 96.3524L123.349 95.113C122.882 95.0273 122.435 94.8801 122.017 94.6789L120.976 95.4551L119.343 94.0589L119.948 92.9096C119.685 92.5282 119.47 92.1096 119.313 91.6618L118.028 91.4744L117.861 89.3326L119.101 88.9479" fill="#E7E8E5"/>
<path d="M92.7873 92.1757H77.9851C74.1623 92.1757 71.7733 88.0375 73.6845 84.7271L81.0858 71.9078L88.4867 59.0888C90.3983 55.778 95.1767 55.778 97.0879 59.0888L104.489 71.9078L111.89 84.7271C113.802 88.0375 111.412 92.1757 107.59 92.1757H92.7873" fill="#E43F6F"/>
<path d="M108.721 86.2081C108.721 86.2081 108.763 86.2846 108.837 86.4384C108.894 86.5973 108.988 86.841 108.987 87.1774C108.995 87.5098 108.913 87.9349 108.641 88.3467C108.503 88.5484 108.322 88.7465 108.084 88.9021C107.844 89.0536 107.552 89.1589 107.232 89.1803C104.71 89.2071 101.067 89.2026 96.5626 89.2136C92.0576 89.2184 86.6949 89.224 80.7411 89.2303C79.9967 89.2309 79.2431 89.2312 78.4805 89.2318C77.6782 89.2493 76.9147 88.6787 76.6571 87.912C76.5208 87.5327 76.4911 87.1123 76.5818 86.7136C76.6077 86.6154 76.6401 86.5182 76.6723 86.4212C76.7157 86.3292 76.7567 86.2337 76.8029 86.1448L77.0882 85.6226C77.4696 84.925 77.8549 84.2207 78.2434 83.51C79.7985 80.6672 81.4084 77.7242 83.0572 74.7101C84.7078 71.6951 86.3192 68.7518 87.8755 65.909C88.6538 64.4878 89.4184 63.0919 90.1672 61.7245C90.3582 61.3832 90.5326 61.0417 90.7343 60.7058C90.9381 60.3663 91.2243 60.0733 91.5673 59.879C92.2495 59.4809 93.1108 59.4533 93.8055 59.7784C94.1524 59.94 94.4627 60.1816 94.6903 60.485C94.9141 60.7962 95.0685 61.1232 95.247 61.4398C95.5948 62.0764 95.9378 62.7045 96.2758 63.3236C96.952 64.5616 97.6084 65.7635 98.2429 66.9259C99.511 69.2504 100.692 71.4157 101.771 73.393C103.923 77.3467 105.664 80.5467 106.87 82.7626C107.468 83.8679 107.932 84.7268 108.25 85.3138C108.405 85.6036 108.523 85.8255 108.605 85.9791C108.685 86.1293 108.721 86.2081 108.721 86.2081C108.721 86.2081 108.675 86.1344 108.591 85.9865C108.506 85.8348 108.383 85.6152 108.222 85.3287C107.899 84.745 107.426 83.8908 106.817 82.7915C105.601 80.5813 103.845 77.3892 101.675 73.4457C100.591 71.4711 99.4041 69.3087 98.1302 66.9875C97.4932 65.8266 96.8348 64.6258 96.1565 63.3888C95.8173 62.7705 95.4731 62.1428 95.1244 61.5067C94.9471 61.1919 94.7849 60.8566 94.5782 60.571C94.3637 60.2854 94.0718 60.0596 93.7457 59.9082C93.0924 59.6029 92.2802 59.6303 91.6405 60.0046C91.3189 60.1872 91.0514 60.4621 90.8598 60.782C90.665 61.1065 90.4861 61.4567 90.2972 61.7956C89.5493 63.1633 88.7859 64.5601 88.0084 65.9819C86.453 68.825 84.8426 71.7689 83.1932 74.7842C81.5435 77.798 79.9324 80.7407 78.3767 83.5829C77.9876 84.2933 77.602 84.9973 77.22 85.6946C77.0373 86.0499 76.8046 86.3771 76.727 86.7475C76.6428 87.1173 76.6696 87.5083 76.796 87.8617C77.0379 88.5773 77.7391 89.1009 78.4805 89.086C79.2431 89.0866 79.9967 89.0872 80.7411 89.0875C86.6949 89.0937 92.0576 89.0994 96.5626 89.1041C101.063 89.1107 104.706 89.1163 107.228 89.1199C107.537 89.1018 107.821 89.0021 108.055 88.8572C108.287 88.7082 108.466 88.5166 108.603 88.3208C108.873 87.9212 108.959 87.5047 108.956 87.1777C108.944 86.5107 108.693 86.2138 108.721 86.2081" fill="#5E4352"/>
<path d="M90.4138 70.0302H95.4421L94.5966 79.9312H91.237L90.4138 70.0302V70.0302ZM90.3915 83.4686C90.3915 82.156 91.4372 81.1771 92.9281 81.1771C94.4186 81.1771 95.4421 82.156 95.4421 83.4686C95.4421 84.7592 94.4186 85.8047 92.9281 85.8047C91.4372 85.8047 90.3915 84.7592 90.3915 83.4686Z" fill="white"/>
<path d="M93.4968 57.6164C93.4855 57.6479 93.1502 57.4504 92.5546 57.4224C91.9679 57.3879 91.1238 57.581 90.4092 58.14C89.6952 58.7029 89.2605 59.4309 88.9909 59.9611C88.7211 60.4969 88.5944 60.8495 88.5703 60.8408C88.5604 60.8373 88.581 60.7456 88.6321 60.5838C88.6833 60.4222 88.7672 60.1911 88.8922 59.9135C89.14 59.3649 89.5702 58.6047 90.314 58.0177C91.0619 57.4325 91.9524 57.2487 92.5617 57.3132C92.8687 57.3424 93.11 57.415 93.2659 57.4855C93.4224 57.5551 93.5007 57.609 93.4968 57.6164" fill="white"/>
<path d="M87.3075 63.0561C87.2709 63.0341 87.4167 62.7196 87.6333 62.3531C87.8502 61.9869 88.0558 61.7075 88.0923 61.7292C88.1292 61.7509 87.9835 62.0657 87.7666 62.4319C87.55 62.7985 87.3444 63.0778 87.3075 63.0561" fill="white"/>
<path d="M74.1663 83.8928L77.1604 78.7063L82.7579 75.2572C81.7966 77.0146 80.849 78.7467 79.9184 80.4482L74.1663 83.8928V83.8928ZM80.1775 80.2929C81.1108 78.5884 82.0605 76.853 83.0242 75.0932L90.454 70.5148L90.7411 73.9671L80.1775 80.2929" fill="#E43F6F"/>
<path d="M79.9185 80.4482C80.8491 78.7467 81.7967 77.0146 82.7579 75.2571L83.0242 75.0932C82.0606 76.853 81.1109 78.5884 80.1776 80.2929L79.9185 80.4482Z" fill="#5E4352"/>
<path d="M101.84 67.3204L100.736 65.408L101.84 67.3204Z" fill="white"/>
<path d="M95.3408 71.2125L95.442 70.0301H91.2405L97.637 66.0884C97.8028 66.3906 97.967 66.6905 98.13 66.9875C98.4888 67.6411 98.8408 68.2822 99.1853 68.9103L95.3408 71.2125V71.2125ZM99.2909 68.8469C98.9485 68.2195 98.5989 67.5789 98.2428 66.9259C98.0791 66.6266 97.9143 66.3246 97.748 66.0199L100.213 64.5011L100.736 65.408L101.84 67.3204L99.2909 68.8469Z" fill="#E43F6F"/>
<path d="M99.1854 68.9103C98.8408 68.2823 98.4889 67.6411 98.1301 66.9875C97.967 66.6906 97.8028 66.3907 97.6371 66.0884L97.7481 66.02C97.9144 66.3246 98.0792 66.6266 98.2428 66.9259C98.599 67.5789 98.9485 68.2195 99.291 68.8469L99.1854 68.9103Z" fill="#5E4352"/>
<path d="M90.7411 73.9672L90.454 70.5148L91.2406 70.0302H95.4421L95.341 71.2125L90.7411 73.9672" fill="white"/>
<path d="M73.9493 90.1044C73.6488 89.7581 73.3757 89.2332 73.2874 88.8251C73.4459 89.2808 73.6694 89.7122 73.9493 90.1044Z" fill="white"/>
<path d="M73.9503 90.1052C73.95 90.1049 73.9497 90.1046 73.9494 90.1043C73.6694 89.7122 73.446 89.2808 73.2874 88.825C73.2871 88.8235 73.2868 88.8223 73.2865 88.8209L76.5487 86.8965C76.5026 87.239 76.5413 87.5903 76.657 87.9119C76.7082 88.0649 76.7796 88.2098 76.8677 88.3439L73.9503 90.1052V90.1052ZM76.9944 88.2675C76.912 88.1419 76.8448 88.0057 76.796 87.8617C76.6755 87.5243 76.6454 87.1527 76.7162 86.7978L91.1023 78.3115L91.2162 79.6815L76.9944 88.2675" fill="#E43F6F"/>
<path d="M76.8677 88.344C76.7796 88.2098 76.7082 88.0649 76.6571 87.912C76.5413 87.5904 76.5026 87.239 76.5488 86.8966L76.7163 86.7978C76.6454 87.1527 76.6755 87.5243 76.796 87.8617C76.8448 88.0057 76.912 88.1419 76.9944 88.2675L76.8677 88.344Z" fill="#5E4352"/>
<path d="M94.8027 77.5163L94.9277 76.0552L101.107 72.4103C101.288 72.7409 101.467 73.0663 101.643 73.3868L94.8027 77.5163ZM101.737 73.3302C101.562 73.0092 101.384 72.6837 101.204 72.3532L103.843 70.7963L104.383 71.7323L101.737 73.3302" fill="#E43F6F"/>
<path d="M101.643 73.3867C101.467 73.0663 101.288 72.7408 101.107 72.4103L101.204 72.3532C101.384 72.6837 101.562 73.0092 101.737 73.3302L101.643 73.3867Z" fill="#5E4352"/>
<path d="M91.2161 79.6815L91.1022 78.3115L94.9276 76.0551L94.8027 77.5162L91.2161 79.6815Z" fill="white"/>
<path d="M179.361 104.409C176.913 101.712 173.203 100.845 169.946 101.889L167.098 98.7638L166.702 98.3202L144.172 73.6006C145.526 70.4604 145.023 66.6837 142.576 63.9861C140.494 61.6917 137.499 60.7206 134.646 61.1232L133.546 61.5605L137.378 64.134L137.175 68.3126L134.077 71.1238L129.898 70.9206L127.166 67.9098L126.037 68.351C125.714 70.873 127.404 74.0484 129.247 76.0792C131.691 78.7729 135.394 79.6408 138.647 78.6048L161.554 103.739L162.259 104.52L164.43 106.902C163.083 110.039 163.588 113.809 166.032 116.503C167.867 118.525 170.301 119.875 172.832 119.807L173.961 119.366L171.229 116.355L171.432 112.176L174.531 109.365L178.709 109.568L180.312 113.02L181.441 112.579C182.118 109.779 181.442 106.704 179.361 104.409" fill="#DADBD8"/>
<path d="M172.647 119.809C170.183 119.809 167.822 118.476 166.032 116.503C164.471 114.782 163.701 112.623 163.699 110.47C163.698 109.252 163.943 108.036 164.43 106.902L162.258 104.52L161.554 103.739L147.595 88.4228L138.647 78.6048C137.757 78.8883 136.833 79.0291 135.911 79.0291C133.462 79.0291 131.022 78.0357 129.247 76.0792C128.249 74.9796 127.296 73.5444 126.683 72.0589C126.259 71.0316 125.998 69.9802 125.997 68.999C125.997 68.7791 126.01 68.5628 126.037 68.351L127.166 67.9098L129.898 70.9206L134.077 71.1238L137.175 68.3126L137.378 64.134L136.129 63.2953L133.546 61.5605L134.646 61.1231C135.065 61.0639 135.487 61.0345 135.909 61.0345C138.358 61.0345 140.8 62.0288 142.575 63.9861C144.139 65.709 144.908 67.872 144.908 70.0284C144.908 71.2482 144.661 72.4659 144.172 73.6006L166.702 98.3202L167.098 98.7638L169.946 101.889C170.841 101.602 171.769 101.46 172.697 101.46C173.789 101.46 174.88 101.657 175.911 102.05L175.266 104.169C175.266 104.169 177.517 104.985 180.492 105.958C181.298 107.351 181.696 108.908 181.694 110.461C181.694 111.173 181.609 111.884 181.441 112.579L180.312 113.02L178.709 109.568L174.531 109.365L171.432 112.176L171.229 116.355L173.961 119.366L172.832 119.807C172.77 119.808 172.709 119.809 172.647 119.809" fill="#8F9192"/>
<path d="M178.231 104.851C175.784 102.153 172.073 101.287 168.817 102.33L165.969 99.205L165.572 98.7614L143.043 74.0419C144.397 70.9019 143.894 67.1249 141.446 64.4274C139.365 62.1332 136.37 61.1622 133.517 61.5644L136.249 64.5755L136.046 68.7538L132.948 71.565L128.769 71.3618L126.037 68.351C125.36 71.1509 126.036 74.2263 128.118 76.5204C130.562 79.2141 134.264 80.082 137.517 79.046L160.425 104.18L161.129 104.961L163.301 107.343C161.954 110.481 162.459 114.25 164.903 116.944C166.984 119.238 169.98 120.209 172.832 119.807L170.1 116.796L170.303 112.617L173.402 109.806L177.58 110.009L180.312 113.02C180.989 110.22 180.313 107.145 178.231 104.851Z" fill="#DADBD8"/>
<path d="M178.231 104.851C178.231 104.851 178.361 104.994 178.609 105.281C178.838 105.583 179.191 106.029 179.541 106.686C179.891 107.341 180.237 108.206 180.444 109.279C180.633 110.35 180.676 111.639 180.343 113.028L180.329 113.086L180.288 113.042C179.478 112.151 178.555 111.137 177.552 110.035L177.578 110.048C176.289 109.987 174.888 109.92 173.4 109.85L173.431 109.838C172.464 110.718 171.424 111.663 170.336 112.653L170.351 112.62C170.29 113.918 170.222 115.331 170.152 116.798L170.139 116.761C170.985 117.692 171.915 118.715 172.873 119.769L172.943 119.847L172.84 119.862C171.426 120.063 169.914 119.931 168.485 119.413C167.057 118.9 165.719 117.998 164.681 116.776C163.635 115.564 162.891 114.029 162.626 112.367C162.353 110.708 162.546 108.931 163.239 107.317L163.251 107.388C155.612 99.0083 146.834 89.3802 137.461 79.0981L137.541 79.1195C135.964 79.6229 134.195 79.6943 132.512 79.2605C130.828 78.8348 129.25 77.8887 128.058 76.5692C127.055 75.4648 126.336 74.1171 125.98 72.6858C125.62 71.2553 125.619 69.7475 125.962 68.3328L125.997 68.1912L126.094 68.2992C127.011 69.3099 127.922 70.3137 128.826 71.3104L128.773 71.2851C130.176 71.3535 131.569 71.4213 132.951 71.4889L132.897 71.5085C133.939 70.5624 134.972 69.6261 135.995 68.6979L135.97 68.7502C136.039 67.3418 136.107 65.95 136.174 64.5716L136.194 64.6255C135.273 63.6101 134.363 62.6069 133.462 61.6141L133.368 61.5099L133.507 61.4912C135.189 61.2633 136.911 61.4954 138.422 62.1662C139.935 62.8303 141.237 63.9031 142.162 65.2119C143.093 66.5159 143.664 68.0466 143.803 69.5934C143.949 71.1399 143.692 72.6899 143.104 74.0683L143.092 73.9966C154.258 86.2724 163.245 96.1528 168.842 102.307L168.807 102.297C170.418 101.785 171.951 101.802 173.209 102.024C174.47 102.274 175.474 102.716 176.214 103.169C176.962 103.618 177.445 104.075 177.773 104.368C178.079 104.686 178.231 104.851 178.231 104.851C178.231 104.851 178.07 104.694 177.76 104.381C177.429 104.093 176.944 103.642 176.196 103.2C175.456 102.753 174.454 102.319 173.2 102.076C171.948 101.86 170.426 101.849 168.827 102.362L168.807 102.369L168.792 102.353C163.184 96.2084 154.18 86.3435 142.993 74.0871L142.964 74.0552L142.981 74.0154C143.559 72.6569 143.811 71.1295 143.666 69.6068C143.528 68.0832 142.964 66.5772 142.047 65.294C141.135 64.0064 139.853 62.9514 138.364 62.2989C136.877 61.6396 135.182 61.4123 133.528 61.6376L133.572 61.5147C134.473 62.5072 135.383 63.5101 136.304 64.5252L136.325 64.5481L136.324 64.5791C136.257 65.9575 136.19 67.3489 136.122 68.7577L136.12 68.7889L136.097 68.81C135.074 69.7386 134.042 70.6752 132.999 71.6216L132.976 71.6427L132.944 71.6412C131.562 71.5742 130.169 71.5067 128.766 71.4386L128.734 71.4371L128.712 71.4136C127.808 70.4169 126.897 69.4134 125.98 68.4027L126.112 68.3691C125.775 69.7597 125.776 71.2422 126.13 72.6483C126.48 74.0549 127.187 75.3792 128.172 76.4651C129.344 77.7625 130.896 78.692 132.55 79.1106C134.205 79.5372 135.944 79.467 137.494 78.9728L137.541 78.9577L137.575 78.9943C146.943 89.2814 155.715 98.9141 163.35 107.298L163.379 107.33L163.362 107.37C162.678 108.96 162.486 110.711 162.753 112.346C163.013 113.985 163.744 115.499 164.775 116.696C165.797 117.903 167.116 118.795 168.525 119.303C169.934 119.816 171.428 119.949 172.824 119.752L172.791 119.844C171.834 118.788 170.906 117.763 170.062 116.831L170.047 116.815L170.048 116.793C170.121 115.326 170.191 113.913 170.255 112.615L170.256 112.595L170.271 112.582C171.362 111.594 172.403 110.651 173.372 109.774L173.386 109.762L173.404 109.763C174.892 109.837 176.293 109.907 177.582 109.971L177.598 109.972L177.608 109.983C178.608 111.089 179.528 112.106 180.336 112.999L180.281 113.013C180.616 111.635 180.579 110.354 180.396 109.287C180.195 108.22 179.856 107.356 179.511 106.702C179.168 106.044 178.82 105.596 178.596 105.292C178.353 105.002 178.231 104.851 178.231 104.851" fill="#5E4352"/>
<path d="M142.014 75.4836C142.023 75.489 141.988 75.5675 141.916 75.7056C141.846 75.8448 141.728 76.0376 141.57 76.2667C141.253 76.7254 140.741 77.3139 140.064 77.8358C139.386 78.3558 138.685 78.6997 138.16 78.8875C137.898 78.9821 137.682 79.0463 137.529 79.0782C137.377 79.1121 137.292 79.1261 137.29 79.1157C137.283 79.0904 137.613 78.9987 138.121 78.7866C138.628 78.576 139.305 78.224 139.971 77.7144C140.634 77.2027 141.148 76.6386 141.482 76.2024C141.818 75.7669 141.991 75.4708 142.014 75.4836Z" fill="#5E4352"/>
<path d="M167.175 86.2203L158.604 82.233L150.954 81.2792L153.764 83.6453C153.764 83.6453 143.875 87.0917 143.701 87.8689C143.528 88.6463 144.483 90.7336 146.224 90.3483C146.224 90.3483 145.245 91.5274 145.652 92.8483C146.061 94.1696 146.961 94.4082 148.624 94.1018C148.624 94.1018 147.493 95.7946 148.38 96.658C149.266 97.5214 150.646 97.3022 150.646 97.3022C150.646 97.3022 150.663 99.3642 151.752 99.5448C152.842 99.7251 155.876 99.5115 157.009 99.1617C158.142 98.8121 162.766 97.384 162.766 97.384L166.518 96.5607L167.175 86.2203" fill="#DFBBB1"/>
<path d="M151.424 88.8375C151.457 88.9509 150.319 89.3811 148.883 89.7985C147.447 90.2159 146.256 90.4622 146.223 90.3489C146.19 90.2355 147.327 89.8056 148.764 89.3882C150.2 88.9708 151.391 88.7245 151.424 88.8375Z" fill="#F57F62"/>
<path d="M152.88 92.9072C152.914 93.0203 152.01 93.3925 150.861 93.7381C149.712 94.0839 148.753 94.2728 148.719 94.1598C148.685 94.047 149.589 93.6748 150.738 93.3291C151.887 92.9831 152.846 92.7944 152.88 92.9072" fill="#F57F62"/>
<path d="M154.186 96.2888C154.206 96.4158 153.385 96.5899 152.42 96.8315C151.461 97.0835 150.706 97.4138 150.646 97.3018C150.59 97.2087 151.285 96.6902 152.311 96.4185C153.332 96.1635 154.17 96.1831 154.186 96.2888" fill="#F57F62"/>
<path d="M155.267 83.3168C155.299 83.4326 154.176 83.8399 152.789 84.3186C151.4 84.7952 150.264 85.165 150.219 85.054C150.174 84.9472 151.247 84.3962 152.65 83.9148C154.051 83.4311 155.237 83.205 155.267 83.3168" fill="#F57F62"/>
<path d="M165.564 85.4709L184.095 92.1822L183.012 104.902L162.61 96.6761L165.564 85.4709" fill="#DFBBB1"/>
<path d="M189.34 63.2132C189.34 63.2132 191.757 65.7106 193.163 70.2001C194.56 74.658 201.205 93.7201 201.036 99.7769C200.861 106.039 196.645 110.508 187.38 108.033C181.852 106.556 175.266 104.169 175.266 104.169L179.947 88.7778L183.61 89.701L177.696 78.5998L189.34 63.2132" fill="#E43F6F"/>
<path d="M185.101 70.4886C185.136 70.5136 182.573 74.1647 179.378 78.6429C176.181 83.1223 173.563 86.7326 173.528 86.7076C173.493 86.6829 176.055 83.0324 179.252 78.5527C182.447 74.0748 185.066 70.4639 185.101 70.4886" fill="#5E4352"/>
<path d="M192.19 91.8064C192.184 91.8174 192.03 91.7279 191.741 91.5949C191.452 91.4607 191.02 91.2965 190.47 91.1459C189.921 90.9936 189.254 90.8517 188.514 90.6907C187.772 90.5268 186.961 90.3474 186.109 90.1591C184.404 89.7777 182.862 89.4239 181.747 89.1603C181.21 89.03 180.766 88.922 180.429 88.8402C180.119 88.7614 179.948 88.7129 179.951 88.7025C179.953 88.6917 180.128 88.7206 180.443 88.7816C180.783 88.8509 181.231 88.9429 181.772 89.0535C182.893 89.2898 184.439 89.6268 186.145 90.0082C186.995 90.2007 187.806 90.384 188.547 90.5518C189.284 90.7202 189.95 90.8734 190.501 91.0406C191.052 91.2063 191.484 91.3887 191.767 91.5407C191.91 91.6154 192.017 91.6806 192.087 91.7276C192.158 91.7749 192.193 91.8017 192.19 91.8064" fill="#5E4352"/>
<path d="M196.393 93.2848C196.229 93.2848 196.058 93.2211 195.902 93.1578C194.672 92.6602 193.425 92.2015 192.166 91.7829C192.149 91.7698 192.123 91.7514 192.087 91.7276C192.017 91.6806 191.91 91.6154 191.767 91.5408C191.483 91.3887 191.052 91.2064 190.501 91.0406C189.95 90.8734 189.284 90.7202 188.547 90.5518C187.806 90.384 186.995 90.2008 186.145 90.0083C185.343 89.8292 184.577 89.6599 183.874 89.5061C187.098 89.6274 190.327 89.7616 193.523 90.2005C194.255 90.3007 195.001 90.4224 195.653 90.7714C196.304 91.1204 196.854 91.7407 196.928 92.4758C196.957 92.7713 196.874 93.1214 196.604 93.2423C196.536 93.2726 196.465 93.2848 196.393 93.2848V93.2848ZM192.054 91.746C190.881 91.3584 189.697 91.0058 188.504 90.6884C188.507 90.6893 188.511 90.6902 188.514 90.6908C189.254 90.8517 189.921 90.9936 190.47 91.146C191.02 91.2965 191.452 91.4607 191.741 91.5949C191.875 91.6565 191.98 91.7086 192.054 91.746" fill="#E43F6F"/>
<path d="M192.166 91.7829C192.129 91.7707 192.092 91.7582 192.054 91.746C191.98 91.7086 191.875 91.6565 191.741 91.5949C191.452 91.4607 191.02 91.2965 190.47 91.1459C189.921 90.9936 189.254 90.8517 188.515 90.6908C188.511 90.6902 188.507 90.6893 188.504 90.6884C186.943 90.2733 185.366 89.9187 183.778 89.6254L183.468 89.4909C183.603 89.4959 183.739 89.501 183.874 89.506C184.578 89.6599 185.343 89.8292 186.145 90.0083C186.995 90.2007 187.806 90.384 188.547 90.5518C189.284 90.7202 189.95 90.8734 190.501 91.0406C191.052 91.2063 191.484 91.3887 191.768 91.5408C191.91 91.6154 192.017 91.6806 192.087 91.7276C192.123 91.7514 192.149 91.7698 192.166 91.7829" fill="#5E4352"/>
<path d="M120.527 36.613H108.762C108.583 36.0501 108.495 35.4608 108.52 34.8684C108.544 34.3002 108.715 33.6709 109.208 33.3871C109.417 33.2666 109.653 33.2264 109.895 33.2264C110.128 33.2264 110.367 33.2636 110.596 33.3026C111.359 33.4323 112.159 33.476 112.979 33.476C113.834 33.476 114.71 33.4281 115.586 33.3802C116.462 33.3323 117.339 33.2844 118.194 33.2844C119.013 33.2844 119.814 33.3285 120.578 33.4582C120.783 34.3162 120.756 35.47 120.527 36.613" fill="#5E4352"/>
<path d="M119.642 39.1041H110.339C110.331 39.097 110.323 39.0895 110.316 39.0824C109.609 38.4032 109.059 37.5443 108.762 36.613H120.526C120.349 37.4969 120.049 38.3743 119.642 39.1041Z" fill="#5E4352"/>
<path d="M115.827 41.2031C115.387 41.2031 114.944 41.1603 114.513 41.0868C112.972 40.825 111.471 40.1808 110.339 39.1041H119.642C119.258 39.7923 118.777 40.3492 118.211 40.6557C117.484 41.0496 116.66 41.2031 115.827 41.2031" fill="#979999"/>
<path d="M108.456 39.1737C108.456 39.1737 106.56 36.9537 106.285 35.9287C106.104 35.2492 106.195 33.3499 106.277 32.1452C106.334 31.3196 106.846 30.5651 107.63 30.2995C107.903 30.2069 108.162 30.195 108.337 30.3566C108.337 30.3566 108.457 30.1489 109.2 29.3873C109.944 28.6259 110.297 28.1098 111.934 28.5837C111.934 28.5837 113.138 27.3124 113.831 27.4073C114.524 27.5022 115.21 27.7045 115.21 27.7045C115.21 27.7045 117.849 27.5933 118.39 28.4314C118.627 28.7979 119.115 29.0541 119.588 29.226C120.422 29.5283 121.106 30.1352 121.471 30.9436C121.966 32.0438 121.998 33.2437 121.998 33.2437L119.312 33.3499C119.312 33.3499 119.502 39.5102 118.828 40.0071C118.153 40.5042 117.895 40.3278 117.895 40.3278C117.895 40.3278 117.381 41.7734 115.373 40.7035C115.373 40.7035 113.707 41.2057 112.995 40.5188C112.284 39.8318 109.67 33.2294 109.67 33.2294L109.743 36.5107C109.743 36.5107 111.12 38.6343 110.446 39.1312C109.772 39.6283 108.456 39.1737 108.456 39.1737" fill="#DFBBB1"/>
<path d="M111.799 30.8231C111.809 30.8198 111.863 30.9578 111.952 31.2098C112.047 31.4913 112.169 31.8513 112.315 32.2824C112.614 33.1898 113.018 34.4468 113.455 35.838C113.895 37.2286 114.25 38.5016 114.663 39.3588C114.862 39.7902 115.063 40.1189 115.209 40.3406C115.355 40.5631 115.448 40.6785 115.437 40.6875C115.433 40.6907 115.406 40.6652 115.358 40.6131C115.309 40.5619 115.241 40.4828 115.16 40.3757C114.997 40.1624 114.779 39.8375 114.564 39.4067C114.12 38.5477 113.747 37.272 113.307 35.8844C112.87 34.4932 112.483 33.2312 112.21 32.3151C112.083 31.8784 111.977 31.5133 111.895 31.228C111.823 30.9703 111.789 30.826 111.799 30.8231" fill="#F57F62"/>
<path d="M115.093 30.0629C115.104 30.0602 115.152 30.2024 115.23 30.4619C115.313 30.7508 115.42 31.1209 115.547 31.5645C115.808 32.4969 116.158 33.7875 116.535 35.2156C116.913 36.6439 117.246 37.9393 117.48 38.8789C117.588 39.3275 117.679 39.7018 117.749 39.9936C117.809 40.2578 117.838 40.4054 117.827 40.4084C117.817 40.4111 117.769 40.2691 117.691 40.0097C117.608 39.7211 117.502 39.351 117.374 38.9077C117.113 37.9753 116.763 36.6841 116.386 35.2551C116.008 33.8268 115.675 32.5311 115.441 31.5915C115.333 31.1429 115.242 30.7686 115.172 30.4768C115.112 30.2126 115.083 30.0656 115.093 30.0629Z" fill="#F57F62"/>
</svg>
