<svg width="143" height="39" viewBox="0 0 143 39" fill="none" xmlns="http://www.w3.org/2000/svg">
<circle cx="8.125" cy="20.8125" r="8.125" fill="#DAB6FC"/>
<circle cx="25.875" cy="8.8125" r="8.125" fill="#9FA0FF"/>
<circle cx="25.875" cy="30.1875" r="8.125" fill="#9FA0FF"/>
<path d="M52 29.5575L60.532 9.2265H60.694L69.199 29.5575H66.202L59.83 13.3305L61.693 12.1155L54.565 29.5575H52ZM56.995 22.1595H64.258L65.122 24.4275H56.239L56.995 22.1595Z" fill="#191919"/>
<path d="M87.4194 27.8835C87.1494 28.1175 86.7714 28.3515 86.2854 28.5855C85.7994 28.8015 85.2594 28.9995 84.6654 29.1795C84.0894 29.3595 83.4864 29.5035 82.8564 29.6115C82.2444 29.7195 81.6684 29.7735 81.1284 29.7735C79.5624 29.7735 78.1494 29.5305 76.8894 29.0445C75.6474 28.5585 74.5764 27.8835 73.6764 27.0195C72.7944 26.1555 72.1104 25.1385 71.6244 23.9685C71.1564 22.7985 70.9224 21.5295 70.9224 20.1615C70.9224 18.5415 71.1834 17.0925 71.7054 15.8145C72.2454 14.5185 72.9744 13.4295 73.8924 12.5475C74.8284 11.6475 75.8994 10.9725 77.1054 10.5225C78.3114 10.0545 79.5894 9.8205 80.9394 9.8205C82.0734 9.8205 83.1264 9.9555 84.0984 10.2255C85.0704 10.4955 85.9254 10.8375 86.6634 11.2515L85.7724 13.6545C85.4124 13.4385 84.9624 13.2405 84.4224 13.0605C83.9004 12.8805 83.3604 12.7365 82.8024 12.6285C82.2444 12.5025 81.7224 12.4395 81.2364 12.4395C80.0844 12.4395 79.0404 12.6195 78.1044 12.9795C77.1684 13.3215 76.3674 13.8255 75.7014 14.4915C75.0354 15.1395 74.5224 15.9315 74.1624 16.8675C73.8024 17.7855 73.6224 18.8205 73.6224 19.9725C73.6224 21.0345 73.8024 22.0065 74.1624 22.8885C74.5224 23.7705 75.0354 24.5355 75.7014 25.1835C76.3674 25.8135 77.1594 26.3085 78.0774 26.6685C79.0134 27.0105 80.0394 27.1815 81.1554 27.1815C81.8214 27.1815 82.4784 27.1185 83.1264 26.9925C83.7744 26.8485 84.3324 26.6505 84.8004 26.3985V22.5105H80.9124V19.9995H87.4194V27.8835Z" fill="#191919"/>
<path d="M97.5977 10.0365C98.5877 10.0365 99.4967 10.1715 100.325 10.4415C101.171 10.6935 101.9 11.0805 102.512 11.6025C103.142 12.1065 103.628 12.7365 103.97 13.4925C104.33 14.2305 104.51 15.0945 104.51 16.0845C104.51 16.8585 104.393 17.6145 104.159 18.3525C103.943 19.0905 103.574 19.7655 103.052 20.3775C102.53 20.9715 101.846 21.4575 101 21.8355C100.172 22.1955 99.1457 22.3755 97.9217 22.3755H95.0327V29.5575H92.4137V10.0365H97.5977ZM97.8677 19.8645C98.6417 19.8645 99.2807 19.7475 99.7847 19.5135C100.307 19.2795 100.712 18.9825 101 18.6225C101.288 18.2445 101.495 17.8395 101.621 17.4075C101.747 16.9755 101.81 16.5705 101.81 16.1925C101.81 15.7965 101.738 15.3915 101.594 14.9775C101.468 14.5455 101.252 14.1495 100.946 13.7895C100.658 13.4295 100.271 13.1325 99.7847 12.8985C99.3167 12.6645 98.7407 12.5475 98.0567 12.5475H95.0327V19.8645H97.8677ZM101.081 21.3495L106.184 29.5575H103.16L97.9757 21.4305L101.081 21.3495Z" fill="#191919"/>
<path d="M110.212 10.0365H122.902V12.5475H112.831V18.4875H121.822V20.9985H112.831V27.0465H123.28V29.5575H110.212V10.0365Z" fill="#191919"/>
<path d="M126.205 10.0365H129.526L142.243 29.5575H138.895L126.205 10.0365ZM125.935 29.5575L132.712 18.9465L133.981 21.4845L129.175 29.5575H125.935ZM134.062 18.0015L138.814 10.0365H141.973L135.466 20.1885L134.062 18.0015Z" fill="#191919"/>
</svg>
