<svg width="537" height="309" viewBox="0 0 537 309" fill="none" xmlns="http://www.w3.org/2000/svg">
<path d="M43.4457 307.533C43.4457 307.533 -35.8055 223.311 19.7661 144.745C40.5022 115.429 93.4413 98.9666 142.105 112.322C170.85 120.21 214.443 119.047 257.039 49.5124C315.125 -45.3132 556.264 -2.19485 509.192 163.944C489.369 233.925 563.264 237.111 526.661 307.684L43.4457 307.533Z" fill="#EBF3FA"/>
<path d="M472.493 138.813L299.87 283.228L209.047 205.856C192.046 220.825 165.793 243.932 139.381 267.117C121.332 282.962 106.719 295.765 94.8747 306.128L12.3811 306.032C35.2573 286.556 127.366 205.615 189.419 150.914L208.393 134.188L300.206 212.404L434.966 99.6632L472.493 138.813Z" fill="#D5E5FB"/>
<path d="M413.115 81.9017L495.33 164.367L518.554 70.1618L413.115 81.9017Z" fill="#D5E5FB"/>
<path d="M143.6 255.662C143.293 248.112 142.631 241.542 141.839 236.962C140.576 229.659 139.439 225.459 139.426 225.415C139.26 224.773 136.857 222.173 131.514 222.254C126.171 222.333 126.677 225.742 126.677 225.742C126.677 225.856 126.692 225.963 126.716 226.044C126.767 226.22 131.672 244.003 131.459 266.963C131.456 267.285 131.42 267.842 131.443 268.213C131.443 268.215 143.825 268.533 143.827 268.213C144.259 266.207 144.049 260.647 143.6 255.662Z" fill="#B7D3F3"/>
<path d="M145.157 266.849C145.153 267.169 144.984 267.426 144.778 267.426H144.773C144.567 267.421 144.403 267.165 144.401 266.849H133.79C133.786 267.169 133.617 267.426 133.411 267.426H133.406C133.197 267.421 133.03 267.156 133.033 266.834C133.094 260.261 132.72 254.123 132.153 248.706C130.742 235.197 128.134 226.169 128.097 226.044C128.074 225.963 128.059 225.856 128.059 225.742C128.059 225.742 127.552 222.335 132.895 222.254C138.238 222.173 140.642 224.773 140.808 225.415C140.818 225.448 141.461 227.827 142.317 232.104C142.601 233.52 142.906 235.144 143.221 236.962C144.012 241.542 144.674 248.112 144.982 255.662C145.43 260.647 145.588 264.843 145.157 266.849Z" fill="#D2E3FC"/>
<path d="M132.249 267.426H173.848C173.848 267.426 172.879 263.506 148.788 264.089C131.739 264.503 132.249 267.426 132.249 267.426Z" fill="#C5DCF8"/>
<path d="M128.863 308.375C133.686 283.958 132.446 268.973 132.44 268.785C132.428 268.408 133.121 268.068 133.493 268.055C133.871 268.048 135.535 267.943 135.728 268.265C135.98 268.686 136.952 287.147 129.763 308.375H128.863Z" fill="#B7D3F3"/>
<path d="M167.704 308.375C162.881 283.958 164.121 268.973 164.128 268.785C164.139 268.408 163.446 268.068 163.074 268.055C162.696 268.048 161.032 267.943 160.84 268.265C160.587 268.686 159.614 287.147 166.805 308.375H167.704Z" fill="#B7D3F3"/>
<path d="M175.401 308.375C170.578 283.958 171.818 268.973 171.825 268.785C171.836 268.408 171.143 268.068 170.771 268.055C170.393 268.048 168.73 267.943 168.537 268.265C168.285 268.686 167.313 287.147 174.502 308.375H175.401Z" fill="#B7D3F3"/>
<path d="M136.612 308.375C141.435 283.958 140.195 268.973 140.189 268.785C140.177 268.408 140.87 268.068 141.242 268.055C141.62 268.048 143.285 267.943 143.477 268.265C143.73 268.686 144.701 287.147 137.512 308.375H136.612Z" fill="#B7D3F3"/>
<path d="M173.873 268.677H132.273C131.805 268.677 131.421 268.294 131.421 267.825V267.266C131.421 266.796 131.805 266.413 132.273 266.413H173.873C174.342 266.413 174.725 266.796 174.725 267.266V267.825C174.725 268.294 174.342 268.677 173.873 268.677Z" fill="#B7D3F3"/>
<path d="M172.413 231.109L186.239 228.114L187.055 230.098C187.055 230.098 171.797 239.178 170.367 238.733C168.938 238.288 172.413 231.109 172.413 231.109Z" fill="#FFB27D"/>
<path d="M159.84 293.65C159.494 294.046 159.45 294.489 159.621 294.963C159.621 294.965 159.623 294.967 159.625 294.969C159.941 295.844 160.989 296.824 162.205 297.799C162.361 297.924 162.499 298.041 162.62 298.146C162.65 298.172 162.683 298.201 162.712 298.229C162.736 298.251 162.76 298.273 162.784 298.293C163.918 299.338 163.492 299.577 165.529 301.7C167.853 304.118 169.453 304.161 169.907 303.942C170.293 303.754 169.51 302.471 168.644 301.031C168.602 300.961 168.561 300.891 168.517 300.82C168.403 300.628 168.287 300.435 168.173 300.242C167.158 298.508 167.419 297.692 167.658 295.112C167.855 293.014 170.922 283.392 170.922 283.392L166.469 282.625C166.469 282.625 165.128 290.287 163.65 291.466C162.861 292.095 161.975 292.104 161.217 292.569C161.162 292.602 161.109 292.635 161.059 292.67C160.627 292.955 160.188 293.251 159.84 293.65Z" fill="#FFB27D"/>
<path d="M159.84 293.65C159.494 294.046 159.45 294.489 159.621 294.963C159.621 294.965 159.623 294.967 159.625 294.969C160.013 295.844 161.033 296.817 162.21 297.791C162.363 297.918 162.499 298.036 162.62 298.146C162.65 298.172 162.683 298.201 162.712 298.229C162.736 298.251 162.76 298.273 162.784 298.293C163.918 299.338 163.492 299.577 165.529 301.7C167.853 304.118 169.453 304.161 169.907 303.942C170.293 303.754 169.51 302.471 168.644 301.031C168.192 300.864 166.09 300.011 164.501 297.977C163.102 296.193 162.17 293.897 161.217 292.569C161.162 292.602 161.109 292.635 161.059 292.67C160.627 292.955 160.188 293.251 159.84 293.65Z" fill="#9FA0FF"/>
<path d="M195.747 290.868C196.021 292.242 197.981 292.012 200.171 291.477C202.359 290.942 201.839 291.578 204.955 291.234C208.07 290.889 209.015 289.728 209.109 289.265C209.194 288.853 207.655 288.708 206.002 288.517C205.796 288.496 205.586 288.469 205.378 288.443C203.514 288.208 202.148 287.007 200.456 286.018C198.851 285.082 196.457 281.27 196.457 281.27L192.185 281.607C192.185 281.607 194.427 285.014 195.295 286.494C195.804 287.364 195.778 288.517 195.714 289.405C195.681 289.89 195.651 290.383 195.747 290.868Z" fill="#FFB27D"/>
<path d="M200.171 291.477C202.359 290.942 201.839 291.578 204.955 291.234C208.07 290.889 209.015 289.728 209.109 289.265C209.194 288.853 207.655 288.708 206.002 288.517L205.987 288.55C205.987 288.55 204.119 289.874 201.526 289.936C199.413 289.988 197.174 289.381 195.714 289.405C195.681 289.89 195.651 290.383 195.747 290.868C196.021 292.242 197.981 292.012 200.171 291.477Z" fill="#9FA0FF"/>
<path d="M186.239 228.114C186.239 228.114 187.259 225.619 188.379 225.518C189.497 225.415 193.062 224.856 193.316 225.365C193.57 225.873 193.316 227.706 192.551 228.368C191.788 229.03 187.055 230.098 187.055 230.098L186.239 228.114Z" fill="#FFB27D"/>
<path d="M179.373 263.547L170.166 288.329C170.166 288.329 168.751 288.465 167.394 288.075C166.147 287.715 164.716 286.77 164.716 286.77C164.716 286.77 167 262.975 171.189 258.027C175.377 253.077 179.373 263.547 179.373 263.547Z" fill="#191919"/>
<path d="M142.953 253.522C142.953 253.522 169.411 244.576 175.313 246.478C181.215 248.384 198.93 283.633 198.93 283.633C198.93 283.633 198.531 284.164 197.439 284.574C196.424 284.955 193.967 284.931 193.967 284.931C193.967 284.931 177.977 271.225 176.074 267.228C174.171 263.23 173.41 259.424 171.505 259.803C169.602 260.185 146.95 269.131 141.81 263.802C136.671 258.472 138.015 251.547 138.015 251.547L142.953 253.522Z" fill="#9FA0FF"/>
<path d="M158.037 190.435C156.894 189.786 155.523 189.714 154.564 189.771C154.811 189.517 155.297 189.423 155.297 189.423C154.702 189.335 153.375 189.925 153.375 189.925C145.106 186.739 143.806 198.915 143.98 201.743C144.152 204.571 144.174 207.827 140.046 210.365C131.923 215.357 138.776 224.071 138.776 224.071C138.84 224.109 142.555 230.409 142.555 230.409C142.347 228.123 152.894 216.061 158.397 212.448C159.737 210.475 160.213 206.991 160.248 206.717C160.017 209.48 159.544 211.03 159.122 211.902C163.782 207.614 161.068 192.158 158.037 190.435Z" fill="#B5453C"/>
<path d="M158.071 212.628C158.098 212.639 155.414 214.033 153.395 213.481C151.495 212.963 150.254 210.501 150.281 210.495C151.085 210.335 151.317 209.23 151.3 204.481L151.664 204.551L157.777 205.762C157.777 205.762 157.638 207.686 157.634 209.499C157.63 211.021 157.722 212.465 158.071 212.628Z" fill="#FFB27D"/>
<path d="M157.777 205.762C157.777 205.762 157.638 207.686 157.634 209.499C154.213 209.403 152.405 206.281 151.664 204.551L157.777 205.762Z" fill="#ED975D"/>
<path d="M151.032 203.887C151.032 203.887 149.239 201.053 148.809 198.63C148.501 196.903 149.382 190.49 155.824 191.415C155.824 191.415 157.695 191.599 159.454 192.788C160.853 193.73 162.872 195.771 160.614 201.364L160.028 203.254L151.032 203.887Z" fill="#B5453C"/>
<path d="M158.92 207.478C158.92 207.478 150.825 207.612 150.82 202.57C150.814 197.527 149.766 194.149 154.934 193.851C160.101 193.553 161.107 195.475 161.519 197.157C161.931 198.841 161.026 207.314 158.92 207.478Z" fill="#FFB27D"/>
<path d="M158.62 193.728C158.62 193.728 156.404 199.643 153.003 200.518C149.601 201.392 148.126 200.48 148.126 200.48C148.126 200.48 150.735 198.409 151.276 194.791C151.276 194.791 156.949 190.911 158.62 193.728Z" fill="#B5453C"/>
<path d="M158.071 194.208C158.071 194.208 159.726 195.528 160.129 196.813C160.533 198.097 160.715 200.739 161.486 200.649C161.486 200.649 163.155 196.629 161.278 194.355C159.289 191.941 158.071 194.208 158.071 194.208Z" fill="#B5453C"/>
<path d="M140.045 234.403C139.247 231.056 141.963 224.56 144.798 219.183C147.371 214.307 150.041 210.352 150.281 210.495C157.065 214.522 157.678 211.174 157.678 211.174H157.679C157.681 211.174 163.841 211.992 165.586 214.995C167.75 218.722 170.089 229.138 172.413 231.108C172.055 232.2 172.209 232.781 172.586 234.134C172.667 234.423 172.757 234.699 172.855 234.96C173.206 235.912 173.642 236.686 174.022 237.354C172.84 238.073 170.56 239.437 168.881 238.457C166.32 236.957 164.321 232.395 163.196 230.578C163.192 230.571 163.19 230.565 163.185 230.558C160.741 244.394 164.064 247.544 162.381 249.002C160.605 250.543 158.067 248.27 152.482 250.69C148.82 252.279 143.737 254.575 140.316 254.976C138.521 255.186 137.182 254.873 136.746 253.663C135.477 250.14 141.568 240.787 140.045 234.403Z" fill="#9FA0FF"/>
<path d="M157.121 204.422C157.121 204.422 157.271 205.062 158.865 204.964C158.865 204.964 160.204 204.882 160.162 204.177C160.162 204.177 158.865 203.677 157.121 204.422Z" fill="white"/>
<path d="M136.746 253.663C137.182 254.873 138.521 255.186 140.316 254.976C142.684 253.943 152.914 249.98 152.8 247.294C152.63 243.319 150.833 243.192 152.102 238.284C153.121 234.344 143.668 227.018 142.161 225.424C139.326 230.802 139.247 231.056 140.045 234.403C141.568 240.787 135.477 250.14 136.746 253.663Z" fill="#191919"/>
<path d="M135.589 239.321C137.404 236.773 139.294 235.427 140.537 234.75C140.251 234.011 148.168 224.306 148.168 222.802C148.168 221.278 150.281 210.495 150.281 210.495C150.281 210.495 143.684 210.902 141.4 214.088C138.543 218.071 132.611 233.402 135.589 239.321Z" fill="#9FA0FF"/>
<path d="M140.537 234.75L153.72 238.19L152.482 240.41C152.482 240.41 136.44 240.298 135.589 239.321C134.739 238.345 140.537 234.75 140.537 234.75Z" fill="#FFB27D"/>
<path d="M163.196 230.578C164.321 232.395 166.32 236.957 168.881 238.457C170.56 239.437 172.84 238.073 174.022 237.354C173.642 236.686 173.206 235.912 172.855 234.96C171.913 235.177 170.764 235.451 170.021 235.675C168.578 236.111 163.196 230.578 163.196 230.578Z" fill="#191919"/>
<path d="M153.72 238.19C153.72 238.19 157.86 237.017 158.846 237.291C159.831 237.565 163.209 239.803 162.736 240.41C162.26 241.018 159.284 240.046 157.914 240.231C156.545 240.415 155.486 241.09 154.5 240.943C153.514 240.798 152.482 240.41 152.482 240.41L153.72 238.19Z" fill="#FFB27D"/>
<path d="M153.72 238.19C153.72 238.19 155.745 237.148 156.322 236.556C156.394 236.482 156.517 236.497 156.573 236.585C156.727 236.828 156.872 237.299 156.162 237.766C155.139 238.439 153.72 238.19 153.72 238.19Z" fill="#FFB27D"/>
<path d="M172.851 244.014H153.537C153.537 243.164 154.227 242.473 155.077 242.473H172.851V244.014Z" fill="#ED7D2B"/>
<path d="M172.796 222.977H202.657L195.495 244.014H165.439L172.796 222.977Z" fill="#ED7D2B"/>
<path d="M203.098 222.98L195.933 244.012H165.88L173.235 222.98H203.098Z" fill="#F99746"/>
<path d="M186.998 233.301C186.811 234.105 186.009 234.756 185.207 234.756C184.402 234.756 183.902 234.105 184.086 233.301C184.273 232.498 185.075 231.845 185.877 231.845C186.682 231.845 187.184 232.498 186.998 233.301Z" fill="#F9DDBF"/>
<path d="M203.098 222.98L195.933 244.012H176.03C189.214 239.514 192.724 225.792 193.314 222.98H203.098Z" fill="#ED893E"/>
<path d="M116.406 308.375C116.784 308.375 117.107 308.11 117.171 307.746L120.922 286.49L126.316 255.914L127.825 247.366L123.983 247.257L123.316 252.22L118.635 287.097L115.86 307.77C115.817 308.09 116.073 308.375 116.406 308.375Z" fill="#95C0F4"/>
<path d="M123.316 252.22C125.805 253.318 126.316 255.914 126.316 255.914L127.825 247.366L123.983 247.257L123.316 252.22Z" fill="#78ACEA"/>
<path d="M211.976 308.375C211.599 308.375 211.277 308.11 211.211 307.746L207.463 286.49L202.067 255.914L200.559 247.366L204.4 247.257L205.066 252.22L209.749 287.097L212.522 307.77C212.566 308.09 212.31 308.375 211.976 308.375Z" fill="#95C0F4"/>
<path d="M205.066 252.22C202.578 253.318 202.067 255.914 202.067 255.914L200.559 247.366L204.4 247.257L205.066 252.22Z" fill="#78ACEA"/>
<path d="M113.843 250.723H212.239C213.529 250.723 214.583 249.668 214.583 248.379V246.354C214.583 245.065 213.529 244.01 212.239 244.01H113.843C112.554 244.01 111.499 245.065 111.499 246.354V248.379C111.499 249.668 112.554 250.723 113.843 250.723Z" fill="#78ACEA"/>
<path d="M358.248 240.432C358.248 240.432 355.694 243.598 356.494 244.03C357.288 244.461 359.399 245.268 359.896 244.76C360.394 244.251 360.549 240.52 360.549 240.52L358.248 240.432Z" fill="#FFB27D"/>
<path d="M358.351 240.484C358.351 240.484 357.307 240.846 356.899 241.39C356.488 241.931 355.58 242.76 355.801 242.988C356.027 243.218 357.328 242.205 357.328 242.205L358.351 240.484Z" fill="#FFB27D"/>
<path d="M367.896 198.158C367.896 198.158 365.019 224.941 364.762 225.704C364.71 225.869 364.484 226.717 364.164 227.936C363.712 229.679 363.072 232.182 362.463 234.563C361.55 238.158 360.71 241.478 360.71 241.478L358.211 240.653C358.211 240.653 358.082 227.638 358.723 224.641C359.368 221.644 361.421 203.229 362.46 200.752C363.497 198.275 367.896 198.158 367.896 198.158Z" fill="#AEC3FF"/>
<path d="M361.912 262.383L346.221 258.269C344.179 257.731 342.946 255.623 343.482 253.582L345.266 246.781C345.8 244.74 347.91 243.506 349.952 244.043L365.643 248.158C367.687 248.693 368.918 250.802 368.384 252.845L366.598 259.643C366.063 261.687 363.953 262.919 361.912 262.383Z" fill="#A02E2E"/>
<path d="M361.54 247.062L355.935 245.59L356.321 244.124C356.384 243.872 356.646 243.721 356.897 243.786L358.306 244.155L360.889 244.832L361.584 245.014C361.635 245.027 361.674 245.047 361.717 245.071C361.888 245.178 361.978 245.389 361.925 245.595L361.54 247.062ZM347.335 247.32L345.532 254.197C345.183 255.53 345.583 256.89 346.468 257.826C346.759 258.137 347.105 258.402 347.499 258.602V258.604C347.745 258.729 348.004 258.83 348.282 258.902L363.945 263.01C365.994 263.547 368.112 262.311 368.648 260.261L370.454 253.382C370.991 251.332 369.753 249.214 367.704 248.677L362.311 247.263L362.695 245.797C362.875 245.117 362.465 244.422 361.788 244.245L361.198 244.089L357.915 243.229L357.101 243.015C356.773 242.929 356.432 242.977 356.139 243.149C355.845 243.319 355.634 243.596 355.549 243.922L355.166 245.389L352.041 244.569C351.917 244.536 351.792 244.512 351.671 244.492H351.668H351.666C350.412 244.291 349.167 244.736 348.313 245.602V245.604C347.856 246.066 347.512 246.65 347.335 247.32Z" fill="#BC3F3F"/>
<path d="M359.738 244.83C359.738 244.83 360.435 243.657 360.174 243.247C359.914 242.837 358.973 244.464 358.973 244.464C358.973 244.464 359.615 243.067 359.375 242.837C359.135 242.607 358.15 244.212 358.15 244.212C358.15 244.212 358.764 242.854 358.55 242.809C358.336 242.762 357.606 243.951 357.606 243.951C357.606 243.951 357.985 242.934 357.637 242.984C357.291 243.032 356.541 243.957 356.541 243.957L359.738 244.83Z" fill="#FFB27D"/>
<path d="M364.165 227.936C363.713 229.679 363.073 232.182 362.464 234.563C362.074 233.462 361.577 231.711 361.262 229.308C360.684 224.878 362.461 215.433 362.461 215.433L364.165 227.936Z" fill="#9DB0F4"/>
<path d="M397.078 239.33C397.078 239.33 399.86 241.589 400.202 242.295C400.545 243.002 401.411 245.615 401.366 246.456C401.317 247.3 399.234 244.53 398.62 244.306C398.009 244.082 399.26 245.443 399.121 245.735C398.98 246.027 397.672 245.073 397.177 244.762C396.679 244.451 396.331 242.337 395.586 241.186C394.845 240.037 397.078 239.33 397.078 239.33Z" fill="#FFB27D"/>
<path d="M360.575 306.992H374.442C375.436 306.319 374.175 299.731 374.175 299.731C374.175 299.731 370.391 298.293 369.736 301.215C369.082 304.133 364.915 305.06 362.709 305.418C361.203 305.663 360.725 306.492 360.575 306.992Z" fill="#191919"/>
<path d="M381.144 306.991H395.015C396.008 306.318 394.746 299.731 394.746 299.731C394.746 299.731 390.962 298.292 390.305 301.215C389.65 304.133 385.485 305.06 383.281 305.417C381.771 305.663 381.295 306.492 381.144 306.991Z" fill="#191919"/>
<path d="M364.308 239.779C364.308 239.779 364.929 247.557 365.663 256.907C366.658 269.607 369.345 301.094 369.345 301.094C369.345 301.094 371.107 302.596 375.006 301.774C375.006 301.774 378.325 290.911 379.319 278.514C379.333 278.31 379.349 278.106 379.365 277.9C380.289 265.279 381.725 238.702 381.725 238.702L364.308 239.779Z" fill="#9FA0FF"/>
<path d="M364.094 237.091C364.094 237.091 364.929 247.557 365.663 256.907L379.319 278.514C379.333 278.31 379.349 278.106 379.365 277.9C380.289 265.279 381.725 238.702 381.725 238.702L364.094 237.091Z" fill="#191919"/>
<path d="M368.071 237.091C368.071 237.091 377.977 261.746 381.143 271.091C383.398 277.747 389.758 301.099 389.758 301.099C389.758 301.099 392.524 301.941 394.849 300.314C394.849 300.314 397.216 276.456 392.434 269.728C389.899 266.159 391.806 232.628 381.524 232.341C371.24 232.054 368.071 237.091 368.071 237.091Z" fill="#9FA0FF"/>
<path d="M386.946 239.329C382.82 241.659 365.125 241.607 364.309 239.778C362.477 235.694 362.018 214.944 362.881 208.58C362.881 208.58 363.328 198.798 364.309 199.23C370.842 196.227 381.419 198.954 381.419 198.954C384.27 199.793 384.029 206.311 384.823 215.464C384.924 216.643 385.037 217.871 385.166 219.143C385.729 224.794 386.548 231.286 387.792 238.134C387.875 238.586 387.562 238.985 386.946 239.329Z" fill="#AEC3FF"/>
<path d="M376.529 197.854C376.42 199.604 374.138 199.406 371.396 198.779C368.652 198.155 369.645 196.537 369.645 196.537C369.645 196.537 369.685 195.294 369.859 193.803C369.921 193.262 370.001 192.685 370.106 192.126C370.154 191.854 370.208 191.582 370.269 191.324C370.628 189.782 375.75 191.269 375.713 191.683C375.614 192.801 376.422 196.48 376.529 197.854Z" fill="#FFB27D"/>
<path d="M370.652 200.908L370.434 198.489L373.47 199.064L372.303 201.221L370.652 200.908Z" fill="#191919"/>
<path d="M369.71 195.399L367.893 198.159C367.893 198.159 367.893 199.856 369.469 201.088L371.952 198.777C371.952 198.777 370.346 198.166 369.71 195.399Z" fill="#9DB0F4"/>
<path d="M371.955 198.776C371.955 198.776 372.466 200.622 373.46 201.469C373.46 201.469 377.337 200.427 378.259 198.441L376.243 195.837C376.243 195.837 376.143 197.808 371.955 198.776Z" fill="#9DB0F4"/>
<path d="M375.743 192.553C375.743 192.553 373.276 194.193 369.86 193.803C369.922 193.261 370.002 192.685 370.106 192.126C370.78 191.963 371.346 191.86 371.346 191.86L375.743 192.553Z" fill="#E2915A"/>
<path d="M377.308 190.69C376.102 194.007 371.7 193.161 369.829 192.628C369.302 192.479 368.975 192.354 368.975 192.354C368.396 192.091 368.215 191.08 368.269 189.805C368.367 187.279 369.364 183.714 369.937 182.855C370.797 181.562 372.235 180.249 376.502 182.079C380.771 183.91 378.854 186.439 377.308 190.69Z" fill="#FFB27D"/>
<path d="M380.604 188.986C379.257 190.085 376.363 192.117 376.363 192.117C376.363 192.117 376.685 191.736 377.078 190.639C377.124 190.514 377.138 190.332 377.13 190.14C377.116 189.602 377.244 189.065 377.528 188.607C377.702 188.32 377.767 188.024 377.544 187.814C377.179 187.467 376.555 187.785 376.144 188.066C375.875 188.25 375.52 188.261 375.244 188.09C375.241 188.087 375.238 188.087 375.236 188.085C374.087 187.364 375.358 186.095 374.423 185.04C373.485 183.986 369.437 183.841 369.6 183.181C368.22 182.401 369.09 179.52 369.115 179.367C369.115 179.367 371.098 179.542 373.575 178.924C375.585 178.42 377.802 179.711 378.501 180.242C378.501 180.114 378.482 179.939 378.39 179.751C378.39 179.751 378.693 180.051 378.691 180.401C378.72 180.432 378.734 180.454 378.723 180.461C378.723 180.461 379.124 180.452 379.357 180.608C379.357 180.608 379.187 180.553 379.105 180.656C379.094 180.667 379.084 180.673 379.07 180.682C381.761 182.583 381.72 188.072 380.604 188.986Z" fill="#191919"/>
<path d="M370.948 190.209C370.948 190.209 370.731 190.628 369.645 190.282C369.645 190.282 368.73 189.99 368.881 189.508C368.881 189.508 369.867 189.387 370.948 190.209Z" fill="white"/>
<path d="M370.65 200.908C370.65 200.908 368.226 231.53 368.261 234.082C368.293 236.633 370.946 239.33 370.946 239.33C370.946 239.33 373.056 237.017 373.469 234.577C373.881 232.137 372.301 201.222 372.301 201.222L370.65 200.908Z" fill="#DAB6FC"/>
<path d="M381.418 198.955C381.418 198.955 385.328 199.891 388.421 205.832C391.516 211.773 393.957 223.756 395.432 226.917C396.909 230.081 397.923 240.04 397.923 240.04L395.583 241.187C395.583 241.187 389.94 230.98 389.106 227.632C388.654 225.821 381.753 211.324 381.753 211.324L381.418 198.955Z" fill="#AEC3FF"/>
<path d="M386.946 239.329C379.578 238.27 381.691 213.892 382.268 213.795C382.845 213.699 384.963 218.154 384.963 218.154L385.166 219.143C385.729 224.794 386.548 231.286 387.792 238.134C387.875 238.586 387.562 238.985 386.946 239.329Z" fill="#9DB0F4"/>
<path d="M478.844 292.582C478.844 292.582 481.912 295.381 481.314 297.37C480.716 299.358 477.947 300.684 477.574 303.116C477.199 305.545 475.703 306.871 474.357 306.871C473.01 306.871 467.938 306.871 467.938 306.871C467.938 306.871 466.947 305.161 469.34 304.646C471.734 304.131 472.638 301.274 472.488 298.621C472.339 295.971 472.711 292.435 472.711 292.435L477.797 291.258L478.844 292.582Z" fill="#191919"/>
<path d="M441.221 299.821C441.221 299.821 441.772 306.191 440.424 306.853L423.194 306.819C423.194 306.819 423.194 304.83 425.961 304.387C428.731 303.947 433.591 302.326 434.416 298.716C435.238 295.107 441.221 299.821 441.221 299.821Z" fill="#191919"/>
<path d="M426.675 209.848C426.675 209.848 427.583 221.013 428.651 234.434C430.102 252.665 431.848 275.059 432.021 279.301C432.32 286.667 433.52 298.45 433.52 298.45C433.52 298.45 436.359 301.25 442.044 300.071C442.044 300.071 447.114 283.249 448.559 265.45C448.581 265.159 448.603 264.865 448.628 264.571C449.972 246.452 452.067 208.3 452.067 208.3L426.675 209.848Z" fill="#DAB6FC"/>
<path d="M426.675 209.848C426.675 209.848 427.583 221.013 428.651 234.434L448.559 265.45C448.581 265.159 448.603 264.865 448.628 264.571C449.972 246.452 452.067 208.3 452.067 208.3L426.675 209.848Z" fill="#DAB6FC"/>
<path d="M430.823 211.174C430.823 211.174 447.204 251.608 457.977 270.611C468.749 289.613 472.113 294.917 472.113 294.917C472.113 294.917 478.284 292.485 478.846 290.828C478.846 290.828 474.728 254.142 467.516 245.2C463.44 240.147 459.923 228.936 460.099 223.631C460.403 214.482 456.968 203.88 456.968 203.88L430.823 211.174Z" fill="#DAB6FC"/>
<path d="M417.745 211.768C417.745 211.768 414.685 215.909 414.46 217.014C414.233 218.119 413.971 222.065 414.336 223.22C414.702 224.376 416.612 219.774 417.382 219.244C418.155 218.713 416.901 221.054 417.199 221.41C417.5 221.767 418.973 219.972 419.554 219.36C420.135 218.746 419.861 215.681 420.483 213.816C421.1 211.95 417.745 211.768 417.745 211.768Z" fill="#FFB27D"/>
<path d="M431.231 151.582C431.231 151.582 427.1 190.059 426.729 191.155C426.648 191.394 426.325 192.613 425.867 194.364C425.216 196.866 424.297 200.463 423.427 203.881C422.11 209.048 420.691 213.516 420.691 213.516C420.691 213.516 420.067 213.919 418.56 213.79C417.533 213.702 416.978 212.825 416.978 212.825C416.978 212.825 417.129 193.934 418.054 189.629C418.979 185.321 421.929 158.869 423.421 155.309C424.909 151.749 431.231 151.582 431.231 151.582Z" fill="white"/>
<path d="M425.871 194.363C425.221 196.865 424.3 200.462 423.43 203.88C422.867 202.299 422.151 199.783 421.701 196.334C420.87 189.966 423.424 176.402 423.424 176.402L425.871 194.363Z" fill="#DCEAFF"/>
<path d="M458.599 210.732C452.667 214.077 427.249 214.002 426.072 211.376C423.444 205.51 422.784 175.699 424.024 166.555C424.024 166.555 424.668 152.503 426.072 153.121C435.461 148.809 450.658 152.726 450.658 152.726C454.753 153.932 454.402 163.295 455.547 176.445C455.694 178.137 455.857 179.904 456.038 181.728C456.848 189.848 458.025 199.176 459.811 209.015C459.932 209.662 459.48 210.236 458.599 210.732Z" fill="white"/>
<path d="M443.638 151.146C443.48 153.658 440.202 153.373 436.257 152.474C432.318 151.578 433.746 149.252 433.746 149.252C433.746 149.252 433.804 147.466 434.055 145.326C434.144 144.548 434.255 143.72 434.407 142.917C434.475 142.524 434.552 142.137 434.641 141.763C435.157 139.551 442.516 141.685 442.464 142.281C442.322 143.886 443.483 149.171 443.638 151.146Z" fill="#FFB27D"/>
<path d="M435.187 155.533L434.875 152.06L439.239 152.882L437.561 155.984L435.187 155.533Z" fill="#191919"/>
<path d="M433.839 147.617L431.233 151.582C431.233 151.582 431.232 154.022 433.495 155.791L437.059 152.472C437.059 152.472 434.754 151.593 433.839 147.617Z" fill="#DCEAFF"/>
<path d="M437.055 152.473C437.055 152.473 437.794 155.123 439.222 156.34C439.222 156.34 444.789 154.843 446.118 151.993L443.218 148.249C443.218 148.249 443.078 151.08 437.055 152.473Z" fill="#DCEAFF"/>
<path d="M442.505 143.529C442.505 143.529 438.963 145.885 434.053 145.326C434.142 144.548 434.256 143.72 434.408 142.917C435.375 142.682 436.186 142.535 436.186 142.535L442.505 143.529Z" fill="#E2915A"/>
<path d="M444.752 140.853C443.02 145.619 436.701 144.402 434.009 143.637C433.252 143.423 432.783 143.243 432.783 143.243C431.951 142.866 431.692 141.415 431.767 139.582C431.911 135.954 433.343 130.832 434.165 129.597C435.403 127.74 437.464 125.851 443.595 128.481C449.727 131.112 446.972 134.746 444.752 140.853Z" fill="#FFB27D"/>
<path d="M449.487 138.406C447.553 139.984 443.395 142.904 443.395 142.904C443.395 142.904 443.856 142.357 444.424 140.782C444.486 140.603 444.505 140.341 444.499 140.064C444.477 139.291 444.662 138.52 445.066 137.862C445.32 137.451 445.411 137.024 445.091 136.722C444.565 136.225 443.668 136.681 443.082 137.084C442.693 137.35 442.185 137.365 441.787 137.117C441.784 137.116 441.78 137.114 441.777 137.113C440.125 136.077 441.95 134.253 440.608 132.738C439.26 131.224 433.446 131.016 433.682 130.067C431.694 128.946 432.948 124.807 432.982 124.588C432.982 124.588 435.833 124.84 439.388 123.951C442.276 123.226 445.461 125.081 446.468 125.845C446.468 125.662 446.436 125.408 446.305 125.139C446.305 125.139 446.744 125.571 446.737 126.075C446.781 126.119 446.8 126.15 446.788 126.158C446.788 126.158 447.361 126.147 447.697 126.368C447.697 126.368 447.449 126.291 447.333 126.437C447.321 126.454 447.305 126.465 447.283 126.476C451.149 129.206 451.093 137.093 449.487 138.406Z" fill="#BC3F3F"/>
<path d="M435.615 140.163C435.615 140.163 435.305 140.763 433.74 140.265C433.74 140.265 432.429 139.847 432.648 139.156C432.648 139.156 434.062 138.983 435.615 140.163Z" fill="white"/>
<path d="M435.191 155.532C435.191 155.532 431.708 199.524 431.757 203.189C431.806 206.855 435.617 210.731 435.617 210.731C435.617 210.731 438.649 207.407 439.241 203.902C439.836 200.394 437.564 155.983 437.564 155.983L435.191 155.532Z" fill="#DAB6FC"/>
<path d="M458.599 210.732C458.596 210.732 458.596 210.732 458.596 210.732C448.014 209.208 451.044 174.187 451.876 174.048C452.705 173.91 455.748 180.309 455.748 180.309L456.038 181.728C456.848 189.848 458.025 199.176 459.811 209.015C459.932 209.662 459.479 210.236 458.599 210.732Z" fill="#DCEAFF"/>
<path d="M489.708 236.819L467.331 243.33C464.417 244.177 461.344 242.488 460.494 239.575L457.675 229.878C456.828 226.967 458.515 223.891 461.429 223.043L483.802 216.532C486.716 215.684 489.793 217.374 490.64 220.285L493.462 229.981C494.308 232.895 492.622 235.971 489.708 236.819Z" fill="#A02E2E"/>
<path d="M477.937 218.209L469.944 220.537L469.336 218.444C469.23 218.084 469.438 217.705 469.797 217.6L471.807 217.016L475.489 215.942L476.484 215.655C476.552 215.635 476.621 215.626 476.686 215.629C476.976 215.633 477.243 215.826 477.328 216.118L477.937 218.209ZM460.622 229.015L463.476 238.823C464.03 240.722 465.528 242.103 467.305 242.604C467.897 242.771 468.519 242.841 469.151 242.8H469.155C469.548 242.773 469.944 242.708 470.337 242.591L492.674 236.091C495.597 235.241 497.292 232.154 496.441 229.23L493.587 219.421C492.735 216.497 489.648 214.802 486.726 215.653L479.034 217.891L478.429 215.797C478.149 214.831 477.13 214.274 476.163 214.554L475.318 214.8L470.642 216.161L469.479 216.501C469.014 216.635 468.625 216.948 468.389 217.376C468.156 217.803 468.098 218.299 468.235 218.764L468.847 220.857L464.389 222.153C464.211 222.203 464.041 222.262 463.876 222.33L463.873 222.333H463.87C462.177 223.012 460.971 224.479 460.557 226.176V226.178C460.338 227.086 460.345 228.057 460.622 229.015Z" fill="#BC3F3F"/>
<path d="M471.231 211.948C471.231 211.948 470.54 217.749 471.84 217.666C473.137 217.582 476.321 216.96 476.539 215.96C476.756 214.96 474.102 210.3 474.102 210.3L471.231 211.948Z" fill="#FFB27D"/>
<path d="M471.398 211.933C471.398 211.933 470.404 213.169 470.316 214.143C470.231 215.116 469.755 216.817 470.202 216.927C470.649 217.036 471.464 214.809 471.464 214.809L471.398 211.933Z" fill="#FFB27D"/>
<path d="M450.66 152.727C450.66 152.727 456.276 154.073 460.719 162.607C465.162 171.142 468.67 188.355 470.795 192.9C472.913 197.442 474.53 211.076 474.53 211.076C474.53 211.076 474.199 211.754 473.054 212.001C472.169 212.192 471.257 212.117 471.257 212.117C471.257 212.117 462.903 198.734 461.703 193.926C461.054 191.324 451.138 170.497 451.138 170.497L450.66 152.727Z" fill="white"/>
<path d="M80.5434 301.318L79.7016 295.252L83.2386 292.297L84.3527 300.327L80.5434 301.318Z" fill="#FFB27D"/>
<path d="M92.2896 306.735H77.8693C77.8693 306.735 77.5238 304.536 78.2768 302.87C78.9987 301.27 80.1218 300.281 80.2242 299.056C81.1406 300.001 82.2681 300.608 84.3527 300.327C84.6083 300.742 86.0017 302.958 86.8549 303.57C87.7974 304.247 91.9993 304.006 92.2896 306.735Z" fill="#191919"/>
<path d="M89.3923 219.424C88.4492 227.009 87.6779 234.162 87.0498 240.827C83.6939 276.344 84.3525 298.052 84.3525 298.052C84.3525 298.052 84.11 298.694 82.0293 298.703C80.8534 298.709 79.7016 298.453 79.7016 298.453C79.7016 298.453 72.1876 275.261 72.7677 262.063C72.8367 260.476 73.0231 259.034 73.3541 257.791C75.1566 251.038 66.6837 225.216 75.8941 215.598C85.1027 205.983 89.8259 215.942 89.3923 219.424Z" fill="#F99746"/>
<path d="M89.3923 219.424C88.4492 227.009 87.6779 234.162 87.0498 240.827L72.7677 262.063C72.8367 260.476 73.0231 259.034 73.3541 257.791C75.1566 251.038 66.6837 225.216 75.8941 215.598C85.1027 205.983 89.8259 215.942 89.3923 219.424Z" fill="#ED7D2B"/>
<path d="M100.741 147.064C100.741 147.064 100.394 145.329 100.003 144.008C99.8294 143.422 101.036 139.577 101.872 139.106C102.707 138.632 104.883 141.221 104.267 143.207C103.951 144.229 103.431 147.552 103.431 147.552L100.741 147.064Z" fill="#FFB27D"/>
<path d="M100.741 147.064C100.741 147.064 100.287 146.057 99.8772 145.895C99.4671 145.733 99.0275 144.089 98.7265 143.438C98.7265 143.438 99.0172 143.012 99.526 143.56C99.8365 143.894 100.528 144.876 100.528 144.876L100.741 147.064Z" fill="#FFB27D"/>
<path d="M41.2126 152.893C41.1242 153.075 41.0012 153.401 40.8918 153.708C40.8901 153.625 40.8888 153.542 40.8879 153.461C40.8822 152.851 38.6027 149.528 37.6657 149.319C36.7283 149.111 35.4055 152.224 36.5762 153.945C37.1775 154.829 38.6467 157.854 38.6467 157.854L41.0758 156.6C41.0758 156.6 41.2159 155.506 41.5603 155.23C41.9047 154.954 41.8442 153.255 41.9413 152.542C41.9413 152.542 41.5386 152.22 41.2126 152.893Z" fill="#FFB27D"/>
<path d="M56.3596 299.498C56.1557 297.556 56.1053 292.442 56.1053 292.442C56.1053 292.442 61.3165 290.775 61.1247 291.92C60.1818 297.543 60.4379 300.327 60.4379 300.327L58.3305 301.586L56.3596 299.498Z" fill="#FFB27D"/>
<path d="M85.04 219.062C85.04 219.062 64.9079 274.248 60.945 298.185C60.945 298.185 60.0268 298.817 58.3142 298.606C56.3719 298.369 55.8396 297.019 55.8396 297.019C55.8396 297.019 52.2026 268.329 59.4314 258.369C64.3978 251.525 57.2894 221.471 68.8564 219.062C80.4237 216.653 85.04 219.062 85.04 219.062Z" fill="#F99746"/>
<path d="M81.4641 165.976C81.4639 165.974 81.4639 165.974 81.4639 165.974C81.4604 165.95 81.4547 165.928 81.4473 165.904C81.3295 165.417 81.2011 164.939 81.0628 164.466C81.0625 164.464 81.0625 164.464 81.0625 164.464C80.6412 163.012 80.1398 161.631 79.599 160.41C79.2875 159.711 78.965 159.062 78.6348 158.485C78.5844 158.395 78.5351 158.314 78.4877 158.229L78.4853 158.227C77.7073 156.918 76.9075 156.015 76.186 155.736C74.8698 155.228 73.4056 155.368 72.3976 155.578C72.6188 155.269 73.1206 155.096 73.1206 155.096C72.4754 155.094 71.1616 155.929 71.1616 155.929C61.8892 153.855 62.4311 166.972 63.0625 169.944C63.6917 172.917 60.7062 174.362 56.496 177.405C48.4611 183.207 48.5955 189.361 48.5955 189.361C48.668 189.392 48.7472 189.427 48.8292 189.469C49.1525 188.673 49.8383 187.165 50.5571 186.847C50.5367 186.917 49.9521 188.87 49.7861 189.962C51.0101 190.637 52.7038 191.681 54.5429 192.86C54.5429 192.86 54.5429 192.86 54.5453 192.862C57.0061 194.436 59.7221 196.249 61.8986 197.72C61.7951 197.122 61.6928 196.267 61.8449 195.785L62.5383 197.933L62.6293 198.214C64.0183 199.154 65.1142 199.908 65.6706 200.294C65.7276 200.333 65.7783 200.369 65.8236 200.399C65.9863 200.509 66.0733 200.57 66.0733 200.57C65.8885 199.812 66.6992 197.832 68.0597 195.337C68.1529 195.164 68.2518 194.987 68.3526 194.807C68.792 194.018 69.2824 193.187 69.8103 192.329C70.0003 192.02 70.1926 191.711 70.3921 191.396C70.3919 191.393 70.3939 191.393 70.3939 191.393C70.5535 191.139 70.715 190.887 70.8823 190.63L70.8838 190.628C71.2782 190.019 71.686 189.405 72.1021 188.791C73.1798 187.2 74.3209 185.619 75.4486 184.17C77.086 182.059 78.6927 180.224 80.0381 179.022C80.0821 178.933 80.1238 178.84 80.1613 178.746C80.372 178.257 80.5335 177.714 80.6587 177.159C80.6977 176.995 80.7324 176.826 80.7628 176.659C81.0983 174.894 81.1048 173.143 81.1005 172.728C81.2081 174.432 81.1653 175.719 81.0511 176.69C81.0253 176.905 80.9972 177.102 80.9648 177.286H80.9652C80.8935 177.703 80.8109 178.045 80.7216 178.33C80.942 178.056 81.1358 177.757 81.3067 177.429C81.4188 177.216 81.5209 176.99 81.6112 176.756C82.6964 173.985 82.4044 169.852 81.4641 165.976Z" fill="#191919"/>
<path d="M79.7222 179.266C79.7533 179.275 77.1263 181.175 74.8979 180.908C72.8018 180.658 71.0974 178.242 71.1243 178.233C71.9521 177.937 72.0236 176.727 71.2563 171.694L71.6533 171.711L78.3281 172.031C78.3281 172.031 78.484 174.094 78.7657 176.017C79.0014 177.63 79.3269 179.147 79.7222 179.266Z" fill="#FFB27D"/>
<path d="M78.3281 172.031C78.3281 172.031 78.484 174.094 78.7657 176.017C75.1221 176.453 72.712 173.43 71.6533 171.711L78.3281 172.031Z" fill="#ED975D"/>
<path d="M70.8786 171.106C70.8786 171.106 68.5304 168.383 67.6919 165.882C67.0932 164.097 67.016 157.161 73.9934 157.124C73.9934 157.124 76.0067 157.023 78.0589 158.005C79.6913 158.788 82.1536 160.631 80.6427 166.919L80.3189 169.017L70.8786 171.106Z" fill="#191919"/>
<path d="M90.2335 218.003C90.2335 218.003 81.5475 223.164 70.642 220.511C70.5136 220.478 61.6623 219.066 61.6623 219.066C61.8142 218.65 62.9581 211.812 63.1079 211.431C65.0425 206.437 68.5784 179.34 71.5327 178.003C72.2871 178.825 74.443 179.386 76.2882 179.224C78.413 179.036 79.1243 178.117 78.9481 177.13C81.2993 178.242 83.1059 179.275 83.1059 179.275C85.255 182.495 90.2335 218.003 90.2335 218.003Z" fill="white"/>
<path d="M79.8105 173.671C79.8105 173.671 71.2471 175.09 70.4458 169.743C69.6445 164.398 67.9997 160.98 73.4332 159.847C78.867 158.715 80.2374 160.596 80.9389 162.315C81.6404 164.036 82.0175 173.165 79.8105 173.671Z" fill="#FFB27D"/>
<path d="M77.3234 159.134C77.3234 159.134 75.9063 165.757 72.437 167.221C68.968 168.686 67.2596 167.951 67.2596 167.951C67.2596 167.951 69.6996 165.343 69.7031 161.421C69.7031 161.421 75.1064 156.414 77.3234 159.134Z" fill="#191919"/>
<path d="M76.8168 159.73C76.8168 159.73 78.7804 160.87 79.4109 162.168C80.0414 163.466 80.6508 166.242 81.4536 166.024C81.4536 166.024 82.5901 161.497 80.2413 159.38C77.7507 157.137 76.8168 159.73 76.8168 159.73Z" fill="#191919"/>
<path d="M103.49 147.186C103.142 147.064 102.628 146.774 101.959 146.713C101.363 146.66 100.613 146.855 100.613 146.855C100.613 146.855 98.1975 161.872 98.018 162.668C97.8386 163.464 87.6551 174.936 84.9095 174.89C82.4303 174.848 79.4931 176.762 78.9481 177.13C78.9481 177.13 84.7219 189.339 85.0097 191.632C85.323 194.127 88.3119 232.558 88.3119 232.558C88.3119 232.558 88.1341 234.344 91.4745 233.384C94.8146 232.422 95.6501 231.628 95.6501 231.628C95.6501 231.628 92.5818 201.373 91.9382 191.966C91.8518 190.703 91.6455 189.532 91.3519 188.454C91.0689 187.414 91.2921 186.303 91.9268 185.433C96.1497 179.634 102.819 170.242 103.19 168.245C103.736 165.312 103.49 147.186 103.49 147.186Z" fill="#9FA0FF"/>
<path d="M68.3746 306.735H53.9543C53.9543 306.735 53.6085 304.536 54.3618 302.87C55.0835 301.27 56.2068 300.281 56.3092 299.056C57.2256 300.001 58.3531 300.608 60.4379 300.327C60.6933 300.742 62.0867 302.958 62.9399 303.57C63.8822 304.247 68.0843 304.006 68.3746 306.735Z" fill="#191919"/>
<path d="M78.2803 192.818C77.7945 189.828 71.5895 177.819 71.5895 177.819C71.5895 177.819 67.6669 176.646 65.0851 177.582C62.5034 178.516 49.1457 170.975 48.7176 170.28C48.2894 169.587 41.135 156.256 41.135 156.256C41.135 156.256 40.5417 155.912 39.5912 156.407C38.6509 156.896 38.6468 157.854 38.6468 157.854C38.6468 157.854 44.1684 174.638 45.6375 177.236C46.5233 178.801 53.9709 184.253 59.7451 188.335C60.8476 189.113 61.4266 190.442 61.2455 191.779C60.4692 197.519 60.2715 200.752 59.3786 210.6C58.6378 218.77 58.3544 234.59 58.3544 234.59C58.3544 234.59 64.8159 236.826 69.2754 237.122C73.7349 237.42 74.7067 232.718 74.7067 232.718C74.7067 232.718 78.7799 195.894 78.2803 192.818Z" fill="#9FA0FF"/>
<path d="M77.0044 171.027C77.0044 171.027 78.0449 171.639 79.2732 171.455C80.1146 171.328 80.3058 170.33 80.3058 170.33C80.3058 170.33 79.7209 170.146 78.7874 170.334C77.8539 170.521 77.0044 171.027 77.0044 171.027Z" fill="white"/>
<path d="M350.524 69.109C350.524 69.109 346.519 61.9876 350.524 60.5383C354.53 59.0915 356.345 60.4258 356.534 62.049C356.726 63.6696 355.008 70.0624 355.008 70.0624L350.524 69.109Z" fill="#FFB27D"/>
<path d="M353.738 114.65C346.432 115.967 339.716 116.578 333.651 116.713C327.896 116.843 322.733 116.543 318.214 116.018C316.999 115.879 315.832 115.723 314.711 115.553C302.886 113.759 296.352 110.578 296.352 110.578C296.352 110.578 307.16 87.9546 315.892 88.8225C326.134 89.8442 343.49 99.0367 345.215 96.4565C347.157 93.553 348.783 68.6444 348.783 68.6444C353.324 65.5351 356.037 68.8138 356.037 68.8138C356.037 68.8138 364.909 112.635 353.738 114.65Z" fill="#F99746"/>
<path d="M353.735 114.651C346.431 115.968 339.713 116.579 333.648 116.714C327.895 116.844 322.731 116.545 318.211 116.02C315.485 107.353 313.526 98.5009 319.008 103.838C328.674 113.25 353.735 114.651 353.735 114.651Z" fill="#ED7D2B"/>
<path d="M295.529 297.315C295.529 297.315 294.753 306.31 296.655 307.244L320.984 307.196C320.984 307.196 320.984 304.387 317.075 303.763C313.17 303.14 306.302 300.851 305.141 295.756C303.979 290.659 295.529 297.315 295.529 297.315Z" fill="#191919"/>
<path d="M313.394 188.464C313.273 194.344 312.991 200.41 312.439 205.862C309.81 231.73 308.888 262.988 308.51 269.015C307.854 279.474 305.789 296.186 305.789 296.186C305.789 296.186 301.691 300.077 293.698 298.22C293.698 298.22 287.081 274.151 285.6 248.806C285.579 248.39 285.557 247.971 285.536 247.554C285.364 244.202 285.183 240.373 285 236.24C283.782 208.567 282.462 167.46 282.462 167.46L312.991 160.291C312.991 160.291 313.695 173.802 313.394 188.464Z" fill="#DAB6FC"/>
<path d="M313.394 188.464C305.656 201.813 290.909 226.408 285 236.24C283.782 208.567 282.462 167.46 282.462 167.46L312.991 160.291C312.991 160.291 313.695 173.802 313.394 188.464Z" fill="#DAB6FC"/>
<path d="M236.087 162.605C236.087 162.605 231.119 168.447 230.672 170.067C230.225 171.687 229.429 177.523 229.857 179.277C230.282 181.031 233.586 174.386 234.787 173.678C235.988 172.967 233.886 176.319 234.296 176.878C234.706 177.437 237.078 174.923 238.003 174.07C238.928 173.219 238.836 168.638 239.948 165.928C241.059 163.218 236.087 162.605 236.087 162.605Z" fill="#FFB27D"/>
<path d="M234.923 287.095C234.923 287.095 230.591 291.045 231.437 293.853C232.281 296.662 236.19 298.534 236.718 301.965C237.247 305.398 239.358 307.27 241.259 307.27C243.161 307.27 250.324 307.27 250.324 307.27C250.324 307.27 251.722 304.854 248.342 304.126C244.963 303.399 243.688 299.365 243.9 295.623C244.111 291.878 243.582 286.886 243.582 286.886L236.4 285.222L234.923 287.095Z" fill="#191919"/>
<path d="M308.181 168.087C308.181 168.087 279.6 229.238 264.39 256.069C249.183 282.901 244.429 290.387 244.429 290.387C244.429 290.387 235.714 286.956 234.924 284.615C234.924 284.615 240.739 232.816 250.926 220.188C256.68 213.055 263.442 191.643 263.756 184.154C264.074 176.665 270.75 158.794 270.75 158.794L308.181 168.087Z" fill="#DAB6FC"/>
<path d="M316.535 170.97C316.535 170.97 305.169 178.569 289.084 177.863C282.024 177.556 268.021 175.554 265.761 169.94C265.23 168.62 265.619 166.948 266.415 164.38C268.481 157.707 273.297 144.999 271.842 116.823C271.707 114.201 271.781 111.737 272.032 109.427C273.545 95.5499 281.5 87.3296 289.188 84.6456C307.936 78.0907 314.185 87.1709 314.185 87.1709C314.185 87.1709 322.472 93.7353 323.723 107.437C326.219 134.847 316.535 170.97 316.535 170.97Z" fill="#F99746"/>
<path d="M294.682 83.0709C294.682 83.0709 303.285 88.3031 312.614 86.8223C312.614 86.8223 314.461 86.3548 313.554 84.1878C314.12 82.4399 314.054 82.5988 314.381 81.3C315.198 78.3108 315.449 76.586 315.449 76.586L310.155 71.0199L305.139 65.7025C303.753 78.4145 294.682 83.0709 294.682 83.0709Z" fill="#FFB27D"/>
<path d="M304.335 70.5237C304.335 70.5237 307.216 78.2258 314.381 81.3001C315.199 78.311 315.731 75.1837 315.731 75.1837L310.154 71.0192L304.335 70.5237Z" fill="#ED985F"/>
<path d="M321.392 76.3161C321.392 76.3161 304.972 78.3692 303.818 68.2786C302.666 58.1879 299.768 51.6548 310.204 49.9186C320.64 48.1824 323.121 51.8085 324.337 55.0845C325.555 58.3629 325.633 75.5213 321.392 76.3161Z" fill="#FFB27D"/>
<path d="M298.631 48.2785C298.49 48.1036 298.155 47.953 297.395 47.885C297.395 47.885 298.019 47.5255 298.83 47.5377C299.029 46.4859 299.663 44.635 301.5 44.2488C301.5 44.2488 300.501 44.7346 300.334 45.8544C302.52 43.7679 307.098 42.3639 319.569 43.8237C336.003 45.7475 330.171 56.095 327.988 57.2731C325.807 58.4511 320.567 54.7979 316.579 54.9631C312.593 55.1283 311.616 60.8461 310.239 61.5821C308.862 62.3205 309.445 60.9457 307.65 60.0518C305.855 59.1579 305.568 62.1748 306.022 64.1617C306.474 66.1486 303.87 68.6456 303.87 68.6456C303.87 68.6456 303.87 68.6456 301.439 65.8207C299.007 62.9982 297.055 51.3487 298.301 48.927C298.41 48.7133 298.519 48.4971 298.631 48.2785Z" fill="#2C3A64"/>
<path d="M348.782 64.3868L320.905 64.635L320.714 60.4402L348.504 58.2863L348.782 64.3868Z" fill="#DAB6FC"/>
<path d="M369.826 65.0869L339.474 65.5245L339.126 57.8998L369.391 55.556L369.826 65.0869Z" fill="#DAB6FC"/>
<path d="M390.29 65.6836L364.695 65.7168L364.228 55.4227L389.719 53.1026L390.29 65.6836Z" fill="#191919"/>
<path d="M390.659 67.4194C391.446 67.3834 392.059 66.7151 392.023 65.9248L391.421 52.7037C391.385 51.9134 390.717 51.3034 389.93 51.3394C389.137 51.3755 388.527 52.0438 388.563 52.834L389.164 66.0552C389.198 66.8454 389.869 67.4555 390.659 67.4194Z" fill="#191919"/>
<path d="M320.819 65.5294C320.116 65.5598 319.523 65.0161 319.49 64.3154L319.333 60.8846C319.301 60.1816 319.844 59.5887 320.547 59.5559C321.25 59.5231 321.843 60.0667 321.876 60.7698L322.031 64.2006C322.064 64.9013 321.52 65.4965 320.819 65.5294Z" fill="#DAB6FC"/>
<path d="M266.415 164.38C268.482 157.707 273.296 144.998 271.843 116.821C271.707 114.201 271.782 111.735 272.031 109.429H272.034C278.203 108.898 287.636 115.567 287.636 115.567C287.636 115.567 281.826 150.981 266.415 164.38Z" fill="#ED7D2B"/>
<path d="M294.68 83.0712C294.68 83.0712 278.858 85.792 270.606 95.8639C262.356 105.938 249.081 120.142 245.944 125.116C242.806 130.09 234.093 163.941 234.093 163.941C234.093 163.941 234.67 165.028 237.072 165.661C239.373 166.269 241.04 165.328 241.04 165.328C241.04 165.328 252.583 145.574 256.928 135.705C258.732 131.604 289.948 115.368 301.683 117.05C306.291 117.711 294.68 83.0712 294.68 83.0712Z" fill="#F99746"/>
<path d="M348.617 57.0842C348.617 57.0842 352.019 59.1668 354.055 58.2863C356.089 57.4058 355.911 56.5993 355.911 56.5993C355.911 56.5993 349.76 54.8918 348.617 57.0842Z" fill="#FFB27D"/>
<path d="M310.035 94.1075C310.035 94.1075 303.091 137.943 253.829 150.705L248.461 161.292L257.889 162.888C257.889 162.888 313.973 146.639 313.216 93.3322L310.035 94.1075Z" fill="#BC3F3F"/>
<path d="M308.957 87.1101L306.684 87.3322V90.624L310.035 94.1059L313.219 93.3322V88.7629L310.928 87.1101H308.957Z" fill="#A02E2E"/>
<path d="M300.033 78.3928C300.033 78.3928 297.833 78.8907 292.8 83.0705C292.8 83.0705 297.804 93.6933 308.361 94.9652C308.361 94.9652 308.194 90.0362 308.956 87.1101C308.956 87.1101 300.588 84.1138 300.033 78.3928Z" fill="#ED7D2B"/>
<path d="M308.958 87.1077C308.958 87.1077 314.11 89.8439 314.491 94.1065C314.491 94.1065 316.46 90.9846 315.89 88.8233C315.317 86.6643 313.553 84.1889 313.553 84.1889C313.553 84.1889 313.729 86.7913 308.958 87.1077Z" fill="#ED7D2B"/>
</svg>
