<svg width="209" height="157" viewBox="0 0 209 157" fill="none" xmlns="http://www.w3.org/2000/svg">
<path d="M1.29598 46.454C-8.53432 134.08 112.285 124.053 132.455 121.782C152.628 119.511 193.333 89.3664 201.461 62.1583C209.59 34.9503 216.448 -28.32 132.455 14.4159C96.225 32.8508 68.6749 25.0379 48.2692 17.2249C21.3699 6.92573 6.88584 -3.37347 1.29598 46.454Z" fill="#DAB6FC"/>
<path d="M49.2674 79.572L44.6539 152.225L33.2307 153.062C33.2307 153.062 27.1709 85.8629 29.2095 79.0545C31.2487 72.2451 49.2674 79.572 49.2674 79.572Z" fill="#54718E"/>
<path d="M61.4379 72.7455C61.4379 72.7455 77.1755 105.348 78.4571 111.217C79.7391 117.088 83.1192 150.436 83.1192 150.436L71.8623 156.005C71.8623 156.005 69.0152 127.084 66.5679 122.458C64.1199 117.837 38.9414 89.3597 36.1452 75.4959C33.3475 61.6279 61.4379 72.7455 61.4379 72.7455Z" fill="#6D88A7"/>
<path d="M57.5488 10.6704C57.5488 10.6704 57.4019 17.9856 60.5119 24.8537C63.6211 31.7217 56.5925 38.0552 42.9818 34.0877C40.5847 32.2083 47.0048 10.8099 47.0048 10.8099L57.5488 10.6704Z" fill="#EECDA7"/>
<path d="M64.2227 36.3184C61.1923 33.5137 50.9815 30.9316 50.9815 30.9316C50.9815 30.9316 33.2835 27.4507 30.2374 33.2795C27.1911 39.1072 34.7412 52.2203 34.211 58.8445C33.6813 65.4676 25.9013 82.7196 27.9208 84.9642C28.906 86.0577 31.8002 85.536 35.4183 85.0153C39.2178 84.468 43.8155 83.9207 47.8391 85.2432C55.6939 87.8232 64.7839 82.3245 65.7933 79.8574C66.4032 78.3677 63.578 66.3205 63.1382 54.4212C63.1025 53.464 65.2132 55.8651 68.0831 58.2663C71.8 61.3766 76.7903 64.4869 80.0411 60.3011C85.8035 52.8837 65.0875 37.1181 64.2227 36.3184Z" fill="#9FA0FF"/>
<path d="M65.2443 80.7348C65.2401 80.7252 65.2358 80.7167 65.2315 80.7071C65.4679 80.4345 65.6446 80.1779 65.7544 79.9458C65.6548 80.1577 65.4855 80.4281 65.2443 80.7348Z" fill="#D1DADB"/>
<path d="M59.8382 84.254C62.3073 83.1956 64.2667 81.8198 65.2316 80.7071C65.2358 80.7167 65.2401 80.7252 65.2444 80.7348C64.3863 81.823 62.6184 83.3585 59.8382 84.254Z" fill="#657E9A"/>
<path d="M73.1784 61.6279C72.0109 61.5693 69.7302 59.7772 67.6372 57.9862C65.5089 56.1633 63.5746 54.3414 63.2024 54.3414C63.1584 54.3414 63.1362 54.3669 63.1382 54.4212C63.1326 54.2732 63.1784 54.2061 63.2702 54.2061C63.7725 54.2061 65.6563 56.2357 68.0831 58.2663C69.6328 59.5632 71.4043 60.8601 73.1784 61.6279Z" fill="#D1DADB"/>
<path d="M59.08 84.4755C59.08 84.4755 56.6622 73.5473 57.9007 65.0012C59.1391 56.4561 53.9375 42.8692 56.2853 41.5126C56.3641 41.4668 56.4588 41.4455 56.5684 41.4455C59.7286 41.4455 75.2212 59.7623 73.7495 61.4256C73.6256 61.5661 73.4516 61.63 73.2364 61.63C73.2174 61.63 73.1979 61.6289 73.1782 61.6279C71.4041 60.8601 69.6326 59.5632 68.083 58.2663C65.6562 56.2357 63.7723 54.2062 63.2701 54.2062C63.1783 54.2062 63.1325 54.2732 63.138 54.4213C63.5353 65.1694 65.879 76.0401 65.8789 79.1386C65.8789 79.4709 65.8521 79.7136 65.7931 79.8574C65.7816 79.8851 65.7686 79.9149 65.7543 79.9458C65.6445 80.1779 65.4678 80.4345 65.2314 80.7071C64.2665 81.8198 62.3071 83.1956 59.8381 84.254C59.5934 84.3328 59.3405 84.4073 59.08 84.4755Z" fill="#9FA0FF"/>
<path d="M62.4056 13.0098C62.0209 16.1968 52.5164 16.8793 52.3305 18.0911C52.1454 19.3017 53.9169 22.953 53.1762 23.5077C52.4334 24.0614 49.187 20.1717 48.2077 22.0213C47.2283 23.8719 53.6491 32.6864 52.125 33.7757C50.6018 34.8628 41.0251 35.7339 37.5423 31.7078C34.0602 27.6807 35.7011 15.8092 39.5235 11.6128C43.3466 7.41743 51.9934 11.9045 52.9724 4.96305C53.9508 -1.9795 62.7899 9.82283 62.4056 13.0098Z" fill="#292725"/>
<path d="M54.8125 77.355C53.3402 79.5655 49.6773 79.7156 46.632 77.6872C43.586 75.6598 42.3108 72.2226 43.7832 70.0121C45.2556 67.7994 48.9181 67.6514 51.9642 69.6777C53.6249 70.784 51.785 72.1619 54.1016 73.067C56.4189 73.9721 55.4821 76.3498 54.8125 77.355Z" fill="#D1AC88"/>
<path d="M49.3549 72.9329C49.0082 74.5365 49.3795 76.0123 50.3428 76.483C51.5144 77.0548 53.116 75.925 53.9197 73.9604C54.1828 73.3151 54.6197 72.77 54.3611 72.0534C54.1015 71.3367 52.9694 70.3486 51.9641 69.6778C49.0571 67.743 45.5931 67.7952 44.0027 69.7278C44.4644 70.4657 45.1594 71.1855 46.0423 71.7733C47.1475 72.5091 48.333 72.8999 49.3549 72.9329Z" fill="#EECDA7"/>
<path d="M31.3133 32.5203C23.853 40.6117 24.1814 58.5069 28.942 64.062C33.7031 69.6161 41.4909 76.7577 42.5562 76.7577C43.6222 76.7577 48.3585 68.3521 48.0734 67.2479C47.788 66.1448 40.2501 59.3151 40.2501 59.3151C40.2501 59.3151 28.1612 46.9165 31.3133 32.5203Z" fill="#9FA0FF"/>
<path d="M193.16 102.341V49.3609L128.094 11.7962V64.8346L193.16 102.341Z" fill="#302F2F"/>
<path d="M128.095 11.7963L130.987 10.0536L196.053 47.6185L193.159 49.3608L128.095 11.7963Z" fill="white"/>
<path d="M193.159 102.34L196.053 100.597V47.6184L193.159 49.3605V102.34Z" fill="#D4D4D2"/>
<path d="M193.175 99.4491L128.093 61.8835L86.3122 85.9814V88.8724L151.388 126.434V126.439V126.434V126.439V126.434L193.175 102.341V99.4491Z" fill="#F0EEEF"/>
<path d="M86.3296 85.9808L128.095 61.8827L193.16 99.4486L151.395 123.545L86.3296 85.9808Z" fill="white"/>
<path d="M86.3293 85.981V88.8719L151.395 126.438V123.545L86.3293 85.981Z" fill="#DFDFDC"/>
<path d="M193.16 99.4486V102.341L151.386 126.438L151.395 123.545L193.16 99.4486Z" fill="#D4D4D2"/>
<path d="M123.116 90.1711L143.327 101.894L131.757 108.52L111.537 96.8464L123.116 90.1711Z" fill="#DFDFDD"/>
<path d="M142.52 102.357L143.327 101.894L123.116 90.1711L111.537 96.8464L112.379 97.332L123.15 91.122L142.52 102.357Z" fill="#DAD9D7"/>
<path d="M128.212 65.9179L184.601 98.4744L164.942 109.994L108.161 77.436L128.212 65.9179Z" fill="#DFDFDD"/>
<path d="M176.673 96.4015L173.423 98.218L177.156 100.373L180.404 98.5566L176.673 96.4015Z" fill="#302F2F"/>
<path d="M132.159 70.6968L128.402 68.5278L125.154 70.3444L128.911 72.5145L132.159 70.6968Z" fill="#302F2F"/>
<path d="M133.737 75.3L136.986 73.4845L133.228 71.3155L129.981 73.131L133.737 75.3Z" fill="#302F2F"/>
<path d="M153.047 86.4496L156.294 84.6341L152.537 82.464L149.289 84.2806L153.047 86.4496Z" fill="#302F2F"/>
<path d="M148.219 83.662L151.467 81.8465L147.711 79.6775L144.461 81.494L148.219 83.662Z" fill="#302F2F"/>
<path d="M143.392 80.8763L146.641 79.0587L142.884 76.8897L139.635 78.7063L143.392 80.8763Z" fill="#302F2F"/>
<path d="M172.329 97.5856L175.578 95.7691L171.844 93.6139L168.596 95.4305L172.329 97.5856Z" fill="#302F2F"/>
<path d="M167.502 94.7988L170.75 92.9811L167.017 90.826L163.77 92.6436L167.502 94.7988Z" fill="#302F2F"/>
<path d="M162.675 92.0111L165.922 90.1945L162.191 88.0383L158.942 89.8559L162.675 92.0111Z" fill="#302F2F"/>
<path d="M157.872 89.2373L161.122 87.4218L157.363 85.2517L154.116 87.0693L157.872 89.2373Z" fill="#302F2F"/>
<path d="M138.564 78.0887L141.813 76.2711L138.056 74.1021L134.808 75.9187L138.564 78.0887Z" fill="#302F2F"/>
<path d="M169.017 100.683L172.748 102.839L175.998 101.021L172.264 98.8663L169.017 100.683Z" fill="#302F2F"/>
<path d="M171.17 98.2349L162.611 93.291L159.362 95.1086L167.921 100.05L171.17 98.2349Z" fill="#302F2F"/>
<path d="M161.516 92.6596L157.784 90.5033L154.535 92.321L158.267 94.4772L161.516 92.6596Z" fill="#302F2F"/>
<path d="M149.708 89.5333L153.465 91.7023L156.714 89.8868L152.956 87.7178L149.708 89.5333Z" fill="#302F2F"/>
<path d="M144.881 86.7467L148.637 88.9157L151.887 87.0991L148.129 84.9291L144.881 86.7467Z" fill="#302F2F"/>
<path d="M130.4 78.3848L134.157 80.5538L137.405 78.7362L133.648 76.5672L130.4 78.3848Z" fill="#302F2F"/>
<path d="M135.227 81.1713L138.984 83.3414L142.232 81.5238L138.475 79.3548L135.227 81.1713Z" fill="#302F2F"/>
<path d="M140.054 83.9601L143.81 86.128L147.06 84.3125L143.301 82.1414L140.054 83.9601Z" fill="#302F2F"/>
<path d="M125.573 75.597L129.33 77.766L132.579 75.9505L128.821 73.7793L125.573 75.597Z" fill="#302F2F"/>
<path d="M127.752 73.1617L123.994 70.9927L120.746 72.8093L124.502 74.9794L127.752 73.1617Z" fill="#302F2F"/>
<path d="M164.609 103.149L168.341 105.304L171.591 103.486L167.857 101.331L164.609 103.149Z" fill="#302F2F"/>
<path d="M161.936 97.9123L158.202 95.7571L154.955 97.5737L158.687 99.7299L161.936 97.9123Z" fill="#302F2F"/>
<path d="M152.306 92.3518L148.548 90.1807L145.3 91.9994L149.057 94.1673L152.306 92.3518Z" fill="#302F2F"/>
<path d="M157.109 95.1246L153.377 92.9694L150.127 94.786L153.86 96.9422L157.109 95.1246Z" fill="#302F2F"/>
<path d="M142.652 86.7754L138.894 84.6075L135.647 86.424L139.403 88.5931L142.652 86.7754Z" fill="#302F2F"/>
<path d="M147.478 89.5642L143.721 87.3941L140.473 89.2117L144.23 91.3818L147.478 89.5642Z" fill="#302F2F"/>
<path d="M129.75 83.0189L132.998 81.2024L129.241 79.0323L125.992 80.8499L129.75 83.0189Z" fill="#302F2F"/>
<path d="M137.824 83.9899L134.069 81.8187L130.82 83.6364L134.576 85.8054L137.824 83.9899Z" fill="#302F2F"/>
<path d="M128.171 78.4135L119.587 73.4579L116.338 75.2745L124.923 80.2311L128.171 78.4135Z" fill="#302F2F"/>
<path d="M160.775 105.292L164.506 107.449L167.182 105.952L163.45 103.796L160.775 105.292Z" fill="#302F2F"/>
<path d="M148.968 95.4345L146.293 96.9306L150.025 99.0868L152.7 97.5897L148.968 95.4345Z" fill="#302F2F"/>
<path d="M129.66 84.2849L126.985 85.7809L145.222 96.3119L147.898 94.8158L129.66 84.2849Z" fill="#302F2F"/>
<path d="M124.834 81.4981L122.158 82.9942L125.914 85.1632L128.59 83.6661L124.834 81.4981Z" fill="#302F2F"/>
<path d="M115.179 75.9219L112.504 77.419L116.261 79.588L118.935 78.092L115.179 75.9219Z" fill="#302F2F"/>
<path d="M120.006 78.7104L117.331 80.2065L121.087 82.3766L123.764 80.8795L120.006 78.7104Z" fill="#302F2F"/>
<path d="M163.15 98.6023L158.739 101.068L153.91 98.2796L151.196 99.798L159.795 104.763L166.919 100.778L163.15 98.6023Z" fill="#302F2F"/>
<path d="M189.711 51.7277V93.2598L131.263 59.5152V17.9854L189.711 51.7277Z" fill="#A1DAF6"/>
<path d="M102.896 24.5043V5.59328L124.557 18.0867C116.934 21.2907 109.721 23.3394 102.896 24.5043Z" fill="#DBDAD8"/>
<path d="M126.383 47.8599L102.896 34.3123V24.5044C109.721 23.3395 116.934 21.2908 124.557 18.0868L126.383 19.1399V47.8599Z" fill="#BFC8C9"/>
<path d="M131.263 50.6742L130.302 50.1205V21.4016L131.263 21.9553V50.6742Z" fill="#292827"/>
<path d="M153.79 63.667L131.263 50.6742V21.9552L153.79 34.947V63.667Z" fill="#83B9DE"/>
<path d="M181.198 79.4738L157.712 65.9272V37.2082L181.198 50.7554V79.4738Z" fill="#83B9DE"/>
<path d="M208.605 95.2822L196.052 88.0415V74.0552C198.38 70.1719 200.21 66.2577 201.389 62.4005L208.605 66.5622V95.2822Z" fill="#DBDAD8"/>
<path d="M196.052 74.0556V59.3224L201.388 62.4009C200.21 66.2579 198.381 70.1722 196.052 74.0556Z" fill="#BFC8C9"/>
<path d="M193.16 86.3727L189.711 84.3826V55.664L193.16 57.6536V86.3727Z" fill="#292827"/>
<path d="M196.053 88.0411L193.159 86.3727V57.6535L196.053 59.3216V74.0549V88.0411Z" fill="#B2B2B1"/>
<path d="M189.711 84.3824L185.119 81.7343V53.0158L189.711 55.6639V84.3824Z" fill="#83B9DE"/>
<path d="M122.592 49.7542L99.1058 36.2088V7.48983L122.592 21.0352V49.7542Z" fill="white"/>
<path d="M112.53 25.0315C113.39 24.9537 113.961 24.2829 113.961 23.1425C113.961 21.3589 112.568 19.1101 110.849 18.1187C109.13 17.1274 107.737 17.7684 107.737 19.552C107.737 20.6924 108.308 22.0223 109.167 23.0925C107.06 22.5877 105.517 23.7122 105.423 26.059L116.274 32.318C116.182 29.8625 114.639 26.9598 112.53 25.0315Z" fill="#A1DAF6"/>
<path d="M120.516 37.9402L101.184 26.7905V28.0129L120.516 39.1626V37.9402Z" fill="#D4D4D2"/>
<path d="M110.199 35.326L101.184 30.1255V31.3479L110.199 36.5484V35.326Z" fill="#D4D4D2"/>
<path d="M120.516 42.4987V41.2763L114.967 38.0755V39.2978L120.516 42.4987Z" fill="#D4D4D2"/>
<path d="M101.184 33.4616V34.684L116.96 43.7849V42.5614L101.184 33.4616Z" fill="#D4D4D2"/>
<path d="M150 65.5623L126.513 52.0158V23.2969L150 36.8423V65.5623Z" fill="white"/>
<path d="M139.938 40.8386C140.798 40.7609 141.369 40.0901 141.369 38.9507C141.369 37.1672 139.976 34.9183 138.256 33.9259C136.537 32.9346 135.144 33.5767 135.144 35.3602C135.144 36.4995 135.715 37.8295 136.575 38.9007C134.467 38.396 132.925 39.5193 132.831 41.8672L143.682 48.1251C143.589 45.6707 142.047 42.7681 139.938 40.8386Z" fill="#DAB6FC"/>
<path d="M147.922 53.7472L128.59 42.5976V43.82L147.922 54.9696V53.7472Z" fill="#D4D4D2"/>
<path d="M137.606 51.1331L128.59 45.9326V47.1561L137.606 52.3555V51.1331Z" fill="#D4D4D2"/>
<path d="M147.922 58.3055V57.0831L142.374 53.8823V55.1058L147.922 58.3055Z" fill="#D4D4D2"/>
<path d="M128.59 49.2686V50.4921L144.367 59.5919V58.3685L128.59 49.2686Z" fill="#D4D4D2"/>
<path d="M177.407 81.3707L153.92 67.8243V39.1048L177.407 52.6514V81.3707Z" fill="white"/>
<path d="M167.345 56.6478C168.204 56.5679 168.776 55.8971 168.776 54.7577C168.776 52.9742 167.383 50.7253 165.663 49.734C163.945 48.7426 162.551 49.3847 162.551 51.1672C162.551 52.3065 163.123 53.6376 163.983 54.7077C161.874 54.203 160.332 55.3263 160.238 57.6753L171.09 63.9332C170.996 61.4777 169.453 58.5751 167.345 56.6478Z" fill="#FAB827"/>
<path d="M175.329 69.5545L155.999 58.4055V59.6286L175.329 70.7769V69.5545Z" fill="#D4D4D2"/>
<path d="M165.014 66.9402L155.999 61.7418V62.9642L165.014 68.1637V66.9402Z" fill="#D4D4D2"/>
<path d="M175.329 74.113V72.8916L169.782 69.6908V70.9132L175.329 74.113Z" fill="#D4D4D2"/>
<path d="M155.999 65.0766V66.2989L171.775 75.3989V74.1753L155.999 65.0766Z" fill="#D4D4D2"/>
<path d="M204.816 97.1763L181.328 83.6307V54.9109L204.816 68.4582V97.1763Z" fill="white"/>
<path d="M194.753 72.4544C195.613 72.3756 196.184 71.7038 196.184 70.5643C196.184 68.7818 194.791 66.5319 193.071 65.5416C191.352 64.5503 189.959 65.1914 189.959 66.9738C189.959 68.1153 190.529 69.4441 191.392 70.5153C189.283 70.0106 187.74 71.134 187.647 73.4819L198.497 79.7399C198.406 77.2855 196.862 74.3818 194.753 72.4544Z" fill="#9FA0FF"/>
<path d="M202.737 85.3625L183.406 74.213V75.4354L202.737 86.5861V85.3625Z" fill="#D4D4D2"/>
<path d="M192.42 82.7481L183.407 77.5476V78.77L192.42 83.9716V82.7481Z" fill="#D4D4D2"/>
<path d="M202.737 89.9219V88.6974L197.189 85.4987V86.7211L202.737 89.9219Z" fill="#D4D4D2"/>
<path d="M183.407 80.8837V82.1082L199.184 91.206V89.9836L183.407 80.8837Z" fill="#D4D4D2"/>
<path d="M102.734 16.8495L101.481 14.5303L101.99 14.3525L102.755 15.7677L104.608 14.6347L105.099 15.4035L102.734 16.8495ZM103.291 12.4955C101.747 11.6181 100.497 12.2644 100.497 13.9383C100.497 15.6122 101.747 17.679 103.291 18.5564C104.832 19.4327 106.083 18.7864 106.083 17.1125C106.083 15.4386 104.832 13.3708 103.291 12.4955Z" fill="#41BA53"/>
<path d="M130.103 32.2605L128.85 29.9424L129.359 29.7635L130.124 31.1786L131.978 30.0467L132.468 30.8155L130.103 32.2605ZM130.66 27.9065C129.117 27.0301 127.866 27.6765 127.866 29.3503C127.866 31.0242 129.117 33.091 130.66 33.9673C132.202 34.8437 133.453 34.1973 133.453 32.5245C133.453 30.8506 132.202 28.7828 130.66 27.9065Z" fill="#41BA53"/>
<path d="M157.385 48.124L156.132 45.8048L156.641 45.6259L157.407 47.0421L159.26 45.9092L159.751 46.6779L157.385 48.124ZM157.94 43.77C156.398 42.8926 155.147 43.5389 155.147 45.2128C155.147 46.8867 156.398 48.9534 157.94 49.8298C159.484 50.7072 160.733 50.0598 160.733 48.387C160.733 46.7131 159.484 44.6452 157.94 43.77Z" fill="#41BA53"/>
<path d="M184.753 63.5346L183.502 61.216L184.01 61.0376L184.776 62.4524L186.629 61.3203L187.119 62.0898L184.753 63.5346ZM185.312 59.1803C183.768 58.3041 182.517 58.9506 182.517 60.6237C182.517 62.2973 183.768 64.3652 185.312 65.2416C186.853 66.1191 188.104 65.4705 188.104 63.7979C188.104 62.1236 186.853 60.0572 185.312 59.1803Z" fill="#41BA53"/>
</svg>
