<svg width="178" height="181" viewBox="0 0 178 181" fill="none" xmlns="http://www.w3.org/2000/svg">
<path d="M169.966 176.616C169.966 176.616 177.715 164.025 177.069 142.395C176.424 120.766 166.803 116.664 159.03 100.588C153.685 89.5365 176.381 68.9515 153.662 44.7387C138.965 29.0764 95.0701 29.566 70.2122 36.3449C9.1374 53.0017 0.518843 97.0376 6.97543 121.573C13.432 146.109 6.32968 177.261 6.32968 177.261L169.966 176.616Z" fill="#DAB6FC"/>
<path d="M168.352 104.201C169.273 107.851 174.068 118.433 175.841 119.676C177.615 120.919 178.103 115.443 176.261 110.273C174.418 105.104 167.325 100.132 168.352 104.201Z" fill="#DAB6FC"/>
<path d="M162.563 39.7798C163.651 41.1932 163.574 43.0764 162.391 43.9877C161.207 44.899 159.367 44.4921 158.279 43.0797C157.191 41.6673 157.269 39.783 158.451 38.8717C159.635 37.9605 161.476 38.3674 162.563 39.7798Z" fill="#DAB6FC"/>
<path d="M5.87293 142.476C5.87293 144.259 4.68625 145.704 3.22257 145.704C1.75879 145.704 0.572113 144.259 0.572113 142.476C0.572113 140.693 1.75879 139.248 3.22257 139.248C4.68625 139.248 5.87293 140.693 5.87293 142.476Z" fill="#DAB6FC"/>
<path d="M151.282 76.701H130.681C130.501 76.701 130.356 76.5558 130.356 76.3755V59.9721C130.356 59.7919 130.501 59.6466 130.681 59.6466C130.86 59.6466 131.007 59.7919 131.007 59.9721V76.051H151.282C151.461 76.051 151.607 76.1963 151.607 76.3755C151.607 76.5558 151.461 76.701 151.282 76.701Z" fill="white"/>
<path d="M137.373 74.0866H133.558V62.8327H137.373V74.0866Z" fill="white"/>
<path d="M143.477 74.0866H139.661V65.0268H143.477V74.0866Z" fill="white"/>
<path d="M148.913 74.0865H145.098V68.8413H148.913V74.0865Z" fill="white"/>
<path d="M75.1331 37.2739C73.6677 37.2739 72.4753 38.4668 72.4753 39.9316C72.4753 41.3974 73.6677 42.5892 75.1331 42.5892C76.5985 42.5892 77.7909 41.3974 77.7909 39.9316C77.7909 38.4668 76.5985 37.2739 75.1331 37.2739ZM75.1331 43.2403C73.3088 43.2403 71.8245 41.7559 71.8245 39.9316C71.8245 38.1073 73.3088 36.6229 75.1331 36.6229C76.9574 36.6229 78.4417 38.1073 78.4417 39.9316C78.4417 41.7559 76.9574 43.2403 75.1331 43.2403ZM80.7625 41.7827H80.765H80.7625ZM74.0972 47.2741H76.169V46.2307C76.169 45.7856 76.4558 45.3921 76.8827 45.2521C77.1483 45.1645 77.4091 45.0563 77.6576 44.9307C78.0587 44.7288 78.5398 44.804 78.855 45.1181L79.5923 45.8557L81.0572 44.3909L80.3199 43.6533C80.005 43.3391 79.9296 42.8571 80.1325 42.4563C80.2583 42.2081 80.3661 41.9475 80.4532 41.6817C80.593 41.2542 80.9863 40.9678 81.432 40.9678H82.4754V38.8963H81.432C80.9863 38.8963 80.593 38.6089 80.4532 38.1824C80.3659 37.9167 80.258 37.6561 80.1325 37.4078C79.9296 37.0061 80.005 36.525 80.3199 36.2098L81.0572 35.4733L79.5923 34.0074L78.855 34.745C78.5401 35.0602 78.0589 35.1354 77.6578 34.9325C77.4091 34.8068 77.1486 34.6986 76.8825 34.6121C76.4558 34.472 76.169 34.0785 76.169 33.6325V32.59H74.0972V33.6325C74.0972 34.0785 73.8106 34.472 73.3835 34.6121C73.1177 34.6986 72.8571 34.8068 72.6086 34.9325C72.2073 35.1354 71.7259 35.0602 71.4113 34.745L70.674 34.0074L69.209 35.4733L69.9464 36.2098C70.2612 36.525 70.3367 37.0061 70.134 37.4068C70.0077 37.6571 69.8999 37.9177 69.8133 38.1824C69.673 38.6089 69.2797 38.8963 68.8343 38.8963H67.7912V40.9678H68.8343C69.2797 40.9678 69.673 41.2542 69.8133 41.6817C69.8999 41.9454 70.0077 42.206 70.134 42.4563C70.3367 42.8581 70.2612 43.3391 69.9464 43.6533L69.209 44.3909L70.674 45.8557L71.4113 45.1181C71.7267 44.804 72.2078 44.7288 72.6086 44.9307C72.8571 45.0563 73.1179 45.1645 73.3838 45.2521C73.8106 45.3921 74.0972 45.7856 74.0972 46.2307V47.2741ZM76.4944 47.9252H73.7718C73.592 47.9252 73.4464 47.7789 73.4464 47.5997V46.2307C73.4464 46.0669 73.3395 45.9226 73.1809 45.8701C72.8841 45.7733 72.5929 45.6528 72.315 45.5116C72.1656 45.4364 71.9868 45.4632 71.8716 45.5786L70.904 46.5469C70.7819 46.6684 70.566 46.6684 70.4439 46.5469L68.5187 44.6206C68.3914 44.4939 68.3914 44.2879 68.5187 44.1612L69.4862 43.1939C69.6016 43.0775 69.6285 42.8993 69.553 42.7499C69.412 42.4708 69.2913 42.1793 69.1947 41.8836C69.1426 41.726 68.9978 41.6189 68.8343 41.6189H67.4657C67.2859 41.6189 67.1402 41.4726 67.1402 41.2934V38.5708C67.1402 38.3905 67.2859 38.2453 67.4657 38.2453H68.8343C68.9978 38.2453 69.1426 38.1382 69.1947 37.9795C69.2913 37.6849 69.412 37.3934 69.553 37.1142C69.6285 36.9638 69.6016 36.7856 69.4862 36.6703L68.5187 35.703C68.3914 35.5753 68.3914 35.3703 68.5187 35.2425L70.4439 33.3173C70.566 33.1947 70.7819 33.1947 70.904 33.3173L71.8716 34.2845C71.9873 34.4009 72.1653 34.4277 72.3152 34.3515C72.5924 34.2114 72.8838 34.0909 73.1806 33.993C73.3395 33.9415 73.4464 33.7963 73.4464 33.6325V32.2645C73.4464 32.0842 73.592 31.939 73.7718 31.939H76.4944C76.6743 31.939 76.8199 32.0842 76.8199 32.2645V33.6325C76.8199 33.7963 76.9267 33.9415 77.0855 33.993C77.3824 34.0909 77.674 34.2114 77.9514 34.3515C78.1013 34.4277 78.279 34.4009 78.3947 34.2845L79.3622 33.3173C79.4844 33.1947 79.7002 33.1947 79.8225 33.3173L81.7476 35.2425C81.8748 35.3703 81.8748 35.5753 81.7476 35.703L80.78 36.6703C80.6647 36.7856 80.6378 36.9638 80.7135 37.1132C80.8538 37.3913 80.9742 37.6828 81.0719 37.9795C81.1239 38.1382 81.2685 38.2453 81.432 38.2453H82.8008C82.9807 38.2453 83.1262 38.3905 83.1262 38.5708V41.2934C83.1262 41.4726 82.9807 41.6189 82.8008 41.6189H81.432C81.2685 41.6189 81.1239 41.725 81.0719 41.8846C80.9745 42.1813 80.8538 42.4718 80.7135 42.7499C80.6378 42.8993 80.6647 43.0775 80.78 43.1939L81.7476 44.1612C81.8748 44.2879 81.8748 44.4939 81.7476 44.6206L79.8225 46.5469C79.7002 46.6684 79.4844 46.6684 79.3622 46.5469L78.3947 45.5786C78.279 45.4632 78.1013 45.4364 77.9514 45.5116C77.6735 45.6528 77.3822 45.7733 77.0857 45.8701C76.9267 45.9226 76.8199 46.0669 76.8199 46.2307V47.5997C76.8199 47.7789 76.6743 47.9252 76.4944 47.9252Z" fill="white"/>
<path d="M108.562 120.035C108.183 120.19 107.794 120.264 107.41 120.264C106.392 120.264 105.425 119.742 104.871 118.817L100.776 111.225C100.686 111.321 100.611 111.439 100.567 111.575L97.6034 120.484C97.4416 120.975 97.7064 121.508 98.1977 121.67L112.179 126.321C112.671 126.484 113.202 126.218 113.366 125.727L116.331 116.818C116.37 116.7 116.384 116.579 116.375 116.461L108.562 120.035ZM105.437 118.495L101.363 110.94C101.487 110.931 101.616 110.945 101.742 110.986L115.74 115.642C115.883 115.688 116.006 115.768 116.104 115.869L108.304 119.438C107.233 119.876 106.024 119.474 105.437 118.495Z" fill="white"/>
<path d="M88.2283 70.404C88.2283 71.8296 87.072 72.9865 85.6456 72.9865C84.2193 72.9865 83.063 71.8296 83.063 70.404C83.063 68.9773 84.2193 67.8205 85.6456 67.8205C87.072 67.8205 88.2283 68.9773 88.2283 70.404Z" fill="white"/>
<path d="M77.5749 73.5695C74.8703 73.5695 72.6698 75.7698 72.6698 78.4749C72.6698 81.1789 74.8703 83.3792 77.5749 83.3792C80.2794 83.3792 82.4799 81.1789 82.4799 78.4749C82.4799 75.7698 80.2794 73.5695 77.5749 73.5695ZM77.5749 83.9004C74.5831 83.9004 72.1492 81.4663 72.1492 78.4749C72.1492 75.4824 74.5831 73.0483 77.5749 73.0483C80.5666 73.0483 83.0005 75.4824 83.0005 78.4749C83.0005 81.4663 80.5666 83.9004 77.5749 83.9004Z" fill="white"/>
<path d="M120.373 79.9097H100.662C99.0806 79.9097 97.7992 81.1922 97.7992 82.7734V91.4376C97.7992 93.0188 99.0806 94.3002 100.662 94.3002H113.492L121.668 98.7441C121.844 98.8399 122.03 98.6359 121.919 98.4701L119.14 94.3002H120.373C121.954 94.3002 123.236 93.0188 123.236 91.4376V82.7734C123.236 81.1922 121.954 79.9097 120.373 79.9097Z" fill="#9FA0FF"/>
<path d="M106.215 87.0298C106.215 87.8271 105.568 88.473 104.771 88.473C103.973 88.473 103.327 87.8271 103.327 87.0298C103.327 86.2315 103.973 85.5856 104.771 85.5856C105.568 85.5856 106.215 86.2315 106.215 87.0298Z" fill="white"/>
<path d="M111.86 87.0299C111.86 87.8272 111.213 88.473 110.416 88.473C109.618 88.473 108.972 87.8272 108.972 87.0299C108.972 86.2315 109.618 85.5857 110.416 85.5857C111.213 85.5857 111.86 86.2315 111.86 87.0299Z" fill="white"/>
<path d="M117.505 87.0299C117.505 87.8272 116.859 88.473 116.061 88.473C115.263 88.473 114.617 87.8272 114.617 87.0299C114.617 86.2315 115.263 85.5857 116.061 85.5857C116.859 85.5857 117.505 86.2315 117.505 87.0299Z" fill="white"/>
<path d="M34.3319 38.2883H13.4016C11.7226 38.2883 10.3617 39.6491 10.3617 41.3282V50.5291C10.3617 52.2081 11.7226 53.5689 13.4016 53.5689H27.0251L35.4418 58.1436C35.697 58.2816 35.9674 57.986 35.8063 57.7449L33.0226 53.5689H34.3319C36.0108 53.5689 37.3719 52.2081 37.3719 50.5291V41.3282C37.3719 39.6491 36.0108 38.2883 34.3319 38.2883Z" fill="#9FA0FF"/>
<path d="M19.2981 45.8484C19.2981 46.6951 18.6116 47.3812 17.7647 47.3812C16.9178 47.3812 16.2312 46.6951 16.2312 45.8484C16.2312 45.0016 16.9178 44.3146 17.7647 44.3146C18.6116 44.3146 19.2981 45.0016 19.2981 45.8484Z" fill="white"/>
<path d="M25.2926 45.8484C25.2926 46.6951 24.606 47.3812 23.7591 47.3812C22.9122 47.3812 22.2256 46.6951 22.2256 45.8484C22.2256 45.0016 22.9122 44.3146 23.7591 44.3146C24.606 44.3146 25.2926 45.0016 25.2926 45.8484Z" fill="white"/>
<path d="M31.2869 45.8484C31.2869 46.6951 30.6004 47.3812 29.7534 47.3812C28.9066 47.3812 28.22 46.6951 28.22 45.8484C28.22 45.0016 28.9066 44.3146 29.7534 44.3146C30.6004 44.3146 31.2869 45.0016 31.2869 45.8484Z" fill="white"/>
<path d="M122.278 37.369C125.954 28.3501 121.505 18.0406 112.349 14.5605C103.696 11.2725 93.867 15.4444 90.2173 23.952C88.2909 28.4422 88.4041 33.2765 90.1272 37.4428C91.472 40.6945 91.4349 44.3541 90.1066 47.6126H90.1064C89.1515 49.9554 90.276 52.6277 92.6185 53.5832L99.9652 56.5781C102.308 57.5325 104.981 56.4077 105.935 54.0649C107.285 50.753 109.908 48.1512 113.184 46.7128C117.169 44.9608 120.504 41.7194 122.278 37.369Z" fill="#9FA0FF"/>
<path d="M93.2866 23.142C93.2556 23.142 93.2247 23.1353 93.196 23.1197C93.1001 23.0697 93.063 22.952 93.1135 22.8564C93.1547 22.7775 94.1518 20.9042 96.3522 19.0542C98.3827 17.3476 101.859 15.3576 106.88 15.5687C106.988 15.5732 107.072 15.6643 107.067 15.772C107.064 15.8798 106.973 15.9643 106.865 15.9587C101.974 15.7543 98.5916 17.6854 96.6158 19.3431C94.4702 21.1431 93.4688 23.0186 93.4596 23.0375C93.4246 23.1042 93.3566 23.142 93.2866 23.142Z" fill="white"/>
<path d="M112.077 17.0497C112.046 17.0497 112.014 17.0419 111.984 17.0253C110.709 16.3294 109.375 16.243 109.362 16.2419C109.255 16.2352 109.173 16.1433 109.178 16.0347C109.185 15.9272 109.28 15.8463 109.385 15.8518C109.443 15.8552 110.817 15.9438 112.171 16.6829C112.266 16.7339 112.301 16.8524 112.25 16.9477C112.213 17.012 112.147 17.0497 112.077 17.0497Z" fill="white"/>
<path d="M104.113 31.3784C103.927 31.3784 103.702 31.5288 103.566 31.6349C102.268 32.6444 100.274 36.4022 100.927 38.4861C103.478 36.8266 104.51 34.1051 104.576 32.6032C104.602 32.0171 104.483 31.5741 104.26 31.4217C104.216 31.3918 104.166 31.3784 104.113 31.3784ZM99.4637 30.5945C99.3916 30.5945 99.2948 30.6532 99.235 30.6944C97.2377 32.0768 96.8122 36.2961 98.0175 38.2234C98.1102 38.3718 98.2214 38.5191 98.3533 38.6489C98.7499 37.2036 99.0805 35.8223 99.3154 34.6201C99.9911 31.1641 99.6018 30.6738 99.5163 30.6099C99.5018 30.5986 99.4833 30.5945 99.4637 30.5945ZM108.784 33.7765C108.58 33.7765 108.278 33.9197 107.932 34.1854C105.879 35.7646 104.501 37.9412 104.399 39.6141C106.987 38.9692 108.57 36.6577 108.997 35.1548C109.212 34.4017 109.126 33.9423 108.947 33.8208C108.904 33.7909 108.849 33.7765 108.784 33.7765ZM106.567 41.9782C108.723 42.1522 111.447 40.0704 112.493 38.4459C112.846 37.8979 112.888 37.5693 112.81 37.4447C112.749 37.3489 112.57 37.3139 112.303 37.3458C110.444 37.5714 108.436 39.4544 106.567 41.9782ZM99.7933 55.0502L99.4225 54.9266C100.286 52.3379 102.203 48.0434 104.539 44.2876C104.949 43.6274 105.401 42.9382 105.886 42.2573C104.712 41.9534 104.264 41.1973 104.099 40.5803C104.057 40.4248 104.029 40.262 104.015 40.0941C103.767 40.1343 103.512 40.1611 103.248 40.1714C101.787 40.2321 101.085 39.6573 100.747 39.0547C100.723 39.0691 100.698 39.0836 100.672 39.098C99.9025 39.5306 99.1815 39.5883 98.5809 39.2886C98.2657 40.4031 97.933 41.4899 97.6147 42.4582C95.9655 47.481 93.7518 51.8847 93.7291 51.929L93.381 51.7528C93.4026 51.7085 95.6039 47.3306 97.2438 42.3366C97.6003 41.2499 97.9361 40.1446 98.2379 39.0671C98.0339 38.9033 97.8495 38.6911 97.6868 38.4305C96.3837 36.3476 96.8091 31.8986 99.0125 30.373C99.3731 30.1237 99.6121 30.1948 99.7501 30.2968C100.578 30.9148 99.7645 35.0198 98.688 38.9043C99.1186 39.1505 99.7017 39.1959 100.48 38.757C100.516 38.7375 100.552 38.7168 100.587 38.6973C99.7903 36.4444 101.901 32.4342 103.326 31.3269C103.901 30.8788 104.271 30.956 104.48 31.0992C104.826 31.3362 104.999 31.8759 104.967 32.6207C104.896 34.2163 103.798 37.115 101.082 38.8518C101.445 39.5131 102.165 39.8263 103.232 39.7809C103.498 39.7706 103.755 39.7418 104.003 39.6985C104.057 37.8825 105.483 35.5781 107.694 33.8764C108.481 33.2707 108.928 33.3356 109.166 33.4973C109.543 33.7538 109.62 34.3966 109.373 35.2619C108.895 36.9379 107.214 39.3792 104.401 40.0189C104.412 40.1786 104.437 40.3331 104.476 40.4794C104.678 41.2334 105.25 41.7258 106.135 41.9143C107.927 39.4678 110.122 37.216 112.256 36.9574C112.693 36.9049 112.991 36.9986 113.14 37.2376C113.332 37.5436 113.222 38.0349 112.821 38.6571C111.789 40.261 109.152 42.3799 106.833 42.3799C106.674 42.3799 106.517 42.3696 106.361 42.349C106.342 42.3469 106.322 42.3438 106.303 42.3408C103.352 46.4498 100.792 52.0557 99.7933 55.0502Z" fill="white"/>
<path d="M94.0103 64.7499L91.159 63.5879C87.852 62.2405 86.2639 58.4662 87.612 55.1586C88.9601 51.8519 92.734 50.2635 96.0406 51.6119L98.892 52.7739C102.199 54.1223 103.787 57.8956 102.439 61.2032C101.091 64.5099 97.3169 66.0983 94.0103 64.7499Z" fill="#222823"/>
<path d="M101.503 63.0501L86.994 57.1352C85.974 56.7191 85.4843 55.5561 85.9001 54.5352L88.0508 49.259C88.4666 48.2392 89.6304 47.7499 90.6502 48.1651L105.16 54.0799C106.18 54.4961 106.669 55.6601 106.254 56.6799L104.103 61.9561C103.687 62.9759 102.524 63.4652 101.503 63.0501Z" fill="#3F424A"/>
<path d="M140.33 32.007C140.319 32.007 140.306 32.007 140.295 32.0049L130.158 31.0984C129.944 31.0788 129.785 30.8893 129.804 30.675C129.823 30.4597 130.012 30.3011 130.228 30.3207L140.364 31.2272C140.579 31.2467 140.738 31.4363 140.718 31.6516C140.7 31.8545 140.53 32.007 140.33 32.007Z" fill="#3F424A"/>
<path d="M130.169 21.597C130.016 21.597 129.871 21.5066 129.808 21.3567C129.726 21.1573 129.819 20.9281 130.019 20.8454L139.411 16.9279C139.61 16.8453 139.839 16.9389 139.922 17.1384C140.005 17.3378 139.911 17.5659 139.712 17.6486L130.319 21.5661C130.27 21.5871 130.219 21.597 130.169 21.597Z" fill="#3F424A"/>
<path d="M134.961 47.0855C134.879 47.0855 134.795 47.0588 134.725 47.0052L126.618 40.8534C126.446 40.7236 126.412 40.4784 126.543 40.3064C126.673 40.1344 126.918 40.1014 127.09 40.2312L135.197 46.383C135.369 46.5138 135.403 46.759 135.272 46.931C135.195 47.032 135.079 47.0855 134.961 47.0855Z" fill="#3F424A"/>
<path d="M87.6263 16.5878C87.5472 16.5878 87.4675 16.5638 87.3985 16.5145L79.1357 10.5737C78.9605 10.4477 78.9206 10.2038 79.0465 10.0286C79.1723 9.85341 79.4162 9.81333 79.5917 9.9393L87.8545 15.8802C88.0297 16.0061 88.0695 16.25 87.9437 16.4252C87.8673 16.5317 87.7476 16.5878 87.6263 16.5878Z" fill="#3F424A"/>
<path d="M94.7023 10.5077C94.5509 10.5077 94.4067 10.4199 94.3428 10.2718L90.3161 0.925689C90.231 0.727141 90.3224 0.497306 90.5202 0.41187C90.7188 0.326435 90.9486 0.417887 91.0341 0.616434L95.0608 9.96259C95.1463 10.1599 95.0546 10.3898 94.8568 10.4752C94.8064 10.4969 94.7538 10.5077 94.7023 10.5077Z" fill="#3F424A"/>
<path d="M84.3875 25.1276L84.3622 25.1265L74.2057 24.481C73.9905 24.4672 73.827 24.2817 73.8407 24.0665C73.8544 23.8513 74.0406 23.6892 74.2552 23.7019L84.4117 24.3464C84.627 24.3601 84.7905 24.5456 84.7768 24.7608C84.7636 24.9686 84.5918 25.1276 84.3875 25.1276Z" fill="#3F424A"/>
<path d="M151.281 115.192C151.281 118.821 149.181 121.762 146.589 121.762C143.997 121.762 141.896 118.821 141.896 115.192C141.896 111.564 143.997 108.622 146.589 108.622C149.181 108.622 151.281 111.564 151.281 115.192Z" fill="#222823"/>
<path d="M129.747 112.95C129.747 112.95 128.704 123.274 127.035 124.421C127.035 124.421 131.311 125.881 136.942 125.464C142.574 125.047 132.667 111.699 132.667 111.699L129.747 112.95Z" fill="#222823"/>
<path d="M145.721 109.545C145.721 110.122 145.721 132.374 145.721 132.374C145.721 132.374 139.978 140.767 136.264 140.767C132.552 140.767 133.136 133.494 133.136 133.494L133.063 118.009L145.721 109.545Z" fill="#FFB581"/>
<path d="M133.078 121.245L133.074 120.874C133.075 120.874 133.075 120.874 133.076 120.874L133.078 121.245Z" fill="#1E1B14"/>
<path d="M136.585 123.677C135.536 123.677 134.374 123.433 133.094 122.853L133.078 121.245L133.076 120.874C133.077 120.874 133.08 120.875 133.082 120.875C133.422 120.875 141.959 118.142 144.529 116.892C144.464 116.999 142.074 123.676 136.585 123.677Z" fill="#DE7A4A"/>
<path d="M135.813 121.852C141.614 122.849 146.324 117.861 147.269 112.359L148.768 103.635C149.712 98.1342 146.205 92.9405 140.934 92.035C135.663 91.1295 130.624 94.8554 129.679 100.356L128.181 109.08C127.235 114.582 130.012 120.856 135.813 121.852Z" fill="#FFB581"/>
<path d="M134.12 113.246C135.768 113.338 135.951 113.246 137.172 113.093C138.303 112.952 136.928 115.248 134.257 114.94C132.669 114.757 132.227 113.521 132.593 113.154C132.96 112.789 133.446 113.209 134.12 113.246Z" fill="white"/>
<path d="M140.059 106.041C139.981 106.499 140.219 106.921 140.591 106.985C140.963 107.049 141.328 106.73 141.407 106.272C141.485 105.814 141.248 105.391 140.875 105.327C140.503 105.263 140.137 105.582 140.059 106.041Z" fill="#333333"/>
<path d="M131.665 104.737C131.585 105.202 131.822 105.63 132.194 105.694C132.566 105.758 132.933 105.434 133.012 104.969C133.092 104.505 132.856 104.075 132.484 104.011C132.111 103.947 131.745 104.273 131.665 104.737Z" fill="#333333"/>
<path d="M147.684 91.2591C147.684 91.2591 158.33 95.4149 155.817 112.845C155.514 114.955 157.559 118.892 157.382 120.354C156.834 124.89 153.237 125.125 153.237 125.125L141.583 125.203C141.583 125.203 146.853 121.571 147.269 112.359L149.012 101.896L147.684 91.2591Z" fill="#222823"/>
<path d="M150.974 109.857C150.676 111.592 149.373 112.814 148.064 112.59C145.631 112.172 145.935 110.777 146.233 109.043C146.53 107.31 147.833 106.086 149.143 106.31C150.452 106.535 151.272 108.123 150.974 109.857Z" fill="#FFB581"/>
<path d="M148.422 111.183C148.368 111.183 148.314 111.179 148.261 111.168C148.064 111.13 147.933 110.991 147.849 110.815C147.819 110.753 147.873 110.708 147.929 110.708C147.947 110.708 147.964 110.713 147.979 110.723C148.094 110.804 148.264 110.839 148.417 110.839C148.46 110.839 148.502 110.836 148.54 110.83C148.746 110.802 148.944 110.704 149.104 110.573C149.453 110.292 149.693 109.865 149.796 109.434C149.898 109.008 149.891 108.516 149.694 108.117C149.602 107.931 149.438 107.746 149.225 107.708C149.197 107.703 149.168 107.701 149.142 107.701C148.967 107.701 148.808 107.796 148.751 107.969C148.741 108 148.716 108.013 148.689 108.013C148.645 108.013 148.596 107.975 148.607 107.923C148.668 107.628 148.956 107.466 149.242 107.466C149.365 107.466 149.487 107.495 149.591 107.557C149.992 107.792 150.145 108.322 150.175 108.757C150.207 109.23 150.103 109.714 149.878 110.13C149.66 110.538 149.328 110.913 148.89 111.086C148.746 111.144 148.582 111.183 148.422 111.183Z" fill="#DE7A4A"/>
<path d="M143.999 89.6649C140.374 88.6853 137.87 89.6525 136.263 90.8783C135.727 90.5209 134.737 90.3035 132.9 90.8227C131.484 91.2234 130.227 93.3001 129.753 94.9792C128.824 98.2642 129.539 102.287 129.539 102.287C129.539 102.287 132.639 98.0015 133.292 96.343C133.51 95.7909 133.693 95.315 133.85 94.9009C133.833 96.9632 134.242 100.923 137.569 101.478C137.882 101.53 138.213 101.573 138.555 101.607L137.36 97.1517L139.735 101.71C140.687 101.782 141.692 101.846 142.679 101.99L140.698 97.88L143.958 102.23C144.929 102.457 145.85 102.804 146.641 103.355C148.099 104.373 147.093 109.353 147.007 109.776L148.097 106.43L148.106 106.399L148.143 106.409C148.465 106.289 148.802 106.25 149.142 106.309C149.713 106.407 150.198 106.77 150.527 107.293L150.543 107.3C150.543 107.3 152.25 104.342 152.433 100.975C152.611 97.6101 151.325 91.6406 143.999 89.6649Z" fill="#222823"/>
<path d="M131.219 127.707C131.219 127.707 124.305 129.321 122.61 133.275C120.605 137.954 109.757 166.365 109.757 166.365H96.9235V175.082H125.979L131.219 127.707Z" fill="#9FA0FF"/>
<path d="M119.624 164.993C119.624 164.993 110.503 165.075 108.163 167.253C105.823 169.432 105.903 172.822 105.903 172.822H120.35L119.624 164.993Z" fill="#FFB581"/>
<path d="M152.612 174.356C152.612 174.356 164.717 134.648 161.086 131.984C157.454 129.321 146.074 125.931 146.074 125.931C146.074 125.931 140.37 137.948 136.007 138.198C131.326 138.467 132.919 126.819 132.919 126.819C132.919 126.819 128.958 127.599 126.376 134.164C124.601 138.673 122.956 145.694 122.448 149.175C122.284 150.296 124.196 155.635 124.062 156.762C123.277 163.374 123.375 169.04 123.093 173.63L152.612 174.356Z" fill="#9FA0FF"/>
<path d="M133.748 163.186C133.676 163.186 133.618 163.129 133.618 163.057V155.55C133.618 155.478 133.676 155.421 133.748 155.421C133.82 155.421 133.877 155.478 133.877 155.55V163.057C133.877 163.129 133.82 163.186 133.748 163.186Z" fill="#274B82"/>
<path d="M123.094 173.759H123.086C123.014 173.754 122.959 173.694 122.965 173.621C123.056 172.126 123.108 170.506 123.162 168.792C123.276 165.236 123.403 161.207 123.934 156.746C123.997 156.217 123.561 154.62 123.14 153.076C122.673 151.366 122.233 149.752 122.32 149.155C122.809 145.799 124.449 138.706 126.255 134.115C127.6 130.697 129.325 128.862 130.537 127.926C131.858 126.903 132.852 126.699 132.894 126.691C132.965 126.678 133.033 126.723 133.047 126.793C133.061 126.864 133.015 126.932 132.944 126.946C132.906 126.954 129.019 127.799 126.498 134.211C124.698 138.782 123.065 145.85 122.577 149.194C122.498 149.736 122.952 151.399 123.391 153.007C123.838 154.647 124.26 156.197 124.192 156.777C123.664 161.226 123.535 165.251 123.422 168.801C123.367 170.517 123.316 172.138 123.224 173.637C123.22 173.706 123.162 173.759 123.094 173.759Z" fill="#274B82"/>
<path d="M132.919 126.819C132.919 126.819 133.442 135.3 136.008 135.616C139.935 136.1 146.123 126.146 146.123 126.146C146.123 126.146 145.693 129.967 144.67 132.98C143.648 135.993 133.748 155.55 133.748 155.55C133.748 155.55 131.003 144.091 130.761 140.297C130.057 129.256 132.08 128.083 132.08 128.083L132.919 126.819Z" fill="white"/>
<path d="M133.021 126.537C133.021 126.537 131.891 137.15 132.295 141.023C132.981 147.61 133.748 155.55 133.748 155.55C133.748 155.55 128.825 145.463 128.098 142.557C128.062 142.414 130.25 132.656 130.25 132.656L128.743 131.15L133.021 126.537Z" fill="#9FA0FF"/>
<path d="M128.229 142.542C128.85 144.992 132.451 152.56 133.548 154.838C133.343 152.728 132.724 146.399 132.165 141.037C131.809 137.614 132.655 128.86 132.851 126.91L128.925 131.146L130.342 132.564C130.374 132.595 130.387 132.642 130.377 132.685C129.53 136.461 128.27 142.156 128.229 142.542ZM133.748 155.681C133.699 155.681 133.653 155.653 133.63 155.608C133.429 155.195 128.693 145.474 127.972 142.588C127.943 142.473 128.662 139.146 130.107 132.697L128.652 131.242C128.602 131.192 128.6 131.113 128.649 131.062L132.926 126.448C132.964 126.407 133.025 126.394 133.075 126.418C133.127 126.44 133.156 126.494 133.151 126.55C133.14 126.656 132.027 137.194 132.424 141.009C133.103 147.522 133.869 155.459 133.877 155.538C133.884 155.601 133.843 155.658 133.783 155.676C133.771 155.679 133.759 155.681 133.748 155.681Z" fill="#274B82"/>
<path d="M133.748 155.55L145.531 141.266L144.239 135.212L150.051 132.791L148.921 126.98L145.773 125.366L133.748 155.55Z" fill="#9FA0FF"/>
<path d="M145.841 125.547L134.176 154.826L145.391 141.231L144.113 135.24C144.099 135.178 144.132 135.116 144.19 135.092L149.903 132.712L148.806 127.067L145.841 125.547ZM133.748 155.681C133.725 155.681 133.702 155.675 133.682 155.662C133.626 155.63 133.603 155.562 133.627 155.503L145.653 125.318C145.666 125.284 145.693 125.257 145.728 125.244C145.762 125.231 145.8 125.233 145.833 125.25L148.981 126.864C149.016 126.882 149.041 126.915 149.049 126.956L150.179 132.766C150.19 132.827 150.158 132.887 150.101 132.911L144.39 135.291L145.659 141.238C145.667 141.277 145.657 141.317 145.631 141.348L133.848 155.634C133.823 155.665 133.786 155.681 133.748 155.681Z" fill="#274B82"/>
<path d="M159.472 131.015C156.249 130.21 150.863 132.845 149.679 137.068C147.954 143.224 150.312 161.765 150.312 161.765L118.795 164.187L118.957 172.795C118.957 172.795 155.478 172.795 161.289 172.795C167.1 172.795 163.91 143.189 163.776 140.485C163.589 136.666 162.916 131.877 159.472 131.015Z" fill="#9FA0FF"/>
<path d="M118.956 172.925C118.885 172.925 118.828 172.868 118.827 172.797L118.665 164.189C118.664 164.12 118.716 164.062 118.785 164.057L150.168 161.645C149.957 159.944 147.92 142.866 149.555 137.033C149.573 136.964 149.645 136.924 149.714 136.944C149.784 136.962 149.824 137.034 149.805 137.103C148.106 143.163 150.419 161.564 150.443 161.748C150.447 161.785 150.436 161.82 150.414 161.847C150.391 161.875 150.358 161.893 150.323 161.895L118.928 164.307L119.087 172.793C119.088 172.864 119.031 172.924 118.959 172.925H118.956Z" fill="#274B82"/>
<path d="M144.002 104.33C143.463 103.855 142.757 103.56 142.054 103.427C141.698 103.36 141.338 103.329 140.976 103.344C140.611 103.357 140.227 103.391 139.89 103.539C139.66 103.641 139.784 104.003 140.014 103.999C140.346 103.993 140.673 103.925 141.008 103.927C141.315 103.928 141.624 103.957 141.925 104.013C142.567 104.137 143.148 104.388 143.727 104.686C143.945 104.798 144.204 104.509 144.002 104.33Z" fill="#333333"/>
<path d="M130.213 102.207C130.859 101.89 131.617 101.791 132.33 101.849C132.692 101.879 133.046 101.944 133.392 102.052C133.74 102.162 134.103 102.295 134.388 102.528C134.583 102.686 134.369 103.003 134.147 102.938C133.829 102.844 133.531 102.693 133.208 102.606C132.912 102.527 132.606 102.473 132.3 102.448C131.648 102.398 131.021 102.488 130.384 102.623C130.145 102.673 129.971 102.326 130.213 102.207Z" fill="#333333"/>
<path d="M135.969 106.211C136.021 106.118 135.881 106.035 135.824 106.127C135.392 106.831 134.972 107.538 134.581 108.264C134.19 108.992 133.847 109.741 133.488 110.483C133.446 110.572 133.498 110.658 133.594 110.668C134.045 110.71 134.542 110.79 134.993 110.721C135.099 110.705 135.095 110.531 134.993 110.51C134.603 110.434 134.185 110.448 133.783 110.432C134.104 109.745 134.46 109.071 134.807 108.396C135.184 107.663 135.567 106.931 135.969 106.211Z" fill="#333333"/>
<path d="M48.7877 66.8584C48.7078 67.4239 44.8881 87.0299 44.8881 87.0299C44.8881 87.0299 47.6511 92.509 51.2895 93.023C54.9279 93.537 58.0329 90.9793 58.0329 90.9793L60.0202 76.905L48.7877 66.8584Z" fill="#FFB581"/>
<path d="M56.4865 83.7479C55.7652 83.7479 55.0913 83.6758 54.5529 83.5594C50.2317 82.619 48.8226 78.3533 48.8226 78.3533C49.512 79.2845 52.0106 81.7032 55.9344 81.8762C56.1032 81.8835 56.2665 81.8865 56.4245 81.8865C58.2661 81.8865 59.3553 81.4199 59.3553 81.4199L59.0806 83.407C58.2447 83.6491 57.333 83.7479 56.4865 83.7479Z" fill="#DE7A4A"/>
<path d="M52.0992 91.2749C46.2419 90.4993 45.8162 81.8443 45.8162 81.8443C45.1145 82.8343 44.622 82.961 44.3231 83.8015C41.0689 83.7263 33.1034 83.8623 32.693 85.5043C29.0519 100.069 20.9905 152.85 20.9905 152.85L59.4678 152.865C59.4678 152.865 62.4718 129.016 67.1335 109.539C68.9993 101.744 71.3961 91.4851 70.7416 90.8227C68.5356 88.5894 62.4412 87.3688 60.0205 86.862C59.7872 85.6547 58.893 84.7935 58.893 84.7935C58.893 84.7935 57.7257 92.0207 52.0992 91.2749Z" fill="white"/>
<path d="M20.9907 152.98L20.9709 152.979C20.8999 152.968 20.851 152.902 20.862 152.831C20.8858 152.674 23.2842 136.987 26.0182 120.566C28.9628 102.882 31.1661 91.0751 32.5666 85.4723C32.5841 85.4023 32.6547 85.3601 32.7246 85.3776C32.7943 85.3951 32.8367 85.4662 32.8194 85.5352C31.4203 91.1317 29.2186 102.932 26.2752 120.609C23.5414 137.028 21.1432 152.713 21.1193 152.87C21.1095 152.934 21.054 152.98 20.9907 152.98Z" fill="#BB9BB0"/>
<path d="M17.3666 104.462C17.3666 104.462 10.9099 119.152 11.2328 121.572C11.5556 123.994 15.4296 128.675 19.7879 125.931C24.146 123.187 29.15 109.789 29.15 109.789L17.3666 104.462Z" fill="#FFB581"/>
<path d="M33.3473 84.7759C20.6034 85.6855 15.4901 107.045 15.4901 107.045L28.6139 113.905L31.3447 107.897C31.3447 107.897 46.0913 83.8653 33.3473 84.7759Z" fill="white"/>
<path d="M28.7734 114.063C28.7528 114.063 28.7322 114.058 28.7134 114.047L15.4302 107.161C15.3745 107.131 15.3473 107.067 15.3656 107.007C17.3027 100.646 19.4599 95.8177 21.9604 92.2484C24.0667 89.2405 26.4437 87.1174 29.2273 85.7556C34.1499 83.3483 44.226 83.6676 44.3276 83.6707C44.3995 83.6738 44.4558 83.7335 44.4532 83.8056C44.4507 83.8777 44.3914 83.9334 44.3187 83.9313C44.2179 83.9282 34.2055 83.6109 29.3418 85.9894C23.4236 88.884 19.1978 95.3593 15.6463 106.98L28.7128 113.754L29.4086 112.263C29.439 112.197 29.5164 112.17 29.5817 112.2C29.6469 112.23 29.675 112.308 29.6446 112.373L28.8914 113.988C28.8764 114.02 28.849 114.044 28.8154 114.056C28.8017 114.06 28.7875 114.063 28.7734 114.063Z" fill="#BB9BB0"/>
<path d="M86.6899 126.876L81.911 131.382C81.911 131.382 73.7841 128.04 70.0691 123.671C66.3541 119.302 62.5504 109.671 62.5504 109.671L76.0351 105.894L79.0437 117C79.0437 117 81.3252 119.512 82.4175 120.604C83.5098 121.696 86.6899 126.876 86.6899 126.876Z" fill="#FFB581"/>
<path d="M46.4252 73.7662L45.1757 68.2871L46.5113 69.482L46.4252 73.7662Z" fill="#333333"/>
<path d="M54.2581 82.4088C48.3805 81.4076 45.5612 75.0549 46.5113 69.4821L48.0181 60.6427C48.9682 55.0699 54.0678 51.2894 59.4081 52.199C63.6857 52.9283 66.9614 55.9053 67.5513 60.1411C67.698 61.1938 67.5464 62.8307 67.3572 63.9401L65.8505 72.7784C64.9004 78.3523 60.1357 83.4111 54.2581 82.4088Z" fill="#FFB581"/>
<path d="M59.5871 76.259C59.5871 76.259 56.0232 74.5913 54.981 72.8206C54.981 72.8206 55.4922 76.3301 56.7938 77.0254C58.0954 77.7208 59.5871 76.259 59.5871 76.259Z" fill="white"/>
<path d="M55.8312 67.1056C55.7436 67.6206 55.333 67.9791 54.9141 67.908C54.4953 67.8359 54.2268 67.3621 54.3145 66.847C54.4022 66.333 54.8127 65.9745 55.2316 66.0456C55.6504 66.1167 55.9189 66.5916 55.8312 67.1056Z" fill="#333333"/>
<path d="M64.3457 68.4406C64.2583 68.9536 63.8478 69.311 63.429 69.24C63.0101 69.1689 62.7415 68.695 62.8289 68.1821C62.9164 67.6691 63.3268 67.3106 63.7456 67.3827C64.1644 67.4538 64.4332 67.9276 64.3457 68.4406Z" fill="#333333"/>
<path d="M43.8145 65.8437C43.5151 67.6011 44.3475 69.208 45.6739 69.4347C48.1387 69.8549 48.3184 68.419 48.6178 66.6627C48.9174 64.9053 48.0848 63.2983 46.7586 63.0717C45.4321 62.8461 44.1141 64.0864 43.8145 65.8437Z" fill="#FFB581"/>
<path d="M46.0432 68.1686C46.0175 68.1686 45.9914 68.1665 45.9648 68.1624C45.7528 68.1294 45.5508 68.011 45.3913 67.8719C45.0313 67.5588 44.841 67.089 44.769 66.6265C44.6954 66.1516 44.7586 65.6551 44.9484 65.2142C45.1232 64.8084 45.448 64.3541 45.9109 64.2645C45.9508 64.2562 45.9915 64.2521 46.0322 64.2521C46.4004 64.2521 46.7798 64.556 46.7271 64.9464C46.7215 64.9876 46.684 65.0082 46.6475 65.0082C46.6097 65.0082 46.5728 64.9856 46.5739 64.9413C46.5785 64.727 46.4153 64.5663 46.2092 64.5323C46.183 64.5282 46.1567 64.5261 46.1305 64.5261C45.9404 64.5261 45.7556 64.6353 45.6233 64.7641C45.3008 65.0793 45.1285 65.548 45.0827 65.9879C45.036 66.4349 45.1219 66.9232 45.3591 67.3095C45.4688 67.4887 45.6242 67.6494 45.812 67.7452C45.9298 67.806 46.0886 67.8503 46.2338 67.8503C46.2866 67.8503 46.3375 67.8451 46.384 67.8317C46.3912 67.8297 46.3987 67.8286 46.406 67.8286C46.4721 67.8286 46.5365 67.9059 46.4778 67.9636C46.3565 68.0851 46.2106 68.1686 46.0432 68.1686Z" fill="#DE7A4A"/>
<path d="M58.0019 47.2618C53.1358 46.7581 47.5742 50.3881 48.0885 50.7858C47.4355 50.8074 44.3916 50.5653 44.0611 53.9255C43.7839 56.7439 44.6738 62.0211 45.1145 63.5632C46.3281 63.1851 47.2131 63.4911 47.2025 63.6466C47.072 65.5667 47.4708 66.2064 47.4708 66.2064C47.4708 66.2064 48.5247 65.3669 48.9373 63.9629C49.3501 62.5588 49.0704 62.1746 51.0968 61.4803C53.1229 60.785 52.6067 55.857 52.6067 55.857C52.6067 55.857 58.0068 60.7386 62.3479 62.0644C64.3829 62.6855 68.0717 63.5797 69.6655 62.7092C73.4587 60.6377 70.9767 58.5744 71.1098 56.3483C71.2125 54.6322 70.6652 52.0961 68.301 51.2267C67.513 50.9372 65.2597 51.3719 64.3356 50.896C62.3344 49.8659 61.4936 47.6223 58.0019 47.2618Z" fill="#222823"/>
<path d="M69.6251 90.0162C69.6251 90.0162 72.1629 91.5418 73.647 96.338C74.6804 99.6766 78.0375 111.903 78.0375 111.903L66.4815 118.274C66.4815 118.274 62.1792 110.559 61.4963 107.611C60.2896 102.402 57.9192 96.2267 60.3854 92.9119C64.2468 87.7212 69.6251 90.0162 69.6251 90.0162Z" fill="white"/>
<path d="M45.5069 93.9934C45.4946 93.9934 45.4822 93.9913 45.4702 93.9882C45.436 93.9779 45.4076 93.9542 45.3912 93.9223C43.7282 90.7042 43.6554 85.5754 43.6549 85.5238L43.6569 85.5001C44.0911 83.0578 45.7341 81.7609 45.8038 81.7073C45.8603 81.663 45.9422 81.6733 45.9863 81.731C46.0304 81.7877 46.02 81.869 45.9632 81.9133C45.947 81.9257 44.3348 83.201 43.9154 85.5331C43.92 85.8082 44.024 90.5878 45.5609 93.6812L50.0152 91.1132C50.0773 91.0771 50.1571 91.0988 50.193 91.1616C50.2289 91.2234 50.2076 91.3027 50.1452 91.3388L45.5719 93.9759C45.5519 93.9872 45.5295 93.9934 45.5069 93.9934Z" fill="#BB9BB0"/>
<path d="M31.5991 114.431C30.2638 114.202 29.0001 109.248 29.0001 109.248L30.5621 110.193C30.5621 110.193 31.9998 112.264 32.2859 113.591C32.5721 114.918 32.0439 114.507 31.5991 114.431Z" fill="#333333"/>
<path d="M31.8199 108.481C31.8199 109.076 31.8199 132.038 31.8199 132.038C31.8199 132.038 34.386 135.131 38.2176 135.131C42.0493 135.131 44.8824 132.038 44.8824 132.038V117.216L31.8199 108.481Z" fill="#FFB581"/>
<path d="M41.2103 123.085C35.4824 123.085 32.7675 116.286 32.7 116.176C35.3519 117.466 44.4977 120.255 44.858 120.255C44.8618 120.255 44.8648 120.255 44.8666 120.254V122.229C43.5336 122.832 42.316 123.085 41.2103 123.085Z" fill="#DE7A4A"/>
<path d="M40.7511 121.677C34.6779 121.78 30.6598 115.952 30.5622 110.193L30.4074 101.06C30.3098 95.3006 34.7039 90.5559 40.2218 90.4632C45.7399 90.3695 50.2923 94.9617 50.39 100.721L50.5448 109.854C50.6425 115.613 46.8242 121.574 40.7511 121.677Z" fill="#FFB581"/>
<path d="M44.0906 113.99C43.2746 114.124 42.5469 114.235 41.7784 113.824C41.0347 113.426 40.5252 112.707 40.3504 111.888C40.3208 111.749 40.1062 111.765 40.1261 111.911C40.2464 112.795 40.7209 113.604 41.4907 114.075C42.2548 114.543 43.3857 114.715 44.1831 114.235C44.2982 114.166 44.2211 113.969 44.0906 113.99Z" fill="#333333"/>
<path d="M48.7121 102.764C48.7121 102.764 48.0271 102.531 46.986 102.548C45.9449 102.566 45.2282 102.823 45.2282 102.823C45.099 102.874 44.8563 102.741 44.8523 102.497C44.848 102.254 45.0152 102.07 45.2133 101.942C45.2133 101.942 45.9083 101.586 46.9495 101.569C47.9906 101.551 48.6971 101.882 48.6971 101.882C48.8637 101.961 49.0924 102.16 49.0965 102.403C49.1006 102.647 48.936 102.761 48.7121 102.764Z" fill="#222823"/>
<path d="M39.6906 102.92C39.6906 102.92 38.9987 102.687 37.947 102.705C36.8951 102.722 36.1712 102.98 36.1712 102.98C36.0404 103.032 35.7954 102.898 35.7913 102.654C35.7871 102.411 35.956 102.227 36.1561 102.098C36.1561 102.098 36.8584 101.744 37.9101 101.726C38.9619 101.708 39.6757 102.038 39.6757 102.038C39.844 102.118 40.075 102.317 40.0791 102.56C40.0832 102.804 39.9169 102.916 39.6906 102.92Z" fill="#222823"/>
<path d="M39.0782 104.996C39.0863 105.466 38.7769 105.852 38.3874 105.858C37.9979 105.864 37.6757 105.489 37.6677 105.02C37.6597 104.55 37.969 104.164 38.3586 104.157C38.7481 104.15 39.0702 104.526 39.0782 104.996Z" fill="#333333"/>
<path d="M47.7307 105.052C47.7387 105.521 47.4294 105.908 47.0399 105.915C46.6503 105.921 46.3281 105.546 46.3202 105.075C46.3122 104.605 46.6215 104.22 47.0111 104.213C47.4005 104.207 47.7227 104.582 47.7307 105.052Z" fill="#333333"/>
<path d="M27.1777 107.058C27.2085 108.873 28.3445 110.326 29.715 110.303C32.2618 110.26 32.1716 108.789 32.1408 106.974C32.11 105.159 30.9741 103.706 29.6035 103.729C28.2331 103.753 27.1469 105.242 27.1777 107.058Z" fill="#FFB581"/>
<path d="M29.7092 108.822C29.5001 108.822 29.2869 108.743 29.1092 108.639C28.6898 108.393 28.411 107.958 28.2517 107.508C28.0887 107.048 28.0585 106.538 28.1655 106.062C28.2642 105.623 28.5038 105.106 28.9503 104.929C29.0299 104.897 29.1157 104.883 29.2021 104.883C29.5355 104.883 29.8777 105.105 29.8959 105.458C29.8985 105.508 29.8529 105.538 29.8104 105.538C29.7782 105.538 29.7478 105.52 29.7416 105.482C29.7065 105.271 29.5188 105.141 29.3102 105.141C29.3067 105.141 29.3032 105.141 29.2995 105.142C29.0755 105.146 28.8796 105.309 28.7566 105.484C28.493 105.86 28.4087 106.362 28.4457 106.811C28.4832 107.267 28.661 107.74 28.971 108.082C29.1145 108.241 29.3003 108.372 29.5065 108.433C29.5901 108.458 29.6896 108.474 29.7888 108.474C29.8988 108.474 30.0084 108.455 30.0955 108.412C30.1076 108.407 30.1206 108.403 30.1338 108.403C30.1955 108.403 30.2581 108.463 30.2143 108.527C30.1003 108.693 29.9443 108.814 29.7379 108.822C29.7283 108.822 29.7188 108.822 29.7092 108.822Z" fill="#DE7A4A"/>
<path d="M48.7157 90.8484C47.17 89.3939 46.055 89.4681 45.3443 89.8668C43.8771 88.3288 40.9935 87.171 37.4683 87.5634C29.6866 88.4246 27.4359 94.3096 27.0871 97.7707C26.7438 101.231 28.0189 104.517 28.0189 104.517L28.0353 104.512C28.455 104.032 29.0053 103.737 29.6048 103.727C29.959 103.722 30.2968 103.813 30.6075 103.988L30.6456 103.982L30.651 104.015L31.2395 107.629L31.6973 105.16L32.4549 101.057C32.4549 101.057 33.4074 98.9739 37.4427 99.3777C42.4531 99.8794 45.4878 95.35 46.0324 94.461C46.7754 94.4827 47.5988 94.6506 48.1966 95.1739C49.5807 96.3853 50.4368 104.193 50.4368 104.193C50.4368 104.193 51.6569 93.6163 48.7157 90.8484Z" fill="#222823"/>
<path d="M45.2439 110.026C44.8139 109.152 44.465 108.225 44.1588 107.302C43.8589 106.399 43.5668 105.479 43.338 104.555C43.3147 104.46 43.1815 104.503 43.1957 104.594C43.3496 105.587 43.5468 106.542 43.8581 107.5C44.1366 108.357 44.4804 109.178 44.8411 110.001C44.5582 110.087 44.272 110.163 43.9814 110.218C43.623 110.286 43.259 110.306 42.9058 110.397C42.6805 110.454 42.7516 110.755 42.9573 110.777C43.6989 110.856 44.506 110.559 45.179 110.273C45.2733 110.233 45.2825 110.104 45.2439 110.026Z" fill="#333333"/>
<path d="M39.9581 128.002L41.4109 129.616L42.218 128.218L44.4778 130.424C44.4778 130.424 41.3571 131.823 39.3663 131.177C37.3756 130.531 36.8374 129.939 36.8374 129.939L39.9581 128.002Z" fill="white"/>
<path d="M80.9178 175.082C80.9402 175.043 80.9623 175.004 80.9847 174.965L81.072 165.37L68.0512 164.509C68.0512 164.509 63.0675 142.395 60.8883 137.794C58.7092 133.195 55.2388 131.823 55.2388 131.823L55.5616 132.71L51.9298 175.082H80.9178Z" fill="#9FA0FF"/>
<path d="M25.2962 174.356C25.2962 174.356 13.1899 134.647 16.8219 131.984C20.4537 129.321 31.8335 125.931 31.8335 125.931C31.8335 125.931 37.2286 130.519 41.5951 130.341C45.3339 130.187 44.9889 126.819 44.9889 126.819C44.9889 126.819 53.3019 130.369 55.2389 131.823C56.3004 132.618 56.8772 141.535 57.3012 151.385C57.6509 159.508 57.8968 168.267 58.2251 173.63L25.2962 174.356Z" fill="#9FA0FF"/>
<path d="M58.2251 173.759C58.1567 173.759 58.0994 173.706 58.0952 173.637C57.7633 168.218 57.0458 150.546 56.844 144.719C56.6853 140.136 55.3519 136.397 55.3384 136.359C55.314 136.291 55.349 136.217 55.4166 136.193C55.4843 136.168 55.5589 136.203 55.5833 136.271C55.5969 136.309 56.944 140.084 57.1042 144.711C57.306 150.536 58.0234 168.203 58.3551 173.621C58.3594 173.694 58.3049 173.754 58.2331 173.759H58.2251Z" fill="#274B82"/>
<path d="M57.2364 163.541C57.882 163.379 65.6301 162.573 67.7285 163.218C69.8268 163.863 71.9253 167.899 71.9253 169.19C71.9253 169.858 65.8721 169.594 65.7107 169.836C63.2742 173.491 56.9136 172.5 56.9136 172.5L57.2364 163.541Z" fill="#FFB581"/>
<path d="M18.4359 131.015C21.6587 130.21 27.0447 132.845 28.2284 137.068C29.9534 143.224 30.8178 161.604 30.8178 161.604L58.689 162.895L58.9514 172.795C58.9514 172.795 26.2915 172.795 20.4805 172.795C14.6695 172.795 13.9982 143.189 14.1315 140.485C14.3198 136.665 14.9923 131.876 18.4359 131.015Z" fill="#9FA0FF"/>
<path d="M58.9512 172.925C58.8809 172.925 58.823 172.87 58.8212 172.798L58.5621 163.02L30.8118 161.734C30.7448 161.731 30.6911 161.677 30.6878 161.611C30.6792 161.426 29.8044 143.175 28.1031 137.103C28.0837 137.034 28.1242 136.962 28.1933 136.944C28.2624 136.924 28.3344 136.964 28.3538 137.033C29.9907 142.874 30.8636 159.887 30.9421 161.48L58.6951 162.765C58.7632 162.768 58.8174 162.824 58.8192 162.892L59.0815 172.792C59.0833 172.863 59.0267 172.924 58.9547 172.925H58.9512Z" fill="#274B82"/>
<path d="M39.9583 128.002L36.1918 132.952L29.1971 126.819L31.7798 123.052L39.9583 128.002Z" fill="white"/>
<path d="M36.2642 132.966C36.2368 132.966 36.2092 132.958 36.1856 132.94C36.1284 132.896 36.1171 132.815 36.1606 132.757L39.2985 128.618C39.3418 128.561 39.4235 128.549 39.4809 128.594C39.5381 128.637 39.5494 128.718 39.5059 128.776L36.368 132.915C36.3425 132.949 36.3036 132.966 36.2642 132.966Z" fill="#BB9BB0"/>
<path d="M42.2179 128.218L45.0157 124.128L47.5513 127.867L45.1234 132.414L42.2179 128.218Z" fill="white"/>
<path d="M41.4109 129.746C41.3741 129.746 41.339 129.731 41.3141 129.704L39.8743 128.103L31.8175 123.228L29.3044 126.892C29.2639 126.952 29.1828 126.967 29.1235 126.926C29.0643 126.886 29.049 126.804 29.0898 126.744L31.6724 122.978C31.7114 122.922 31.7882 122.905 31.8471 122.941L40.0255 127.891C40.0365 127.897 40.0464 127.905 40.055 127.915L41.3877 129.396L42.1052 128.153L44.9084 124.055C44.9327 124.02 44.9729 123.998 45.0158 123.998H45.0161C45.0592 123.998 45.0994 124.02 45.1236 124.055L47.6592 127.795C47.6996 127.854 47.684 127.935 47.6245 127.975C47.5651 128.016 47.484 128 47.4437 127.94L45.0153 124.36L42.3254 128.291L41.5237 129.681C41.5028 129.717 41.4659 129.741 41.4245 129.746H41.4109Z" fill="#BB9BB0"/>
<path d="M61.2284 72.8227C61.131 72.5641 60.953 72.3282 60.8402 72.0738C60.3277 70.9201 60.1654 69.6252 60.4121 68.387C60.4247 68.3242 60.3288 68.2964 60.315 68.3603C60.0901 69.3945 60.0873 70.5029 60.369 71.5258C60.4415 71.7895 60.5305 72.048 60.6352 72.3004C60.6786 72.4045 60.7245 72.5085 60.7732 72.6105C60.8287 72.7269 60.9724 72.8814 60.8263 72.9401C60.7008 72.9895 60.5173 72.97 60.3816 72.9865C60.2293 73.005 60.0776 73.0287 59.9258 73.0503C59.6137 73.0936 59.2874 73.1152 58.9999 73.2522C58.8087 73.3429 58.9296 73.5911 59.0968 73.6097C59.4249 73.6468 59.7755 73.5417 60.0959 73.4799C60.3964 73.4212 60.7551 73.3933 61.0333 73.2625C61.2121 73.1781 61.3007 73.0143 61.2284 72.8227Z" fill="#333333"/>
<path d="M65.3547 65.3482C65.1053 65.2813 64.851 65.2236 64.594 65.1948C64.106 65.1422 63.6085 65.1432 63.1297 65.2576C62.807 65.3338 62.8001 65.8396 63.1582 65.8612C63.6323 65.8911 64.0933 65.9179 64.5694 66.0178C64.6316 66.0312 64.6937 66.0446 64.7559 66.0569C64.7743 66.0611 64.7866 66.0642 64.7952 66.0652C64.8036 66.0673 64.8149 66.0703 64.8322 66.0745C64.9553 66.1054 65.076 66.1414 65.1978 66.1764C65.3606 66.2228 65.5295 66.263 65.6927 66.194C65.8185 66.1404 65.9231 66.0497 65.9369 65.9066C65.9688 65.5728 65.6186 65.4183 65.3547 65.3482Z" fill="#333333"/>
<path d="M56.376 63.8422C56.1397 63.7464 55.9115 63.6496 55.6556 63.5857C55.4135 63.527 55.165 63.5064 54.9165 63.4941C54.6538 63.4807 54.3889 63.4745 54.1262 63.493C53.8449 63.5126 53.5295 63.5353 53.2899 63.697C53.1664 63.7804 53.1162 63.9473 53.1489 64.0864C53.1854 64.2429 53.3008 64.3346 53.4513 64.3738C53.6867 64.4356 53.969 64.3686 54.2079 64.3511C54.4342 64.3346 54.6604 64.3233 54.8873 64.3254C54.9976 64.3274 55.02 64.3274 55.1525 64.3367C55.211 64.3408 55.2694 64.347 55.3278 64.3511C55.3776 64.3542 55.4274 64.3563 55.4773 64.3573C55.5257 64.3583 55.5348 64.3593 55.5047 64.3583C55.7548 64.3666 55.9654 64.3614 56.2118 64.3861C56.3534 64.4006 56.4903 64.3284 56.5308 64.1863C56.5685 64.0544 56.5107 63.8968 56.376 63.8422Z" fill="#333333"/>
<path d="M58.2654 95.0688C58.2311 95.0688 58.1979 95.0554 58.1731 95.0307L54.8794 91.7168L52.0901 93.5937C52.0304 93.6339 51.9495 93.6184 51.9093 93.5587C51.8691 93.4989 51.885 93.4186 51.9446 93.3784L54.8231 91.4408C54.875 91.4058 54.9441 91.413 54.9883 91.4573L58.2098 94.698C58.5258 93.7709 59.8509 89.8781 60.1327 89.0334C60.748 87.1875 58.8137 84.9017 58.7941 84.879C58.7473 84.8244 58.7536 84.742 58.8083 84.6946C58.8628 84.6483 58.945 84.6545 58.9919 84.7091C59.0757 84.8069 61.0411 87.1308 60.3797 89.1148C60.0605 90.0728 58.4053 94.9318 58.3886 94.9813C58.3742 95.0235 58.3387 95.0554 58.2947 95.0657C58.2851 95.0678 58.2752 95.0688 58.2654 95.0688Z" fill="#BB9BB0"/>
<path d="M71.8716 118.098C71.8255 118.098 71.7809 118.073 71.7572 118.03C71.7228 117.967 71.7459 117.888 71.8091 117.854C71.9372 117.784 74.2941 116.513 76.6123 116.513C77.3177 116.513 78.019 116.631 78.6535 116.936C78.7183 116.967 78.7456 117.044 78.7146 117.109C78.6921 117.156 78.6455 117.183 78.597 117.183C78.5782 117.183 78.559 117.179 78.5408 117.171C77.9547 116.888 77.2983 116.779 76.6334 116.779C74.3512 116.779 71.9647 118.065 71.934 118.082C71.9141 118.093 71.8927 118.098 71.8716 118.098Z" fill="#DE7A4A"/>
<path d="M17.6895 118.344C17.6895 118.344 27.1054 124.155 28.881 125.608C30.6566 127.061 18.9808 130.854 18.9808 130.854C18.9808 130.854 12.7675 130.42 11.0714 125.931C8.32735 118.667 17.6895 118.344 17.6895 118.344Z" fill="#FFB581"/>
<path d="M28.0201 125.258C28.0201 125.258 33.8311 125.016 34.7458 125.769C35.074 126.04 35.1389 126.379 35.0874 126.703C34.9842 127.352 34.3982 127.814 33.7418 127.811L28.5582 127.787L28.0201 125.258Z" fill="#FFB581"/>
<path d="M24.8673 124.854C24.8673 124.854 29.8328 124.924 31.7866 126.523C32.6273 127.21 32.9402 127.797 33.5353 129.159C34.3232 130.962 33.8048 133.339 32.8897 133.382C32.0421 133.424 31.6164 130.538 31.6164 130.538C31.6164 130.538 32.5313 133.68 30.9257 134.002C29.7417 134.239 29.1299 129.472 29.1299 129.472C29.1299 129.472 30.018 134.401 28.7747 133.869C27.5315 133.335 26.9987 129.828 26.9987 129.828C26.9987 129.828 27.3539 133.735 26.2883 133.202C25.8146 132.965 24.6897 130.005 24.6897 130.005C24.6897 130.005 22.8996 130.921 20.7825 130.952C19.8256 130.967 18.7069 131.079 17.8224 130.36C14.9806 128.052 22.0257 125.032 24.8673 124.854Z" fill="#FFB581"/>
<path d="M28.6367 125.238C28.646 125.236 28.6558 125.235 28.6657 125.235H28.6677C28.6694 125.235 28.6829 125.236 28.707 125.237C28.6831 125.237 28.6595 125.238 28.6367 125.238Z" fill="#DEAC93"/>
<path d="M32.906 127.795C32.896 127.795 32.8861 127.794 32.8763 127.791C32.5853 127.288 32.275 126.923 31.7865 126.523C31.0221 125.898 29.7968 125.506 28.5882 125.261C28.6024 125.251 28.6189 125.243 28.6367 125.238C28.6595 125.238 28.6831 125.237 28.707 125.237C29.0489 125.254 31.5243 125.453 33.0129 127.59C33.054 127.649 33.0394 127.73 32.9804 127.772C32.9577 127.787 32.9318 127.795 32.906 127.795Z" fill="#DE7A4A"/>
<path d="M32.8762 127.791C32.846 127.784 32.8182 127.766 32.799 127.74C31.2835 125.563 28.6897 125.496 28.6637 125.496C28.5918 125.495 28.5344 125.435 28.5355 125.364C28.5361 125.322 28.5567 125.285 28.588 125.261C29.7967 125.506 31.022 125.898 31.7864 126.523C32.2749 126.923 32.5852 127.288 32.8762 127.791Z" fill="#DE7A4A"/>
<path d="M24.9179 130.584C24.887 130.566 24.8629 130.537 24.8536 130.5C24.8529 130.497 24.7966 130.279 24.6573 130.021C24.6786 130.011 24.6896 130.005 24.6896 130.005C24.6896 130.005 24.7789 130.241 24.9179 130.584Z" fill="#38547B"/>
<path d="M24.9798 130.599C24.9578 130.599 24.9366 130.593 24.9179 130.584C24.7789 130.241 24.6896 130.005 24.6896 130.005C24.6896 130.005 24.6786 130.011 24.6572 130.021C24.6017 129.918 24.533 129.81 24.4495 129.707C24.2116 129.413 23.824 129.214 23.4378 129.188C23.366 129.183 23.3117 129.121 23.3166 129.05C23.3211 128.981 23.3799 128.928 23.447 128.928C23.4496 128.928 23.4523 128.928 23.455 128.928C23.9114 128.958 24.3699 129.194 24.652 129.543C24.9829 129.952 25.1013 130.418 25.1063 130.438C25.1236 130.508 25.0812 130.578 25.0115 130.595C25.0009 130.598 24.9903 130.599 24.9798 130.599Z" fill="#DE7A4A"/>
<path d="M29.4345 132.267C29.419 131.59 29.3328 130.837 29.256 130.283C29.2825 130.436 29.3135 130.604 29.3485 130.782C29.4179 131.458 29.4516 132.043 29.4591 132.183C29.4609 132.214 29.4515 132.243 29.4345 132.267Z" fill="#38547B"/>
<path d="M29.329 132.32C29.2603 132.32 29.2028 132.267 29.1991 132.198C29.1309 130.931 28.9088 128.815 28.6033 128.528C28.5509 128.478 28.5485 128.396 28.5977 128.343C28.6233 128.316 28.6579 128.302 28.6925 128.302C28.7245 128.302 28.7566 128.314 28.7817 128.338C29.0679 128.607 29.2466 129.793 29.3484 130.782C29.3133 130.604 29.2824 130.436 29.2558 130.283C29.3327 130.837 29.4189 131.59 29.4344 132.267C29.4121 132.298 29.3768 132.318 29.3361 132.32H29.329Z" fill="#DE7A4A"/>
<path d="M31.8583 131.896C31.849 131.781 31.8367 131.668 31.8224 131.559C31.8463 131.656 31.8721 131.755 31.9 131.855C31.8895 131.871 31.8753 131.886 31.8583 131.896Z" fill="#38547B"/>
<path d="M31.79 131.916C31.7246 131.916 31.6682 131.866 31.6608 131.799C31.5786 131.059 31.2709 129.058 30.8415 128.693C30.7866 128.647 30.7799 128.565 30.8264 128.51C30.8521 128.479 30.8887 128.464 30.9257 128.464C30.9555 128.464 30.9853 128.474 31.0098 128.495C31.5957 128.992 31.8882 131.488 31.9195 131.77C31.9229 131.801 31.9155 131.83 31.9003 131.855C31.8723 131.755 31.8465 131.656 31.8226 131.559C31.8369 131.668 31.8493 131.781 31.8585 131.896C31.8427 131.905 31.8243 131.913 31.8046 131.915L31.79 131.916Z" fill="#DE7A4A"/>
<path d="M27.0539 130.964C27.0448 130.337 26.9986 129.828 26.9986 129.828C26.9986 129.828 27.0038 129.863 27.0145 129.925C27.0868 130.502 27.0571 130.93 27.0556 130.95C27.0552 130.956 27.0546 130.96 27.0539 130.964Z" fill="#38547B"/>
<path d="M26.9257 131.071H26.9161C26.8444 131.066 26.7905 131.003 26.7957 130.932C26.7961 130.926 26.8356 130.351 26.7116 129.662C26.711 129.662 26.4334 128.617 25.8624 128.249C25.8019 128.211 25.7844 128.13 25.8232 128.07C25.8482 128.031 25.8901 128.01 25.9328 128.01C25.9569 128.01 25.9814 128.017 26.0032 128.031C26.6601 128.453 26.9536 129.56 26.9658 129.606C26.9856 129.716 27.0016 129.823 27.0143 129.925C27.0037 129.863 26.9985 129.828 26.9985 129.828C26.9985 129.828 27.0447 130.337 27.0538 130.964C27.0428 131.026 26.9888 131.071 26.9257 131.071Z" fill="#DE7A4A"/>
<path d="M23.084 121.727C22.238 121.188 21.4016 120.661 20.6496 120.189C20.7634 120.222 20.8718 120.257 20.9746 120.293C22.3433 120.776 23.0323 121.562 23.0609 121.595C23.0933 121.633 23.1004 121.684 23.084 121.727Z" fill="#DE7A4A"/>
<path d="M22.9624 121.81C22.926 121.81 22.8896 121.795 22.8639 121.765C22.8572 121.758 22.1825 120.992 20.8735 120.534C20.3355 120.345 19.6373 120.193 18.7874 120.193C17.7286 120.193 16.4344 120.429 14.9191 121.126C14.9015 121.133 14.8831 121.138 14.8649 121.138C14.8156 121.138 14.7684 121.11 14.7464 121.062C14.7164 120.996 14.745 120.919 14.8103 120.889C16.363 120.175 17.6943 119.932 18.7868 119.932C19.5156 119.932 20.1382 120.04 20.6496 120.189C21.4017 120.661 22.238 121.188 23.084 121.727C23.0766 121.746 23.0643 121.764 23.0475 121.778C23.0229 121.8 22.9925 121.81 22.9624 121.81Z" fill="#DE7A4A"/>
<path d="M84.7718 125.843C85.2507 126.045 91.2445 127.722 93.0297 129.256C94.6171 130.62 96.4795 132.553 98.6489 134.623C99.6553 135.583 99.9324 135.844 99.4987 136.41C99.2155 136.78 98.9054 136.9 97.831 136.464C95.4133 135.481 93.3531 133.541 93.3531 133.541C93.3531 133.541 93.0235 134.127 92.3859 134.723C91.8852 135.189 90.0101 136.278 89.6174 136.478C89.26 136.66 89.4023 137.067 89.0537 137.156C88.6084 137.269 88.0364 137.317 87.2289 137.147C84.7683 136.631 81.1517 130.511 81.1517 130.511L84.7718 125.843Z" fill="#FFB581"/>
<path d="M89.2747 134.631C89.2273 134.631 89.1798 134.609 89.1551 134.567C88.9494 134.213 88.61 133.856 88.1985 133.753C88.1436 133.74 88.0871 133.732 88.0313 133.732C87.9242 133.732 87.8195 133.761 87.7329 133.833C87.6173 133.928 87.5867 134.067 87.5534 134.207C87.5403 134.26 87.4936 134.291 87.4462 134.291C87.4126 134.291 87.3787 134.276 87.3561 134.244C87.222 134.053 87.3114 133.82 87.4601 133.661C87.6093 133.5 87.8156 133.416 88.0319 133.416C88.046 133.416 88.0602 133.416 88.0743 133.418C88.6029 133.444 89.0517 133.851 89.3232 134.29C89.6935 134.064 90.0575 133.83 90.4184 133.59C90.3288 133.481 90.239 133.373 90.1497 133.265C90.0431 133.136 89.9285 133.013 89.8639 132.857C89.8481 132.82 89.8849 132.78 89.9221 132.78C89.9305 132.78 89.939 132.782 89.9468 132.786C90.0915 132.872 90.1973 133.002 90.3102 133.126C90.4318 133.259 90.5533 133.393 90.6749 133.527C90.7295 133.586 90.7295 133.667 90.6615 133.717C90.2372 134.03 89.7984 134.325 89.3537 134.608C89.3304 134.624 89.3026 134.631 89.2747 134.631Z" fill="#DE7A4A"/>
<path d="M87.821 137.311C87.0529 137.311 85.7449 137.117 83.8046 134.4C83.7464 134.327 82.4822 132.724 81.9654 131.795C83.1748 133.621 85.4904 136.783 87.2289 137.148C87.6049 137.227 87.9298 137.259 88.2146 137.259C88.4538 137.259 88.6649 137.236 88.854 137.2C88.6027 137.288 88.3306 137.306 88.1477 137.306C88.1063 137.306 88.0618 137.307 88.0141 137.308C87.954 137.31 87.8896 137.311 87.821 137.311ZM89.3154 136.895C89.3534 136.802 89.3854 136.7 89.4547 136.611C89.4298 136.715 89.3833 136.811 89.3154 136.895Z" fill="#D29983"/>
<path d="M81.7804 129.7C81.8825 129.267 82.0369 128.849 82.1911 128.493C82.2123 128.444 82.2599 128.414 82.3103 128.414C82.3277 128.414 82.3454 128.418 82.3623 128.426C82.4282 128.453 82.4586 128.531 82.4299 128.597C82.3642 128.748 82.2906 128.931 82.2203 129.132L81.7804 129.7Z" fill="#DE7A4A"/>
<path d="M88.2146 137.259C87.9297 137.259 87.6049 137.227 87.2289 137.148C85.4904 136.783 83.1747 133.62 81.9653 131.795C81.887 131.654 81.8257 131.529 81.7885 131.426C81.5994 130.907 81.6412 130.29 81.7804 129.7L82.2203 129.132C81.9881 129.8 81.792 130.675 82.0332 131.338C82.3014 132.075 83.9954 134.222 84.0125 134.244C85.8879 136.869 87.1155 137.051 87.8331 137.051C87.8951 137.051 87.9532 137.05 88.0077 137.049C88.0576 137.048 88.1042 137.046 88.1476 137.046C88.5934 137.046 88.9422 136.935 89.1044 136.742C89.2042 136.623 89.2364 136.473 89.2031 136.284C89.133 135.887 88.5319 135.57 88.0019 135.291C87.7268 135.146 87.4671 135.01 87.2976 134.868C86.7559 134.417 87.002 133.445 87.0127 133.404C87.3622 132.348 88.1642 131.282 89.3995 131.282C89.4852 131.282 89.5729 131.287 89.6627 131.299C91.1415 131.472 93.2985 133.142 93.3902 133.214C93.4469 133.258 93.4572 133.339 93.4129 133.396C93.3871 133.429 93.349 133.446 93.3099 133.446C93.2821 133.446 93.2543 133.437 93.2306 133.419C93.2079 133.402 91.0385 131.722 89.6323 131.557C89.5526 131.548 89.4752 131.543 89.4001 131.543C87.9785 131.543 87.3736 133.141 87.2623 133.477C87.2625 133.478 87.0498 134.323 87.4642 134.668C87.6127 134.792 87.8606 134.922 88.1231 135.061C88.7062 135.367 89.3672 135.716 89.4596 136.239C89.4833 136.373 89.4816 136.498 89.4546 136.611C89.3853 136.699 89.3533 136.801 89.3153 136.895C89.3115 136.899 89.3077 136.904 89.3038 136.909C89.1865 137.049 89.025 137.14 88.854 137.2C88.6648 137.236 88.4538 137.259 88.2146 137.259Z" fill="#DE7A4A"/>
<path d="M61.4737 139.216L61.4504 139.215C61.3798 139.202 61.3326 139.134 61.3455 139.064L65.3808 116.707C65.3904 116.655 65.4315 116.612 65.4841 116.602C65.5374 116.592 65.5904 116.615 65.6192 116.661L66.5263 118.101L77.8847 111.838C77.5498 110.632 74.2906 98.8905 73.6577 96.9158C72.5086 93.331 71.07 90.9834 69.3817 89.9379C67.1665 88.5668 60.2371 87.0103 60.1673 86.9949C60.0972 86.9794 60.053 86.9104 60.0687 86.8393C60.0842 86.7693 60.1533 86.725 60.2241 86.7414C60.5106 86.8053 67.2662 88.3227 69.5187 89.7164C71.261 90.7949 72.737 93.1909 73.9055 96.8365C74.5713 98.9132 78.1273 111.738 78.163 111.868C78.1791 111.925 78.1533 111.987 78.1005 112.016L66.5445 118.388C66.4841 118.421 66.4082 118.402 66.3714 118.344L65.5774 117.083L61.6018 139.11C61.5903 139.173 61.5355 139.216 61.4737 139.216Z" fill="#BB9BB0"/>
<path d="M65.5091 116.861L65.487 116.859C65.416 116.846 65.3684 116.779 65.3807 116.708L67.6001 103.795C67.6123 103.724 67.6801 103.676 67.7504 103.689C67.8214 103.701 67.869 103.768 67.8566 103.839L65.6373 116.752C65.6264 116.815 65.5714 116.861 65.5091 116.861Z" fill="#BB9BB0"/>
<path d="M83.7263 143.735L74.0306 172.822H106.616C108.902 172.822 110.931 171.359 111.653 169.192L119.775 144.825C120.147 143.709 119.317 142.557 118.141 142.557H85.3613C84.6194 142.557 83.9609 143.031 83.7263 143.735Z" fill="white"/>
<path d="M104.471 173.064H63.6393C62.2166 173.064 61.0633 171.911 61.0633 170.488V169.029H104.471V173.064Z" fill="white"/>
<path d="M101.969 157.084C101.969 158.333 100.957 159.344 99.7089 159.344C98.4614 159.344 97.4488 158.333 97.4488 157.084C97.4488 155.836 98.4614 154.824 99.7089 154.824C100.957 154.824 101.969 155.836 101.969 157.084Z" fill="#9FA0FF"/>
<path d="M74.8754 169.159H61.2052C61.1333 169.159 61.0751 169.1 61.0751 169.029C61.0751 168.957 61.1333 168.898 61.2052 168.898H74.8741L75.1564 168.896L83.6028 143.694C83.8554 142.936 84.5621 142.427 85.3613 142.427H118.141C118.213 142.427 118.27 142.484 118.27 142.557C118.27 142.629 118.213 142.686 118.141 142.686H85.3613C84.6744 142.686 84.067 143.124 83.8497 143.776L75.3737 169.066C75.3561 169.12 75.3071 169.155 75.2515 169.156L74.8754 169.159Z" fill="#BB9BB0"/>
<path d="M3.02077 172.843V180.005H174.001V172.843H3.02077Z" fill="#BB9BB0"/>
<path d="M167.615 173.031H11.475C11.3706 173.031 11.286 172.947 11.286 172.843C11.286 172.738 11.3706 172.653 11.475 172.653H167.615C167.719 172.653 167.803 172.738 167.803 172.843C167.803 172.947 167.719 173.031 167.615 173.031Z" fill="#916F86"/>
<path d="M8.00441 173.031H3.21402C3.10967 173.031 3.02499 172.947 3.02499 172.843C3.02499 172.738 3.10967 172.653 3.21402 172.653H8.00441C8.10887 172.653 8.19344 172.738 8.19344 172.843C8.19344 172.947 8.10887 173.031 8.00441 173.031Z" fill="#916F86"/>
<path d="M173.805 173.031H170.065C169.961 173.031 169.876 172.947 169.876 172.843C169.876 172.738 169.961 172.653 170.065 172.653H173.805C173.909 172.653 173.994 172.738 173.994 172.843C173.994 172.947 173.909 173.031 173.805 173.031Z" fill="#916F86"/>
</svg>
