<svg width="209" height="181" viewBox="0 0 209 181" fill="none" xmlns="http://www.w3.org/2000/svg">
<path d="M12.5568 5.40376C20.7127 -0.909302 30.1177 0.451965 43.072 0.595657C61.3692 0.799561 79.6665 1.00151 97.9663 1.20348C115.22 1.39572 132.477 1.58603 149.735 1.77632C165.334 1.94916 182.528 2.73367 193.872 13.4393C205.543 24.4518 207.054 42.1802 207.821 58.2076C208.712 76.8416 209.553 95.8989 204.205 113.771C198.857 131.642 186.041 148.416 168.033 153.292C158.159 155.965 147.644 154.887 137.649 152.705C114.323 147.613 92.5329 136.658 73.1439 122.721C53.7553 108.786 36.6531 91.9009 20.7073 74.1284C16.2017 69.1066 7.41524 61.8781 3.01861 49.1805C1.61871 45.1381 -1.30636 36.3256 1.11692 25.446C1.78629 22.44 4.12763 11.9285 12.5568 5.40376Z" fill="#DAB6FC"/>
<path d="M191.055 172.225C191.055 176.522 152.399 180.005 104.714 180.005C57.0289 180.005 18.3726 176.522 18.3726 172.225C18.3726 167.928 57.0289 164.444 104.714 164.444C152.399 164.444 191.055 167.928 191.055 172.225Z" fill="#DAB6FC"/>
<path d="M45.3584 42.002L52.179 160.342C52.3914 164.016 55.3365 166.882 58.8986 166.882H104.186C107.981 166.882 114.116 163.05 113.688 159.155L101.608 49.9198C101.511 44.9487 99.9418 43.7396 99.2567 43.3785C98.925 43.2033 97.8864 42.9119 95.8233 42.3368C94.8188 42.0562 93.9911 41.833 93.4439 41.6873C80.2821 39.1762 67.1203 36.665 53.9569 34.1539C49.3036 33.2657 45.0773 37.1223 45.3584 42.002Z" fill="#4D4D4D"/>
<path d="M111.278 161.553C110.923 161.898 110.526 162.204 110.098 162.459C109.149 163.024 108.039 163.351 106.847 163.351H61.5616C57.9995 163.351 55.0528 160.575 54.842 157.019L48.02 42.4346C47.7395 37.7099 51.9666 33.9742 56.6199 34.8345L96.1069 42.1292C98.1375 42.5044 99.7744 43.9196 100.477 45.789C100.497 45.8432 100.517 45.899 100.535 45.9549C100.588 46.1099 100.639 46.2804 100.684 46.4648C100.7 46.5315 100.715 46.5997 100.728 46.6679C100.751 46.7748 100.77 46.8849 100.785 46.9934C100.793 47.0539 100.802 47.1128 100.808 47.1732L113.166 156.278C113.397 158.325 112.632 160.235 111.278 161.553Z" fill="#F0F6FC"/>
<path d="M72.3984 128.494L54.1848 127.513L52.7138 103.72L70.0624 104.851L72.3984 128.494Z" fill="#DAB6FC"/>
<path d="M74.3545 151.97L56.1844 150.894L54.7986 128.494L72.1472 129.625L74.3545 151.97Z" fill="#DAB6FC"/>
<path d="M89.3206 129.131L73.4399 128.494L71.2404 104.836L86.8869 106.123L89.3206 129.131Z" fill="#BDCCD4"/>
<path d="M91.1419 152.288L75.6535 151.97L73.5748 129.63L89.1764 130.418L91.1419 152.288Z" fill="#9FA0FF"/>
<path d="M105.872 130.12L89.9918 129.484L87.831 106.253L103.439 107.113L105.872 130.12Z" fill="#AEFAEE"/>
<path d="M107.821 152.777L92.3852 152.182L90.2849 130.455L105.456 131.259L107.821 152.777Z" fill="#83DBCA"/>
<path d="M58.5948 85.5704C58.9544 88.3237 57.7562 90.781 55.7767 90.781C53.667 90.781 51.855 88.0411 51.855 85.005C51.855 82.2915 53.34 80.5212 55.0869 80.7872C56.744 81.0397 58.2692 83.0825 58.5948 85.5704Z" fill="#83DBCA"/>
<path d="M96.9455 58.695C97.5702 62.7857 95.4884 66.4361 92.0456 66.4361C88.3797 66.4361 85.2284 62.3656 85.2284 57.8549C85.2284 53.8231 87.8108 51.1941 90.8459 51.5879C93.729 51.963 96.3797 54.9981 96.9455 58.695Z" fill="#9FA0FF"/>
<path d="M67.9138 86.3062C68.2734 89.0595 67.0767 91.517 65.0957 91.517C62.9876 91.517 61.174 88.7769 61.174 85.7407C61.174 83.0273 62.6605 81.2571 64.4059 81.5229C66.0645 81.7756 67.5898 83.8183 67.9138 86.3062Z" fill="#DAB6FC"/>
<path d="M77.9786 87.5327C78.3382 90.2859 77.1415 92.7435 75.1605 92.7435C73.0524 92.7435 71.2404 90.0034 71.2404 86.9672C71.2404 84.2539 72.7253 82.4836 74.4707 82.7494C76.1293 83.0019 77.6546 85.0449 77.9786 87.5327Z" fill="#8895B3"/>
<path d="M88.5271 88.5955C88.8867 91.3488 87.6885 93.8063 85.709 93.8063C83.5993 93.8063 81.7873 91.0662 81.7873 88.03C81.7873 85.3166 83.2723 83.5464 85.0192 83.8123C86.6763 84.0649 88.2016 86.1078 88.5271 88.5955Z" fill="#9FA0FF"/>
<path d="M99.4829 89.9038C99.8425 92.657 98.6443 95.1144 96.6648 95.1144C94.5567 95.1144 92.7431 92.3744 92.7431 89.3383C92.7431 86.6249 94.2281 84.8547 95.975 85.1205C97.6321 85.373 99.1574 87.4159 99.4829 89.9038Z" fill="#9FA0FF"/>
<path d="M53.5307 92.2731L58.6584 92.5594V93.5404L53.5307 93.4178V92.2731Z" fill="#83DBCA"/>
<path d="M62.5551 92.907L67.6828 93.1933L67.8068 94.2679L62.6807 94.1452L62.5551 92.907Z" fill="#FF7BAC"/>
<path d="M73.53 93.8063L78.6561 94.0925V95.3536L73.53 94.9509V93.8063Z" fill="#8895B3"/>
<path d="M83.1357 94.6597L88.2634 94.946L88.2712 96.0476L83.145 95.925L83.1357 94.6597Z" fill="#9FA0FF"/>
<path d="M94.2841 95.8045L99.4103 96.0908L99.4196 97.1923L94.2934 97.0696L94.2841 95.8045Z" fill="#9FA0FF"/>
<path d="M85.7043 79.6L98.3375 80.7608V82.0528L85.7043 80.8264V79.6Z" fill="#E6E6E6"/>
<path d="M84.8253 66.8454L97.4586 68.3738V69.665L84.8253 68.0312V66.8454Z" fill="#E6E6E6"/>
<path d="M76.8129 75.5118L97.9282 77.6171V78.9093L76.8129 76.6156V75.5118Z" fill="#E6E6E6"/>
<path d="M66.7761 71.2602L97.9282 74.5698V76.2477L66.7761 72.5685V71.2602Z" fill="#E6E6E6"/>
<path d="M66.7761 68.0312L97.9282 71.3402V73.0181L66.7761 69.3395V68.0312Z" fill="#E6E6E6"/>
<path d="M111.278 161.553C110.923 161.898 110.526 162.204 110.098 162.459C110.138 160.602 112.098 157.997 111.95 156.213C108.895 119.103 103.532 82.8965 100.477 45.789C100.497 45.8432 100.517 45.899 100.535 45.9548C100.588 46.1098 100.639 46.2804 100.684 46.4648C100.7 46.5315 100.715 46.5997 100.728 46.6679C100.749 46.7764 100.77 46.8849 100.785 46.9934C100.793 47.0538 100.802 47.1127 100.808 47.1732L113.166 156.278C113.397 158.325 112.632 160.235 111.278 161.553Z" fill="#F2F2F2"/>
<path d="M56.4681 156.024L56.4883 156.62C56.5487 158.498 58.0787 159.995 59.9589 160.015L102.521 160.027L101.895 155.123L58.7328 153.757C57.4648 153.717 56.4278 154.756 56.4681 156.024Z" fill="#E6E6E6"/>
<path d="M107.295 160.027H104.82C103.985 160.027 103.276 159.415 103.154 158.589L102.856 156.557C102.748 155.825 103.315 155.169 104.053 155.169H107.207C107.858 155.169 108.415 155.638 108.528 156.278L108.861 158.161C109.033 159.135 108.284 160.027 107.295 160.027Z" fill="#E6E6E6"/>
<path d="M53.5663 36.6342L97.4152 44.8093L98.2801 51.1414L51.5264 43.8281L51.0148 38.9934C50.8614 37.5518 52.1402 36.3691 53.5663 36.6342Z" fill="#DAB6FC"/>
<path d="M140.491 166.745C141.151 166.865 141.824 167.006 142.399 167.353C142.974 167.7 143.44 168.294 143.464 168.965C143.484 169.59 143.115 170.179 142.625 170.568C142.135 170.957 141.534 171.176 140.939 171.366C137.02 172.623 132.793 172.907 128.741 172.186C127.285 171.929 120.222 169.673 123.508 167.516C124.887 166.609 127.027 166.552 128.622 166.369C130.466 166.158 132.323 166.073 134.18 166.113C136.296 166.159 138.407 166.369 140.491 166.745Z" fill="#5A3592"/>
<path d="M137.91 168.231C137.91 169.564 135.64 170.642 132.841 170.642C132.585 170.642 132.333 170.633 132.088 170.616C129.645 170.442 127.772 169.441 127.772 168.231C127.772 166.899 130.041 165.819 132.841 165.819C133.724 165.819 134.555 165.926 135.278 166.116C136.846 166.525 137.91 167.319 137.91 168.231Z" fill="white"/>
<path d="M134.8 168.59C134.007 168.685 133.213 168.779 132.419 168.872C132.102 168.911 131.77 168.953 131.497 169.123C131.226 169.294 131.03 169.635 131.131 169.94C131.275 170.379 131.857 170.45 132.319 170.441C132.244 170.503 132.167 170.56 132.088 170.616C129.645 170.442 127.772 169.441 127.772 168.231C127.772 166.899 130.041 165.819 132.841 165.819C133.724 165.819 134.555 165.926 135.278 166.116C135.109 166.355 134.96 166.598 134.966 166.842C134.98 167.325 135.564 167.486 135.623 167.928C135.687 168.406 135.175 168.545 134.8 168.59Z" fill="#E6E6E6"/>
<path d="M133.904 166.882H131.697V120.891H133.904V166.882Z" fill="#0E0F5F"/>
<path d="M133.904 166.882C133.904 167.006 133.407 167.107 132.791 167.107C132.177 167.107 131.697 167.006 131.697 166.882C131.697 166.758 132.177 166.657 132.791 166.657C133.407 166.657 133.904 166.758 133.904 166.882Z" fill="#0E0F5F"/>
<path d="M140.782 121.084C140.782 121.084 127.118 122.077 123.233 120.604C121.959 120.12 120.822 119.596 120.822 117.523L121.012 116.557H145.35V119.133C145.35 120.33 141.979 121.084 140.782 121.084Z" fill="#000635"/>
<path d="M145.35 116.925C145.35 118.076 139.86 119.01 133.086 119.01C126.313 119.01 120.821 118.076 120.821 116.925C120.821 115.773 126.313 114.84 133.086 114.84C139.86 114.84 145.35 115.773 145.35 116.925Z" fill="#05125E"/>
<path d="M112.205 161.253C112.205 161.253 112.837 164.444 112.668 165.047C112.501 165.65 111.492 169.292 109.923 170.525C108.354 171.757 106.672 172.093 108.018 172.599C109.362 173.102 112.668 171.241 115.695 168.795C116.677 168.003 118.273 166.587 117.825 165.536C117.376 164.485 116.536 162.734 116.536 162.734L117.028 159.372L112.205 161.253Z" fill="#FFBE9E"/>
<path d="M109.637 170.738C109.637 170.738 113.206 173.259 116.844 166.026C117.744 164.236 117.048 163.819 117.048 163.819C117.048 163.819 118.609 165.459 118.693 167.213C118.743 168.25 118.199 170.064 118.602 170.873L118.144 170.867L117.903 168.339C117.903 168.339 115.036 169.179 113.985 170.692C112.935 172.206 111.002 174.307 108.689 173.887C106.378 173.467 106.779 172.251 109.637 170.738Z" fill="#ED1C24"/>
<path d="M145.252 66.682C144.029 65.4642 142.307 64.767 141.312 63.3569C139.68 61.0495 140.601 57.8682 140.098 55.0871C139.518 51.8839 136.779 49.1888 133.568 48.6604C130.355 48.132 126.897 49.8094 125.323 52.6577C123.655 55.6749 124.107 59.3705 124.608 62.7816C125.154 66.5038 125.759 70.3805 127.935 73.4481C129.975 76.3233 133.343 78.2149 136.86 78.4624C139.918 78.6775 144.322 77.5546 146.218 74.8965C147.842 72.6183 147.139 68.5609 145.252 66.682Z" fill="#602304"/>
<path d="M160.026 97.711C159.658 102.862 151.931 103.721 151.931 104.702C151.931 105.328 150.935 106.401 148.814 107.256C147.609 107.743 146.039 108.159 144.084 108.38C138.685 108.994 121.026 105.56 121.026 105.56C121.026 105.56 113.298 97.5886 115.26 89.494C117.224 81.3995 129.609 69.8699 129.609 69.8699C131.043 68.4795 135.387 68.6578 137.48 68.464C139.574 68.2701 144.572 71.5873 151.931 78.7008C159.291 85.814 160.395 92.5601 160.026 97.711Z" fill="#FF7BAC"/>
<path d="M136.459 66.8035C135.333 70.6059 132.064 68.8884 132.064 68.8884C132.187 68.5799 132.258 68.273 132.292 67.9769C132.349 67.4995 132.312 67.0484 132.238 66.6625C132.095 65.92 131.819 65.4146 131.819 65.4146L136.029 61.899L136.051 62.1517L136.375 65.8502L136.459 66.8035Z" fill="#FEBF9C"/>
<path d="M137.338 69.2759C136.947 70.4648 135.259 72.2304 133.65 71.9669C133.571 71.9545 133.492 71.9374 133.413 71.9142C131.737 71.4243 130.674 70.8105 130.838 69.5844C131.001 68.3583 131.533 68.2761 131.533 68.2761C131.533 68.2761 134.889 68.4699 135.662 67.4995C136.125 66.9167 136.401 66.6656 136.6 66.6687C136.732 66.6702 136.831 66.7849 136.928 66.988C137.175 67.4995 137.747 68.0265 137.338 69.2759Z" fill="white"/>
<path d="M132.292 67.9769L132.238 66.6625C132.312 67.0484 132.35 67.4995 132.292 67.9769ZM136.127 63.0198L136.051 62.1517C136.051 62.1517 136.129 62.4896 136.127 63.0198Z" fill="#572004"/>
<path d="M132.61 68.0094C132.528 68.0094 132.444 68.0032 132.365 67.9924C132.34 67.9893 132.315 67.9846 132.292 67.9769C132.35 67.4994 132.312 67.0484 132.238 66.6624C132.464 66.5384 132.722 66.4733 132.967 66.3911C134.01 66.0392 134.898 65.289 135.464 64.3512C135.695 63.9668 136.078 63.3142 136.014 62.8476C135.992 62.6817 135.823 62.5376 135.865 62.3655C135.892 62.2555 135.961 62.1873 136.051 62.1516L136.127 63.0197C136.122 64.2086 135.719 66.3663 133.151 67.8807C132.99 67.9753 132.799 68.0094 132.61 68.0094Z" fill="#E5AC8D"/>
<path d="M126.544 56.4612C126.544 56.4612 124.734 63.6071 129.038 66.1911C132.514 68.276 135.947 66.2314 136.439 60.5488C136.921 54.9545 128.507 50.0841 126.544 56.4612Z" fill="#FEBF9C"/>
<path d="M121.149 97.9557C124.255 94.2804 127.403 78.9457 127.403 78.9457C129.488 88.5121 121.149 97.9557 121.149 97.9557Z" fill="#E66F9B"/>
<path d="M124.01 97.0972C124.01 97.0972 124.274 96.7884 124.684 96.2422C124.438 96.6548 124.208 96.9512 124.01 97.0972ZM124.684 96.2422C126.38 93.4187 128.961 85.1412 128.711 82.2165C128.426 78.8641 130.634 72.2414 130.634 71.9942C130.634 71.9942 130.634 71.9942 130.821 71.9942C131.009 71.9942 130.674 76.0842 130.102 78.0874C129.53 80.0906 130.306 80.4176 129.488 86.0184C128.865 90.2891 126.007 94.4886 124.684 96.2422Z" fill="#E66F9B"/>
<path d="M124.01 95.5438C124.01 95.5438 125.87 91.5734 126.995 89.1255C126.995 89.1243 126.995 89.1238 126.995 89.1238C127.017 89.1238 125.417 94.9991 124.01 95.5438Z" fill="#FF95BD"/>
<path d="M117.346 87.5924C117.414 87.3963 117.555 87.121 117.757 86.7823C117.493 87.2934 117.346 87.5924 117.346 87.5924ZM117.757 86.7823C119.161 84.0709 123.892 75.3944 127.738 73.7949C127.738 73.7949 119.766 83.4144 117.757 86.7823Z" fill="#FF95BD"/>
<path d="M144.329 86.182C144.329 86.182 138.012 71.2806 140.097 70.6674C140.255 70.6211 140.421 70.5995 140.593 70.5995C142.692 70.5995 145.677 73.7949 145.677 73.7949C145.677 73.7949 142.839 71.362 141.681 71.362C141.487 71.362 141.342 71.4296 141.262 71.5873C140.711 72.6911 144.329 86.182 144.329 86.182Z" fill="#FF95BD"/>
<path d="M129.569 102.177C128.734 102.177 128.19 101.968 128.14 101.451C127.955 99.5501 134.333 98.0171 137.516 96.0548C140.699 94.0925 141.692 90.7198 140.22 86.1819C138.747 81.6441 139.055 71.9942 139.055 71.9942C141.14 86.1371 143.899 87.8988 145.188 92.3336C146.475 96.7687 141.937 98.1398 138.564 99.6115C136.109 100.683 131.8 102.177 129.569 102.177Z" fill="#E66F9B"/>
<path d="M143.366 104.781C141.168 104.781 139.713 104.175 139.674 103.659C139.62 102.924 149.356 101.697 151.626 99.6735C153.893 97.6497 154.139 95.3811 153.893 89.1245C153.648 82.8679 147.946 76.0032 147.946 76.0032C147.946 76.0032 152.728 81.0316 155.182 84.0365C157.635 87.0413 159.25 90.0945 158.739 96.6686C158.226 103.243 150.398 103.475 146.535 104.395C145.379 104.671 144.305 104.781 143.366 104.781ZM157.818 92.6215C157.818 92.8054 157.695 99.367 153.158 101.329C153.158 101.329 157.083 100.409 157.818 97.6497C158.554 94.8905 157.818 92.6215 157.818 92.6215Z" fill="#E66F9B"/>
<path d="M153.16 101.328C157.697 99.3663 157.819 92.8048 157.819 92.6207C157.819 92.6207 158.555 94.8897 157.819 97.649C157.084 100.409 153.16 101.328 153.16 101.328Z" fill="#EB8CAF"/>
<path d="M147.407 107.186C146.777 107.186 146.107 107.183 145.434 107.177L145.677 106.419L143.304 106.144C143.333 106.039 143.347 105.983 143.347 105.983L139.662 105.593C141.431 105.413 143.676 105.251 145.651 105.125C146.939 105.043 148.111 104.977 148.962 104.931C149.387 104.907 149.732 104.89 149.97 104.877C150.208 104.865 150.34 104.859 150.34 104.859L151.847 104.784C151.83 104.905 151.774 105.047 151.677 105.204C151.314 105.785 150.37 106.544 148.798 107.179C148.368 107.184 147.9 107.186 147.407 107.186Z" fill="#E66F9B"/>
<path d="M148.612 107.336C148.68 107.31 148.747 107.283 148.813 107.256C150.935 106.401 151.931 105.328 151.931 104.702C151.931 104.676 151.937 104.649 151.947 104.623L152.009 104.62V104.702C152.009 104.879 151.939 105.076 151.807 105.286C151.675 105.496 151.48 105.721 151.219 105.951C150.696 106.412 149.91 106.898 148.844 107.328L148.829 107.334H148.815C148.747 107.335 148.68 107.335 148.612 107.336Z" fill="#F2E2E9"/>
<path d="M147.41 107.34C146.765 107.34 146.082 107.337 145.396 107.331C145.407 107.28 145.411 107.253 145.411 107.253L145.437 107.176C146.109 107.182 146.779 107.185 147.41 107.185C147.901 107.185 148.371 107.183 148.8 107.178C150.372 106.543 151.316 105.784 151.678 105.203C151.776 105.046 151.832 104.904 151.85 104.783L150.342 104.858C150.342 104.858 150.21 104.864 149.972 104.876C149.735 104.889 149.389 104.906 148.965 104.93C148.113 104.976 146.941 105.042 145.653 105.124C143.678 105.25 141.432 105.412 139.664 105.592L138.932 105.514C142.9 105.064 150.334 104.703 150.336 104.703L151.927 104.624L151.948 104.623C151.938 104.649 151.932 104.675 151.932 104.701C151.932 105.327 150.936 106.4 148.816 107.256C148.749 107.283 148.682 107.309 148.614 107.335C148.236 107.339 147.831 107.34 147.41 107.34Z" fill="#8895B3"/>
<path d="M133.979 71.9932C133.869 71.9932 133.76 71.9847 133.65 71.9669C133.766 71.5933 134.451 71.1624 135.406 70.2075C136.415 69.1984 136.577 67.4003 136.6 66.6687C136.732 66.6702 136.831 66.7849 136.928 66.988C137.113 67.3709 137.482 67.7646 137.48 68.4637C137.48 68.6962 137.44 68.9628 137.338 69.2759C136.973 70.3841 135.482 71.9932 133.979 71.9932Z" fill="#F2F2F2"/>
<path d="M143.347 105.982C143.347 105.982 141.752 112.549 138.441 115.126C136.797 116.405 131.644 117.079 126.546 117.434C121.381 117.794 116.277 117.825 114.942 117.825C112.293 117.825 102.138 118.069 108.884 118.928C110.892 119.184 113.178 121.711 115.396 125.135C120.632 133.211 122.984 145.305 122.984 145.305C122.984 145.305 123.602 147.871 103.978 129.23C84.3557 110.589 117.346 103.229 117.346 103.229L143.347 105.982Z" fill="#7A207A"/>
<path d="M109.005 126.286C107.236 124.713 105.299 122.642 103.978 120.277C101.035 115.003 103.366 115.74 107.289 114.022C109.634 112.996 115.133 112.364 119.505 111.944C117.91 113.667 116.132 115.642 114.241 117.829C112.825 117.844 110.535 117.9 108.833 118.02C108.594 118.037 108.366 118.055 108.156 118.075C107.235 118.159 106.61 118.269 106.61 118.408C106.61 118.549 107.254 118.721 108.884 118.928C109.824 119.048 110.823 119.665 111.85 120.638C110.551 122.19 109.633 124.121 109.005 126.286Z" fill="#6E1D6E"/>
<path d="M145.415 107.079C145.415 107.079 144.224 113.479 139.679 116.3C135.135 119.12 127.245 119.12 124.014 123.782C120.785 128.441 119.313 130.036 121.644 134.942C123.974 139.848 125.936 145.856 123.483 153.339C121.03 160.819 119.927 162.537 117.35 162.537C114.776 162.537 109.38 161.556 110.115 158.734C110.851 155.913 103.536 130.39 111.854 120.463C120.172 110.535 127 104.076 127 104.076L145.681 106.243L145.415 107.079Z" fill="#93278F"/>
<path d="M119.997 124.823C119.978 124.823 120.245 124.397 122.542 121.136C125.653 116.72 132.187 115.003 135.867 113.9C139.545 112.796 140.281 110.22 140.281 110.22C140.281 110.22 140.635 112.562 139.091 114.55C137.547 116.538 130.362 117.099 126.757 118.683C123.153 120.266 120.045 124.771 120.045 124.771C120.045 124.771 120.003 124.823 119.997 124.823Z" fill="#A952A5"/>
<path d="M118.383 159.155C118.383 159.155 121.288 153.881 121.741 149.834C122.192 145.787 117.242 131.682 117.346 131.315C117.346 131.315 122.843 144.683 122.981 150.448C123.119 156.213 118.383 159.155 118.383 159.155Z" fill="#A952A5"/>
<path d="M131.88 101.451C131.88 101.451 128.324 100.286 126.362 102.126C124.399 103.965 123.233 104.64 123.233 104.64L124.717 105.772C124.717 105.772 132.371 104.885 132.923 104.885C133.475 104.885 134.579 101.39 131.88 101.451Z" fill="#FFBE9E"/>
<path d="M86.8685 91.173L96.293 106.745L125.645 107.399L115.838 90.4514C115.582 90.0098 115.113 89.7365 114.603 89.7334L87.7799 89.5663C86.9522 89.5612 86.4391 90.4649 86.8685 91.173Z" fill="#333333"/>
<path d="M139.607 107.399H124.717V105.772H138.782C139.238 105.772 139.607 106.141 139.607 106.596V107.399Z" fill="#333333"/>
<path d="M131.697 100.47C131.697 100.47 133.72 99.3047 135.008 100.715C136.296 102.126 137.093 103.781 136.418 104.946C135.743 106.111 133.351 105.923 132.738 105.437C132.126 104.951 130.528 101.163 130.528 101.163L131.697 100.47Z" fill="white"/>
</svg>
